G04 EAGLE Gerber RS-274X export*
G75*
%MOMM*%
%FSLAX34Y34*%
%LPD*%
%INTop Copper*%
%IPPOS*%
%AMOC8*
5,1,8,0,0,1.08239X$1,22.5*%
G01*
%ADD10R,1.800000X3.000000*%
%ADD11R,0.760000X2.050000*%
%ADD12R,1.270000X1.905000*%
%ADD13R,0.800000X0.900000*%
%ADD14R,1.905000X1.270000*%
%ADD15C,0.304800*%
%ADD16C,0.756400*%
%ADD17C,0.152400*%
%ADD18C,0.660400*%
%ADD19C,0.228600*%

G36*
X122038Y3826D02*
X122038Y3826D01*
X122157Y3833D01*
X122195Y3846D01*
X122236Y3851D01*
X122346Y3894D01*
X122459Y3931D01*
X122494Y3953D01*
X122531Y3968D01*
X122627Y4037D01*
X122728Y4101D01*
X122756Y4131D01*
X122789Y4154D01*
X122865Y4246D01*
X122946Y4333D01*
X122966Y4368D01*
X122991Y4399D01*
X123042Y4507D01*
X123100Y4611D01*
X123110Y4651D01*
X123127Y4687D01*
X123149Y4804D01*
X123179Y4919D01*
X123183Y4979D01*
X123187Y4999D01*
X123185Y5020D01*
X123189Y5080D01*
X123189Y24078D01*
X125422Y26311D01*
X236578Y26311D01*
X238811Y24078D01*
X238811Y5080D01*
X238826Y4962D01*
X238833Y4843D01*
X238846Y4805D01*
X238851Y4764D01*
X238894Y4654D01*
X238931Y4541D01*
X238953Y4506D01*
X238968Y4469D01*
X239037Y4373D01*
X239101Y4272D01*
X239131Y4244D01*
X239154Y4211D01*
X239246Y4135D01*
X239333Y4054D01*
X239368Y4034D01*
X239399Y4009D01*
X239507Y3958D01*
X239611Y3900D01*
X239651Y3890D01*
X239687Y3873D01*
X239804Y3851D01*
X239919Y3821D01*
X239979Y3817D01*
X239999Y3813D01*
X240020Y3815D01*
X240080Y3811D01*
X278373Y3811D01*
X278511Y3828D01*
X278650Y3841D01*
X278669Y3848D01*
X278689Y3851D01*
X278819Y3902D01*
X278949Y3949D01*
X278966Y3960D01*
X278985Y3968D01*
X279097Y4049D01*
X279212Y4127D01*
X279226Y4143D01*
X279242Y4154D01*
X279331Y4262D01*
X279423Y4366D01*
X279432Y4384D01*
X279445Y4399D01*
X279504Y4525D01*
X279567Y4649D01*
X279572Y4669D01*
X279580Y4687D01*
X279606Y4824D01*
X279637Y4959D01*
X279636Y4980D01*
X279640Y4999D01*
X279632Y5138D01*
X279627Y5277D01*
X279622Y5297D01*
X279620Y5317D01*
X279578Y5449D01*
X279539Y5583D01*
X279529Y5600D01*
X279522Y5619D01*
X279448Y5737D01*
X279377Y5857D01*
X279359Y5878D01*
X279352Y5888D01*
X279337Y5902D01*
X279271Y5977D01*
X278891Y6357D01*
X278891Y26106D01*
X278876Y26224D01*
X278869Y26343D01*
X278856Y26381D01*
X278851Y26422D01*
X278808Y26532D01*
X278771Y26645D01*
X278749Y26680D01*
X278734Y26717D01*
X278665Y26813D01*
X278601Y26914D01*
X278571Y26942D01*
X278548Y26975D01*
X278456Y27051D01*
X278369Y27132D01*
X278334Y27152D01*
X278303Y27177D01*
X278195Y27228D01*
X278091Y27286D01*
X278051Y27296D01*
X278015Y27313D01*
X277898Y27335D01*
X277783Y27365D01*
X277723Y27369D01*
X277703Y27373D01*
X277682Y27371D01*
X277622Y27375D01*
X276238Y27375D01*
X275345Y28268D01*
X275345Y50032D01*
X276238Y50925D01*
X285102Y50925D01*
X286122Y49904D01*
X286217Y49831D01*
X286306Y49752D01*
X286342Y49734D01*
X286374Y49709D01*
X286483Y49662D01*
X286589Y49607D01*
X286628Y49599D01*
X286666Y49583D01*
X286783Y49564D01*
X286899Y49538D01*
X286940Y49539D01*
X286980Y49533D01*
X287098Y49544D01*
X287217Y49547D01*
X287256Y49559D01*
X287296Y49562D01*
X287409Y49603D01*
X287523Y49636D01*
X287557Y49656D01*
X287596Y49670D01*
X287694Y49737D01*
X287797Y49797D01*
X287842Y49837D01*
X287859Y49849D01*
X287872Y49864D01*
X287917Y49904D01*
X288938Y50925D01*
X297802Y50925D01*
X298822Y49904D01*
X298917Y49831D01*
X299006Y49752D01*
X299042Y49734D01*
X299074Y49709D01*
X299183Y49662D01*
X299289Y49607D01*
X299328Y49599D01*
X299366Y49583D01*
X299483Y49564D01*
X299599Y49538D01*
X299640Y49539D01*
X299680Y49533D01*
X299798Y49544D01*
X299917Y49547D01*
X299956Y49559D01*
X299996Y49562D01*
X300109Y49603D01*
X300223Y49636D01*
X300257Y49656D01*
X300296Y49670D01*
X300394Y49737D01*
X300497Y49797D01*
X300542Y49837D01*
X300559Y49849D01*
X300572Y49864D01*
X300617Y49904D01*
X301638Y50925D01*
X310502Y50925D01*
X310863Y50563D01*
X310962Y50487D01*
X311057Y50404D01*
X311088Y50389D01*
X311114Y50368D01*
X311230Y50318D01*
X311342Y50262D01*
X311375Y50255D01*
X311406Y50242D01*
X311531Y50222D01*
X311653Y50196D01*
X311687Y50197D01*
X311720Y50192D01*
X311846Y50204D01*
X311971Y50209D01*
X312003Y50219D01*
X312037Y50222D01*
X312155Y50265D01*
X312276Y50301D01*
X312304Y50318D01*
X312336Y50330D01*
X312440Y50400D01*
X312548Y50465D01*
X312571Y50489D01*
X312599Y50508D01*
X312682Y50602D01*
X312771Y50692D01*
X312798Y50733D01*
X312810Y50747D01*
X312819Y50766D01*
X312860Y50826D01*
X312937Y50960D01*
X313410Y51433D01*
X313989Y51768D01*
X314636Y51941D01*
X316871Y51941D01*
X316871Y39780D01*
X316886Y39662D01*
X316893Y39543D01*
X316905Y39505D01*
X316911Y39465D01*
X316954Y39354D01*
X316991Y39241D01*
X317013Y39207D01*
X317028Y39169D01*
X317043Y39147D01*
X317018Y39093D01*
X316960Y38988D01*
X316950Y38949D01*
X316933Y38913D01*
X316911Y38796D01*
X316881Y38680D01*
X316877Y38620D01*
X316873Y38600D01*
X316875Y38580D01*
X316871Y38520D01*
X316871Y26359D01*
X314636Y26359D01*
X313989Y26532D01*
X313410Y26867D01*
X312937Y27340D01*
X312860Y27474D01*
X312784Y27574D01*
X312713Y27678D01*
X312688Y27700D01*
X312667Y27727D01*
X312569Y27805D01*
X312475Y27888D01*
X312445Y27904D01*
X312418Y27925D01*
X312303Y27976D01*
X312191Y28033D01*
X312159Y28040D01*
X312128Y28054D01*
X312004Y28075D01*
X311881Y28103D01*
X311847Y28102D01*
X311814Y28107D01*
X311689Y28097D01*
X311563Y28093D01*
X311531Y28084D01*
X311497Y28081D01*
X311379Y28040D01*
X311258Y28005D01*
X311229Y27987D01*
X311197Y27976D01*
X311092Y27907D01*
X310984Y27843D01*
X310947Y27811D01*
X310932Y27801D01*
X310917Y27785D01*
X310863Y27737D01*
X310502Y27375D01*
X301638Y27375D01*
X300617Y28396D01*
X300523Y28469D01*
X300434Y28548D01*
X300398Y28566D01*
X300366Y28591D01*
X300257Y28639D01*
X300151Y28693D01*
X300112Y28701D01*
X300074Y28717D01*
X299957Y28736D01*
X299841Y28762D01*
X299800Y28761D01*
X299760Y28767D01*
X299642Y28756D01*
X299523Y28753D01*
X299484Y28741D01*
X299444Y28738D01*
X299332Y28697D01*
X299217Y28664D01*
X299182Y28644D01*
X299144Y28630D01*
X299046Y28563D01*
X298943Y28503D01*
X298898Y28463D01*
X298881Y28451D01*
X298868Y28436D01*
X298822Y28396D01*
X297802Y27375D01*
X297688Y27375D01*
X297570Y27360D01*
X297451Y27353D01*
X297413Y27340D01*
X297372Y27335D01*
X297262Y27292D01*
X297149Y27255D01*
X297114Y27233D01*
X297077Y27218D01*
X296981Y27149D01*
X296880Y27085D01*
X296852Y27055D01*
X296819Y27032D01*
X296743Y26940D01*
X296662Y26853D01*
X296642Y26818D01*
X296617Y26787D01*
X296566Y26679D01*
X296508Y26575D01*
X296498Y26535D01*
X296481Y26499D01*
X296459Y26382D01*
X296429Y26267D01*
X296425Y26207D01*
X296421Y26187D01*
X296423Y26166D01*
X296419Y26106D01*
X296419Y22098D01*
X296434Y21980D01*
X296441Y21861D01*
X296454Y21823D01*
X296459Y21782D01*
X296502Y21672D01*
X296539Y21559D01*
X296561Y21524D01*
X296576Y21487D01*
X296645Y21391D01*
X296709Y21290D01*
X296739Y21262D01*
X296762Y21229D01*
X296854Y21153D01*
X296941Y21072D01*
X296976Y21052D01*
X297007Y21027D01*
X297115Y20976D01*
X297219Y20918D01*
X297259Y20908D01*
X297295Y20891D01*
X297412Y20869D01*
X297527Y20839D01*
X297587Y20835D01*
X297607Y20831D01*
X297628Y20833D01*
X297688Y20829D01*
X348731Y20829D01*
X348830Y20841D01*
X348929Y20844D01*
X348987Y20861D01*
X349047Y20869D01*
X349139Y20905D01*
X349234Y20933D01*
X349286Y20963D01*
X349343Y20986D01*
X349423Y21044D01*
X349508Y21094D01*
X349583Y21160D01*
X349600Y21172D01*
X349608Y21182D01*
X349629Y21200D01*
X354720Y26291D01*
X354780Y26369D01*
X354848Y26441D01*
X354877Y26494D01*
X354914Y26542D01*
X354954Y26633D01*
X355002Y26720D01*
X355017Y26779D01*
X355041Y26834D01*
X355056Y26932D01*
X355081Y27028D01*
X355087Y27128D01*
X355091Y27148D01*
X355089Y27161D01*
X355091Y27189D01*
X355091Y92191D01*
X355079Y92290D01*
X355076Y92389D01*
X355059Y92447D01*
X355051Y92507D01*
X355015Y92599D01*
X354987Y92694D01*
X354957Y92746D01*
X354934Y92803D01*
X354876Y92883D01*
X354826Y92968D01*
X354760Y93043D01*
X354748Y93060D01*
X354738Y93068D01*
X354720Y93089D01*
X328039Y119770D01*
X327961Y119830D01*
X327889Y119898D01*
X327836Y119927D01*
X327788Y119964D01*
X327697Y120004D01*
X327610Y120052D01*
X327551Y120067D01*
X327496Y120091D01*
X327398Y120106D01*
X327302Y120131D01*
X327202Y120137D01*
X327182Y120141D01*
X327169Y120139D01*
X327141Y120141D01*
X209716Y120141D01*
X76961Y252896D01*
X76961Y325113D01*
X78903Y327054D01*
X78921Y327078D01*
X78944Y327097D01*
X79018Y327203D01*
X79098Y327306D01*
X79110Y327333D01*
X79127Y327357D01*
X79172Y327478D01*
X79224Y327598D01*
X79229Y327627D01*
X79239Y327654D01*
X79254Y327783D01*
X79274Y327912D01*
X79271Y327941D01*
X79275Y327970D01*
X79256Y328099D01*
X79244Y328228D01*
X79234Y328256D01*
X79230Y328285D01*
X79178Y328438D01*
X79148Y328509D01*
X79148Y330621D01*
X79956Y332571D01*
X81449Y334064D01*
X83399Y334872D01*
X85511Y334872D01*
X87461Y334064D01*
X88954Y332571D01*
X89762Y330621D01*
X89762Y328509D01*
X88954Y326559D01*
X87461Y325066D01*
X85511Y324258D01*
X84328Y324258D01*
X84210Y324243D01*
X84091Y324236D01*
X84053Y324223D01*
X84012Y324218D01*
X83902Y324175D01*
X83789Y324138D01*
X83754Y324116D01*
X83717Y324101D01*
X83621Y324032D01*
X83520Y323968D01*
X83492Y323938D01*
X83459Y323915D01*
X83383Y323823D01*
X83302Y323736D01*
X83282Y323701D01*
X83257Y323670D01*
X83206Y323562D01*
X83148Y323458D01*
X83138Y323418D01*
X83121Y323382D01*
X83099Y323265D01*
X83069Y323150D01*
X83065Y323090D01*
X83061Y323070D01*
X83063Y323049D01*
X83059Y322989D01*
X83059Y255947D01*
X83071Y255849D01*
X83074Y255750D01*
X83091Y255692D01*
X83099Y255632D01*
X83135Y255540D01*
X83163Y255445D01*
X83193Y255392D01*
X83216Y255336D01*
X83274Y255256D01*
X83324Y255171D01*
X83390Y255095D01*
X83402Y255079D01*
X83412Y255071D01*
X83430Y255050D01*
X211870Y126610D01*
X211948Y126550D01*
X212020Y126482D01*
X212073Y126453D01*
X212121Y126416D01*
X212212Y126376D01*
X212299Y126328D01*
X212357Y126313D01*
X212413Y126289D01*
X212511Y126274D01*
X212607Y126249D01*
X212707Y126243D01*
X212727Y126239D01*
X212739Y126241D01*
X212767Y126239D01*
X220523Y126239D01*
X220661Y126256D01*
X220799Y126269D01*
X220819Y126276D01*
X220839Y126279D01*
X220968Y126330D01*
X221099Y126377D01*
X221116Y126388D01*
X221134Y126396D01*
X221247Y126477D01*
X221362Y126555D01*
X221375Y126571D01*
X221392Y126582D01*
X221481Y126690D01*
X221572Y126794D01*
X221582Y126812D01*
X221594Y126827D01*
X221654Y126953D01*
X221717Y127077D01*
X221721Y127097D01*
X221730Y127115D01*
X221756Y127251D01*
X221787Y127387D01*
X221786Y127408D01*
X221790Y127427D01*
X221781Y127566D01*
X221777Y127705D01*
X221771Y127725D01*
X221770Y127745D01*
X221727Y127877D01*
X221689Y128011D01*
X221678Y128028D01*
X221672Y128047D01*
X221598Y128165D01*
X221527Y128285D01*
X221508Y128306D01*
X221502Y128316D01*
X221487Y128330D01*
X221421Y128405D01*
X98485Y251342D01*
X96773Y253053D01*
X96773Y339852D01*
X96758Y339970D01*
X96751Y340089D01*
X96738Y340127D01*
X96733Y340168D01*
X96690Y340278D01*
X96653Y340391D01*
X96631Y340426D01*
X96616Y340463D01*
X96547Y340559D01*
X96483Y340660D01*
X96453Y340688D01*
X96430Y340721D01*
X96338Y340797D01*
X96251Y340878D01*
X96216Y340898D01*
X96185Y340923D01*
X96077Y340974D01*
X95973Y341032D01*
X95933Y341042D01*
X95897Y341059D01*
X95780Y341081D01*
X95665Y341111D01*
X95605Y341115D01*
X95585Y341119D01*
X95564Y341117D01*
X95504Y341121D01*
X55887Y341121D01*
X10921Y386087D01*
X10921Y387486D01*
X10906Y387604D01*
X10899Y387723D01*
X10886Y387761D01*
X10881Y387802D01*
X10838Y387912D01*
X10801Y388025D01*
X10779Y388060D01*
X10764Y388097D01*
X10695Y388193D01*
X10631Y388294D01*
X10601Y388322D01*
X10578Y388355D01*
X10486Y388431D01*
X10399Y388512D01*
X10364Y388532D01*
X10333Y388557D01*
X10225Y388608D01*
X10121Y388666D01*
X10081Y388676D01*
X10045Y388693D01*
X9928Y388715D01*
X9813Y388745D01*
X9753Y388749D01*
X9733Y388753D01*
X9712Y388751D01*
X9652Y388755D01*
X-1502Y388755D01*
X-2395Y389648D01*
X-2395Y420912D01*
X-1502Y421805D01*
X17762Y421805D01*
X18655Y420912D01*
X18655Y389648D01*
X18216Y389210D01*
X18143Y389116D01*
X18065Y389027D01*
X18046Y388991D01*
X18021Y388959D01*
X17974Y388849D01*
X17920Y388744D01*
X17911Y388704D01*
X17895Y388667D01*
X17876Y388549D01*
X17850Y388433D01*
X17852Y388393D01*
X17845Y388353D01*
X17856Y388234D01*
X17860Y388115D01*
X17871Y388077D01*
X17875Y388036D01*
X17915Y387924D01*
X17948Y387810D01*
X17969Y387775D01*
X17983Y387737D01*
X18050Y387639D01*
X18110Y387536D01*
X18150Y387491D01*
X18161Y387474D01*
X18177Y387460D01*
X18216Y387415D01*
X58041Y347590D01*
X58119Y347530D01*
X58191Y347462D01*
X58244Y347433D01*
X58292Y347396D01*
X58383Y347356D01*
X58470Y347308D01*
X58529Y347293D01*
X58584Y347269D01*
X58682Y347254D01*
X58778Y347229D01*
X58878Y347223D01*
X58898Y347219D01*
X58911Y347221D01*
X58939Y347219D01*
X99053Y347219D01*
X100839Y345433D01*
X100839Y344881D01*
X100851Y344783D01*
X100854Y344684D01*
X100871Y344626D01*
X100879Y344565D01*
X100915Y344473D01*
X100943Y344378D01*
X100973Y344326D01*
X100996Y344270D01*
X101054Y344190D01*
X101104Y344104D01*
X101170Y344029D01*
X101182Y344012D01*
X101192Y344005D01*
X101210Y343983D01*
X101347Y343847D01*
X101347Y255473D01*
X101359Y255375D01*
X101362Y255276D01*
X101379Y255218D01*
X101387Y255157D01*
X101423Y255065D01*
X101451Y254970D01*
X101481Y254918D01*
X101504Y254862D01*
X101562Y254782D01*
X101612Y254696D01*
X101678Y254621D01*
X101690Y254604D01*
X101700Y254597D01*
X101718Y254575D01*
X222825Y133468D01*
X222904Y133408D01*
X222976Y133340D01*
X223029Y133311D01*
X223077Y133274D01*
X223168Y133234D01*
X223254Y133186D01*
X223313Y133171D01*
X223369Y133147D01*
X223467Y133132D01*
X223562Y133107D01*
X223662Y133101D01*
X223683Y133097D01*
X223695Y133099D01*
X223723Y133097D01*
X356547Y133097D01*
X370653Y118990D01*
X370732Y118930D01*
X370804Y118862D01*
X370857Y118833D01*
X370905Y118796D01*
X370996Y118756D01*
X371082Y118708D01*
X371141Y118693D01*
X371197Y118669D01*
X371295Y118654D01*
X371390Y118629D01*
X371490Y118623D01*
X371511Y118619D01*
X371523Y118621D01*
X371551Y118619D01*
X371920Y118619D01*
X372038Y118634D01*
X372157Y118641D01*
X372195Y118654D01*
X372236Y118659D01*
X372346Y118702D01*
X372459Y118739D01*
X372494Y118761D01*
X372531Y118776D01*
X372627Y118845D01*
X372728Y118909D01*
X372756Y118939D01*
X372789Y118962D01*
X372865Y119054D01*
X372946Y119141D01*
X372966Y119176D01*
X372991Y119207D01*
X373042Y119315D01*
X373100Y119419D01*
X373110Y119459D01*
X373127Y119495D01*
X373149Y119612D01*
X373179Y119727D01*
X373183Y119787D01*
X373187Y119807D01*
X373185Y119828D01*
X373189Y119888D01*
X373189Y136920D01*
X373174Y137038D01*
X373167Y137157D01*
X373154Y137195D01*
X373149Y137236D01*
X373106Y137346D01*
X373069Y137459D01*
X373047Y137494D01*
X373032Y137531D01*
X372963Y137627D01*
X372899Y137728D01*
X372869Y137756D01*
X372846Y137789D01*
X372754Y137865D01*
X372667Y137946D01*
X372632Y137966D01*
X372601Y137991D01*
X372493Y138042D01*
X372389Y138100D01*
X372349Y138110D01*
X372313Y138127D01*
X372196Y138149D01*
X372081Y138179D01*
X372021Y138183D01*
X372001Y138187D01*
X371980Y138185D01*
X371920Y138189D01*
X352922Y138189D01*
X350689Y140422D01*
X350689Y249899D01*
X350689Y249900D01*
X350689Y249902D01*
X350473Y351218D01*
X350461Y351312D01*
X350458Y351406D01*
X350457Y351413D01*
X350468Y353307D01*
X350468Y353310D01*
X350468Y353318D01*
X350465Y354895D01*
X351586Y356002D01*
X351588Y356005D01*
X351594Y356010D01*
X352939Y357361D01*
X352959Y357373D01*
X353044Y357446D01*
X353058Y357457D01*
X353065Y357465D01*
X353081Y357479D01*
X373061Y377215D01*
X373063Y377217D01*
X373067Y377220D01*
X374181Y378334D01*
X375758Y378325D01*
X375761Y378325D01*
X375766Y378325D01*
X391920Y378325D01*
X392038Y378340D01*
X392157Y378347D01*
X392195Y378360D01*
X392236Y378365D01*
X392346Y378408D01*
X392459Y378445D01*
X392494Y378467D01*
X392531Y378482D01*
X392627Y378551D01*
X392728Y378615D01*
X392756Y378645D01*
X392789Y378668D01*
X392865Y378760D01*
X392946Y378847D01*
X392966Y378882D01*
X392991Y378913D01*
X393042Y379021D01*
X393100Y379125D01*
X393110Y379165D01*
X393127Y379201D01*
X393149Y379318D01*
X393179Y379433D01*
X393183Y379493D01*
X393187Y379513D01*
X393185Y379534D01*
X393189Y379594D01*
X393189Y486920D01*
X393174Y487038D01*
X393167Y487157D01*
X393154Y487195D01*
X393149Y487236D01*
X393106Y487346D01*
X393069Y487459D01*
X393047Y487494D01*
X393032Y487531D01*
X392963Y487627D01*
X392899Y487728D01*
X392869Y487756D01*
X392846Y487789D01*
X392754Y487865D01*
X392667Y487946D01*
X392632Y487966D01*
X392601Y487991D01*
X392493Y488042D01*
X392389Y488100D01*
X392349Y488110D01*
X392313Y488127D01*
X392196Y488149D01*
X392081Y488179D01*
X392021Y488183D01*
X392001Y488187D01*
X391980Y488185D01*
X391920Y488189D01*
X-14920Y488189D01*
X-15038Y488174D01*
X-15157Y488167D01*
X-15195Y488154D01*
X-15236Y488149D01*
X-15346Y488106D01*
X-15459Y488069D01*
X-15494Y488047D01*
X-15531Y488032D01*
X-15627Y487963D01*
X-15728Y487899D01*
X-15756Y487869D01*
X-15789Y487846D01*
X-15865Y487754D01*
X-15946Y487667D01*
X-15966Y487632D01*
X-15991Y487601D01*
X-16042Y487493D01*
X-16100Y487389D01*
X-16110Y487349D01*
X-16127Y487313D01*
X-16149Y487196D01*
X-16179Y487081D01*
X-16183Y487021D01*
X-16187Y487001D01*
X-16185Y486980D01*
X-16189Y486920D01*
X-16189Y379594D01*
X-16174Y379476D01*
X-16167Y379357D01*
X-16154Y379319D01*
X-16149Y379278D01*
X-16106Y379168D01*
X-16069Y379055D01*
X-16047Y379020D01*
X-16032Y378983D01*
X-15963Y378887D01*
X-15899Y378786D01*
X-15869Y378758D01*
X-15846Y378725D01*
X-15754Y378649D01*
X-15667Y378568D01*
X-15632Y378548D01*
X-15601Y378523D01*
X-15493Y378472D01*
X-15389Y378414D01*
X-15349Y378404D01*
X-15313Y378387D01*
X-15196Y378365D01*
X-15081Y378335D01*
X-15021Y378331D01*
X-15001Y378327D01*
X-14980Y378329D01*
X-14920Y378325D01*
X1220Y378325D01*
X1225Y378325D01*
X1235Y378325D01*
X2810Y378343D01*
X3923Y377230D01*
X3927Y377227D01*
X3934Y377220D01*
X23683Y357926D01*
X23756Y357871D01*
X23822Y357808D01*
X23851Y357792D01*
X25172Y356471D01*
X25176Y356468D01*
X25183Y356460D01*
X26311Y355359D01*
X26311Y353784D01*
X26311Y353779D01*
X26311Y353769D01*
X26333Y351891D01*
X26321Y351845D01*
X26313Y351727D01*
X26311Y351710D01*
X26312Y351702D01*
X26311Y351684D01*
X26311Y140422D01*
X24078Y138189D01*
X5080Y138189D01*
X4962Y138174D01*
X4843Y138167D01*
X4805Y138154D01*
X4764Y138149D01*
X4654Y138106D01*
X4541Y138069D01*
X4506Y138047D01*
X4469Y138032D01*
X4373Y137963D01*
X4272Y137899D01*
X4244Y137869D01*
X4211Y137846D01*
X4135Y137754D01*
X4054Y137667D01*
X4034Y137632D01*
X4009Y137601D01*
X3958Y137493D01*
X3900Y137389D01*
X3890Y137349D01*
X3873Y137313D01*
X3851Y137196D01*
X3821Y137081D01*
X3817Y137021D01*
X3813Y137001D01*
X3815Y136980D01*
X3811Y136920D01*
X3811Y5080D01*
X3826Y4962D01*
X3833Y4843D01*
X3846Y4805D01*
X3851Y4764D01*
X3894Y4654D01*
X3931Y4541D01*
X3953Y4506D01*
X3968Y4469D01*
X4037Y4373D01*
X4101Y4272D01*
X4131Y4244D01*
X4154Y4211D01*
X4246Y4135D01*
X4333Y4054D01*
X4368Y4034D01*
X4399Y4009D01*
X4507Y3958D01*
X4611Y3900D01*
X4651Y3890D01*
X4687Y3873D01*
X4804Y3851D01*
X4919Y3821D01*
X4979Y3817D01*
X4999Y3813D01*
X5020Y3815D01*
X5080Y3811D01*
X121920Y3811D01*
X122038Y3826D01*
G37*
%LPC*%
G36*
X234699Y312419D02*
X234699Y312419D01*
X233806Y313312D01*
X233806Y327276D01*
X234699Y328169D01*
X255013Y328169D01*
X255906Y327276D01*
X255906Y323850D01*
X255921Y323732D01*
X255928Y323613D01*
X255941Y323575D01*
X255946Y323534D01*
X255989Y323424D01*
X256026Y323311D01*
X256048Y323276D01*
X256063Y323239D01*
X256132Y323143D01*
X256196Y323042D01*
X256226Y323014D01*
X256249Y322981D01*
X256341Y322905D01*
X256428Y322824D01*
X256463Y322804D01*
X256494Y322779D01*
X256602Y322728D01*
X256706Y322670D01*
X256746Y322660D01*
X256782Y322643D01*
X256899Y322621D01*
X257014Y322591D01*
X257074Y322587D01*
X257094Y322583D01*
X257115Y322585D01*
X257175Y322581D01*
X257861Y322581D01*
X257959Y322593D01*
X258058Y322596D01*
X258116Y322613D01*
X258177Y322621D01*
X258269Y322657D01*
X258364Y322685D01*
X258416Y322715D01*
X258472Y322738D01*
X258552Y322796D01*
X258638Y322846D01*
X258713Y322912D01*
X258730Y322924D01*
X258737Y322934D01*
X258759Y322952D01*
X261502Y325695D01*
X261562Y325774D01*
X261630Y325846D01*
X261659Y325899D01*
X261696Y325947D01*
X261736Y326038D01*
X261784Y326124D01*
X261799Y326183D01*
X261823Y326239D01*
X261838Y326337D01*
X261863Y326432D01*
X261869Y326532D01*
X261873Y326553D01*
X261871Y326565D01*
X261873Y326593D01*
X261873Y332584D01*
X261856Y332722D01*
X261853Y332756D01*
X261851Y332783D01*
X261850Y332787D01*
X261843Y332861D01*
X261836Y332880D01*
X261833Y332900D01*
X261782Y333029D01*
X261735Y333160D01*
X261724Y333177D01*
X261716Y333195D01*
X261635Y333308D01*
X261557Y333423D01*
X261541Y333436D01*
X261530Y333453D01*
X261422Y333542D01*
X261318Y333633D01*
X261300Y333643D01*
X261285Y333656D01*
X261159Y333715D01*
X261035Y333778D01*
X261015Y333783D01*
X260997Y333791D01*
X260861Y333817D01*
X260725Y333848D01*
X260704Y333847D01*
X260685Y333851D01*
X260546Y333842D01*
X260407Y333838D01*
X260387Y333832D01*
X260367Y333831D01*
X260235Y333788D01*
X260101Y333750D01*
X260084Y333739D01*
X260065Y333733D01*
X259947Y333659D01*
X259827Y333588D01*
X259806Y333569D01*
X259796Y333563D01*
X259782Y333548D01*
X259706Y333482D01*
X259292Y333067D01*
X257342Y332259D01*
X255230Y332259D01*
X253280Y333067D01*
X251787Y334560D01*
X250979Y336510D01*
X250979Y338636D01*
X251002Y338739D01*
X251037Y338864D01*
X251037Y338894D01*
X251044Y338922D01*
X251040Y339052D01*
X251042Y339182D01*
X251035Y339211D01*
X251034Y339240D01*
X250998Y339365D01*
X250967Y339491D01*
X250954Y339517D01*
X250945Y339546D01*
X250880Y339658D01*
X250819Y339772D01*
X250799Y339794D01*
X250784Y339820D01*
X250678Y339941D01*
X234443Y356175D01*
X234443Y387486D01*
X234428Y387604D01*
X234421Y387723D01*
X234408Y387761D01*
X234403Y387802D01*
X234360Y387912D01*
X234323Y388025D01*
X234301Y388060D01*
X234286Y388097D01*
X234217Y388193D01*
X234153Y388294D01*
X234123Y388322D01*
X234100Y388355D01*
X234008Y388431D01*
X233921Y388512D01*
X233886Y388532D01*
X233855Y388557D01*
X233747Y388608D01*
X233643Y388666D01*
X233603Y388676D01*
X233567Y388693D01*
X233450Y388715D01*
X233335Y388745D01*
X233275Y388749D01*
X233255Y388753D01*
X233234Y388751D01*
X233174Y388755D01*
X227098Y388755D01*
X226205Y389648D01*
X226205Y420912D01*
X227098Y421805D01*
X240321Y421805D01*
X240390Y421813D01*
X240460Y421812D01*
X240547Y421833D01*
X240636Y421845D01*
X240701Y421870D01*
X240769Y421887D01*
X240848Y421929D01*
X240932Y421962D01*
X240988Y422003D01*
X241050Y422035D01*
X241116Y422096D01*
X241189Y422148D01*
X241234Y422202D01*
X241285Y422249D01*
X241335Y422324D01*
X241392Y422393D01*
X241422Y422457D01*
X241460Y422515D01*
X241489Y422600D01*
X241527Y422681D01*
X241541Y422750D01*
X241563Y422816D01*
X241570Y422905D01*
X241587Y422993D01*
X241583Y423063D01*
X241588Y423133D01*
X241573Y423221D01*
X241567Y423311D01*
X241546Y423377D01*
X241534Y423446D01*
X241497Y423528D01*
X241469Y423613D01*
X241432Y423672D01*
X241403Y423736D01*
X241347Y423806D01*
X241299Y423882D01*
X241248Y423930D01*
X241205Y423984D01*
X241133Y424039D01*
X241068Y424100D01*
X241007Y424134D01*
X240951Y424176D01*
X240806Y424247D01*
X239564Y424761D01*
X238071Y426254D01*
X237263Y428204D01*
X237263Y430316D01*
X238071Y432266D01*
X239574Y433769D01*
X239663Y433826D01*
X239776Y433890D01*
X239797Y433910D01*
X239822Y433926D01*
X239911Y434021D01*
X240004Y434111D01*
X240020Y434136D01*
X240040Y434158D01*
X240103Y434271D01*
X240171Y434382D01*
X240179Y434410D01*
X240194Y434436D01*
X240226Y434562D01*
X240264Y434686D01*
X240266Y434716D01*
X240273Y434744D01*
X240283Y434905D01*
X240283Y437486D01*
X240268Y437604D01*
X240261Y437723D01*
X240248Y437761D01*
X240243Y437802D01*
X240200Y437912D01*
X240163Y438025D01*
X240141Y438060D01*
X240126Y438097D01*
X240057Y438193D01*
X239993Y438294D01*
X239963Y438322D01*
X239940Y438355D01*
X239848Y438431D01*
X239761Y438512D01*
X239726Y438532D01*
X239695Y438557D01*
X239587Y438608D01*
X239483Y438666D01*
X239443Y438676D01*
X239407Y438693D01*
X239290Y438715D01*
X239175Y438745D01*
X239115Y438749D01*
X239095Y438753D01*
X239074Y438751D01*
X239014Y438755D01*
X227098Y438755D01*
X226205Y439648D01*
X226205Y470912D01*
X227098Y471805D01*
X246362Y471805D01*
X247255Y470912D01*
X247255Y439648D01*
X246362Y438755D01*
X246126Y438755D01*
X246008Y438740D01*
X245889Y438733D01*
X245851Y438720D01*
X245810Y438715D01*
X245700Y438672D01*
X245587Y438635D01*
X245552Y438613D01*
X245515Y438598D01*
X245419Y438529D01*
X245318Y438465D01*
X245290Y438435D01*
X245257Y438412D01*
X245181Y438320D01*
X245100Y438233D01*
X245080Y438198D01*
X245055Y438167D01*
X245004Y438059D01*
X244946Y437955D01*
X244936Y437915D01*
X244919Y437879D01*
X244897Y437762D01*
X244867Y437647D01*
X244863Y437587D01*
X244859Y437567D01*
X244861Y437546D01*
X244857Y437486D01*
X244857Y434905D01*
X244860Y434875D01*
X244858Y434846D01*
X244880Y434718D01*
X244897Y434589D01*
X244907Y434562D01*
X244913Y434533D01*
X244966Y434414D01*
X245014Y434294D01*
X245031Y434270D01*
X245043Y434243D01*
X245124Y434141D01*
X245200Y434036D01*
X245223Y434017D01*
X245242Y433994D01*
X245345Y433916D01*
X245445Y433833D01*
X245472Y433821D01*
X245496Y433803D01*
X245566Y433768D01*
X247069Y432266D01*
X247877Y430316D01*
X247877Y428204D01*
X247069Y426254D01*
X245576Y424761D01*
X244334Y424247D01*
X244273Y424212D01*
X244208Y424186D01*
X244136Y424134D01*
X244058Y424089D01*
X244007Y424041D01*
X243951Y424000D01*
X243894Y423930D01*
X243829Y423868D01*
X243793Y423808D01*
X243748Y423755D01*
X243710Y423673D01*
X243663Y423597D01*
X243642Y423530D01*
X243613Y423467D01*
X243596Y423379D01*
X243569Y423293D01*
X243566Y423223D01*
X243553Y423154D01*
X243558Y423065D01*
X243554Y422975D01*
X243568Y422907D01*
X243573Y422837D01*
X243600Y422752D01*
X243618Y422664D01*
X243649Y422601D01*
X243671Y422535D01*
X243719Y422459D01*
X243758Y422378D01*
X243803Y422325D01*
X243841Y422266D01*
X243906Y422204D01*
X243964Y422136D01*
X244021Y422096D01*
X244072Y422048D01*
X244151Y422005D01*
X244224Y421953D01*
X244290Y421928D01*
X244351Y421894D01*
X244438Y421872D01*
X244522Y421840D01*
X244591Y421832D01*
X244659Y421815D01*
X244819Y421805D01*
X246362Y421805D01*
X247255Y420912D01*
X247255Y389648D01*
X246362Y388755D01*
X240286Y388755D01*
X240168Y388740D01*
X240049Y388733D01*
X240011Y388720D01*
X239970Y388715D01*
X239860Y388672D01*
X239747Y388635D01*
X239712Y388613D01*
X239675Y388598D01*
X239579Y388529D01*
X239478Y388465D01*
X239450Y388435D01*
X239417Y388412D01*
X239341Y388320D01*
X239260Y388233D01*
X239240Y388198D01*
X239215Y388167D01*
X239164Y388059D01*
X239106Y387955D01*
X239096Y387915D01*
X239079Y387879D01*
X239057Y387762D01*
X239027Y387647D01*
X239023Y387587D01*
X239019Y387567D01*
X239021Y387546D01*
X239017Y387486D01*
X239017Y358595D01*
X239029Y358497D01*
X239032Y358398D01*
X239049Y358340D01*
X239057Y358279D01*
X239093Y358187D01*
X239121Y358092D01*
X239151Y358040D01*
X239174Y357984D01*
X239232Y357904D01*
X239282Y357818D01*
X239348Y357743D01*
X239360Y357726D01*
X239370Y357719D01*
X239388Y357697D01*
X253911Y343174D01*
X253935Y343156D01*
X253954Y343134D01*
X254060Y343059D01*
X254163Y342980D01*
X254190Y342968D01*
X254214Y342951D01*
X254335Y342905D01*
X254455Y342853D01*
X254484Y342849D01*
X254511Y342838D01*
X254640Y342824D01*
X254769Y342803D01*
X254798Y342806D01*
X254827Y342803D01*
X254956Y342821D01*
X255085Y342833D01*
X255113Y342843D01*
X255142Y342847D01*
X255217Y342873D01*
X257342Y342873D01*
X259292Y342065D01*
X259706Y341650D01*
X259816Y341565D01*
X259923Y341476D01*
X259942Y341468D01*
X259958Y341455D01*
X260086Y341400D01*
X260211Y341341D01*
X260231Y341337D01*
X260250Y341329D01*
X260388Y341307D01*
X260524Y341281D01*
X260544Y341282D01*
X260564Y341279D01*
X260703Y341292D01*
X260841Y341301D01*
X260860Y341307D01*
X260880Y341309D01*
X261011Y341356D01*
X261143Y341399D01*
X261161Y341410D01*
X261180Y341417D01*
X261294Y341495D01*
X261412Y341569D01*
X261426Y341584D01*
X261443Y341595D01*
X261535Y341699D01*
X261630Y341801D01*
X261640Y341818D01*
X261653Y341834D01*
X261716Y341957D01*
X261784Y342079D01*
X261789Y342099D01*
X261798Y342117D01*
X261828Y342253D01*
X261863Y342387D01*
X261865Y342415D01*
X261868Y342427D01*
X261867Y342448D01*
X261873Y342548D01*
X261873Y381024D01*
X263585Y382736D01*
X267437Y386589D01*
X267523Y386698D01*
X267611Y386805D01*
X267620Y386824D01*
X267632Y386840D01*
X267688Y386967D01*
X267747Y387093D01*
X267751Y387113D01*
X267759Y387132D01*
X267781Y387270D01*
X267807Y387406D01*
X267805Y387426D01*
X267809Y387446D01*
X267796Y387585D01*
X267787Y387723D01*
X267781Y387742D01*
X267779Y387762D01*
X267732Y387894D01*
X267689Y388025D01*
X267678Y388043D01*
X267671Y388062D01*
X267593Y388177D01*
X267519Y388294D01*
X267504Y388308D01*
X267493Y388325D01*
X267388Y388417D01*
X267287Y388512D01*
X267269Y388522D01*
X267254Y388535D01*
X267130Y388599D01*
X267009Y388666D01*
X266989Y388671D01*
X266971Y388680D01*
X266835Y388710D01*
X266701Y388745D01*
X266673Y388747D01*
X266661Y388750D01*
X266640Y388749D01*
X266540Y388755D01*
X252498Y388755D01*
X251605Y389648D01*
X251605Y420912D01*
X252498Y421805D01*
X271130Y421805D01*
X271248Y421820D01*
X271367Y421827D01*
X271405Y421840D01*
X271446Y421845D01*
X271556Y421888D01*
X271669Y421925D01*
X271704Y421947D01*
X271741Y421962D01*
X271837Y422031D01*
X271938Y422095D01*
X271966Y422125D01*
X271999Y422148D01*
X272075Y422240D01*
X272156Y422327D01*
X272176Y422362D01*
X272201Y422393D01*
X272252Y422501D01*
X272310Y422605D01*
X272320Y422645D01*
X272337Y422681D01*
X272359Y422798D01*
X272389Y422913D01*
X272391Y422945D01*
X282263Y432817D01*
X299517Y432817D01*
X299615Y432829D01*
X299714Y432832D01*
X299772Y432849D01*
X299833Y432857D01*
X299925Y432893D01*
X300020Y432921D01*
X300072Y432951D01*
X300128Y432974D01*
X300208Y433032D01*
X300294Y433082D01*
X300369Y433148D01*
X300386Y433160D01*
X300386Y433161D01*
X300394Y433170D01*
X300415Y433188D01*
X303815Y436589D01*
X303900Y436698D01*
X303988Y436805D01*
X303997Y436824D01*
X304010Y436840D01*
X304065Y436968D01*
X304124Y437093D01*
X304128Y437113D01*
X304136Y437132D01*
X304158Y437270D01*
X304184Y437406D01*
X304183Y437426D01*
X304186Y437446D01*
X304173Y437585D01*
X304164Y437723D01*
X304158Y437742D01*
X304156Y437762D01*
X304109Y437894D01*
X304066Y438025D01*
X304055Y438043D01*
X304048Y438062D01*
X303970Y438177D01*
X303896Y438294D01*
X303881Y438308D01*
X303870Y438325D01*
X303765Y438417D01*
X303664Y438512D01*
X303647Y438522D01*
X303631Y438535D01*
X303507Y438599D01*
X303391Y438663D01*
X302405Y439648D01*
X302405Y470912D01*
X303298Y471805D01*
X322562Y471805D01*
X323455Y470912D01*
X323455Y439648D01*
X322562Y438755D01*
X312975Y438755D01*
X312877Y438743D01*
X312778Y438740D01*
X312720Y438723D01*
X312659Y438715D01*
X312567Y438679D01*
X312472Y438651D01*
X312420Y438621D01*
X312364Y438598D01*
X312284Y438540D01*
X312198Y438490D01*
X312123Y438424D01*
X312106Y438412D01*
X312099Y438402D01*
X312077Y438384D01*
X301937Y428243D01*
X284683Y428243D01*
X284585Y428231D01*
X284486Y428228D01*
X284428Y428211D01*
X284367Y428203D01*
X284275Y428167D01*
X284180Y428139D01*
X284128Y428109D01*
X284072Y428086D01*
X283992Y428028D01*
X283906Y427978D01*
X283831Y427912D01*
X283814Y427900D01*
X283807Y427890D01*
X283785Y427872D01*
X279885Y423971D01*
X279800Y423862D01*
X279712Y423755D01*
X279703Y423736D01*
X279690Y423720D01*
X279635Y423592D01*
X279576Y423467D01*
X279572Y423447D01*
X279564Y423428D01*
X279542Y423290D01*
X279516Y423154D01*
X279517Y423134D01*
X279514Y423114D01*
X279527Y422975D01*
X279536Y422837D01*
X279542Y422818D01*
X279544Y422798D01*
X279591Y422666D01*
X279634Y422535D01*
X279645Y422517D01*
X279652Y422498D01*
X279730Y422383D01*
X279804Y422266D01*
X279819Y422252D01*
X279830Y422235D01*
X279935Y422143D01*
X280036Y422048D01*
X280053Y422038D01*
X280069Y422025D01*
X280193Y421961D01*
X280314Y421894D01*
X280334Y421889D01*
X280352Y421880D01*
X280488Y421850D01*
X280622Y421815D01*
X280650Y421813D01*
X280662Y421810D01*
X280683Y421811D01*
X280783Y421805D01*
X297162Y421805D01*
X298055Y420912D01*
X298055Y389648D01*
X297162Y388755D01*
X277898Y388755D01*
X277883Y388771D01*
X277789Y388844D01*
X277699Y388923D01*
X277663Y388941D01*
X277632Y388966D01*
X277522Y389013D01*
X277416Y389067D01*
X277377Y389076D01*
X277340Y389092D01*
X277222Y389111D01*
X277106Y389137D01*
X277065Y389136D01*
X277026Y389142D01*
X276907Y389131D01*
X276788Y389127D01*
X276749Y389116D01*
X276709Y389112D01*
X276597Y389072D01*
X276483Y389039D01*
X276448Y389018D01*
X276410Y389005D01*
X276311Y388938D01*
X276209Y388877D01*
X276163Y388838D01*
X276147Y388826D01*
X276133Y388811D01*
X276088Y388771D01*
X266818Y379502D01*
X266758Y379423D01*
X266690Y379351D01*
X266661Y379298D01*
X266624Y379250D01*
X266584Y379159D01*
X266536Y379073D01*
X266521Y379014D01*
X266497Y378959D01*
X266482Y378861D01*
X266457Y378765D01*
X266451Y378665D01*
X266447Y378644D01*
X266449Y378632D01*
X266447Y378604D01*
X266447Y324173D01*
X264736Y322462D01*
X264735Y322462D01*
X260281Y318007D01*
X257175Y318007D01*
X257057Y317992D01*
X256938Y317985D01*
X256900Y317972D01*
X256859Y317967D01*
X256749Y317924D01*
X256636Y317887D01*
X256601Y317865D01*
X256564Y317850D01*
X256468Y317781D01*
X256367Y317717D01*
X256339Y317687D01*
X256306Y317664D01*
X256230Y317572D01*
X256149Y317485D01*
X256129Y317450D01*
X256104Y317419D01*
X256053Y317311D01*
X255995Y317207D01*
X255985Y317167D01*
X255968Y317131D01*
X255946Y317014D01*
X255916Y316899D01*
X255912Y316839D01*
X255908Y316819D01*
X255910Y316798D01*
X255906Y316738D01*
X255906Y313312D01*
X255013Y312419D01*
X234699Y312419D01*
G37*
%LPD*%
%LPC*%
G36*
X165314Y93753D02*
X165314Y93753D01*
X163364Y94561D01*
X162794Y95132D01*
X162715Y95192D01*
X162643Y95260D01*
X162590Y95289D01*
X162542Y95326D01*
X162451Y95366D01*
X162365Y95414D01*
X162306Y95429D01*
X162250Y95453D01*
X162153Y95468D01*
X162057Y95493D01*
X161957Y95499D01*
X161936Y95503D01*
X161924Y95501D01*
X161896Y95503D01*
X101923Y95503D01*
X86613Y110813D01*
X86613Y118815D01*
X86610Y118845D01*
X86612Y118874D01*
X86590Y119002D01*
X86573Y119131D01*
X86563Y119158D01*
X86557Y119187D01*
X86504Y119306D01*
X86456Y119426D01*
X86439Y119450D01*
X86427Y119477D01*
X86346Y119579D01*
X86270Y119684D01*
X86247Y119703D01*
X86228Y119726D01*
X86125Y119804D01*
X86025Y119887D01*
X85998Y119899D01*
X85974Y119917D01*
X85904Y119952D01*
X84401Y121454D01*
X83593Y123404D01*
X83593Y125516D01*
X84401Y127466D01*
X85894Y128959D01*
X87844Y129767D01*
X89956Y129767D01*
X91906Y128959D01*
X93399Y127466D01*
X94207Y125516D01*
X94207Y123404D01*
X93399Y121454D01*
X91896Y119951D01*
X91807Y119894D01*
X91694Y119830D01*
X91673Y119810D01*
X91648Y119794D01*
X91559Y119699D01*
X91466Y119609D01*
X91450Y119584D01*
X91430Y119562D01*
X91367Y119449D01*
X91299Y119338D01*
X91291Y119310D01*
X91276Y119284D01*
X91244Y119158D01*
X91206Y119034D01*
X91204Y119004D01*
X91197Y118976D01*
X91187Y118815D01*
X91187Y113233D01*
X91199Y113135D01*
X91202Y113036D01*
X91219Y112978D01*
X91227Y112917D01*
X91263Y112825D01*
X91291Y112730D01*
X91321Y112678D01*
X91344Y112622D01*
X91402Y112542D01*
X91452Y112456D01*
X91518Y112381D01*
X91530Y112364D01*
X91540Y112357D01*
X91558Y112335D01*
X103445Y100448D01*
X103524Y100388D01*
X103596Y100320D01*
X103649Y100291D01*
X103697Y100254D01*
X103788Y100214D01*
X103874Y100166D01*
X103933Y100151D01*
X103989Y100127D01*
X104087Y100112D01*
X104182Y100087D01*
X104282Y100081D01*
X104303Y100077D01*
X104315Y100079D01*
X104343Y100077D01*
X111604Y100077D01*
X111742Y100094D01*
X111881Y100107D01*
X111900Y100114D01*
X111920Y100117D01*
X112049Y100168D01*
X112180Y100215D01*
X112197Y100226D01*
X112215Y100234D01*
X112328Y100315D01*
X112443Y100393D01*
X112456Y100409D01*
X112473Y100420D01*
X112562Y100528D01*
X112653Y100632D01*
X112663Y100650D01*
X112676Y100665D01*
X112735Y100791D01*
X112798Y100915D01*
X112802Y100935D01*
X112811Y100953D01*
X112837Y101090D01*
X112868Y101225D01*
X112867Y101246D01*
X112871Y101265D01*
X112862Y101404D01*
X112858Y101543D01*
X112852Y101563D01*
X112851Y101583D01*
X112808Y101715D01*
X112770Y101849D01*
X112759Y101866D01*
X112753Y101885D01*
X112679Y102003D01*
X112608Y102123D01*
X112590Y102144D01*
X112583Y102154D01*
X112568Y102168D01*
X112502Y102243D01*
X111071Y103674D01*
X110263Y105624D01*
X110263Y107736D01*
X111071Y109686D01*
X112564Y111179D01*
X114514Y111987D01*
X116640Y111987D01*
X116743Y111964D01*
X116868Y111929D01*
X116898Y111929D01*
X116927Y111922D01*
X117057Y111926D01*
X117186Y111924D01*
X117215Y111931D01*
X117245Y111932D01*
X117369Y111968D01*
X117495Y111998D01*
X117522Y112012D01*
X117550Y112021D01*
X117662Y112087D01*
X117776Y112147D01*
X117798Y112167D01*
X117824Y112182D01*
X117945Y112289D01*
X117992Y112336D01*
X118011Y112360D01*
X118012Y112361D01*
X118013Y112363D01*
X118052Y112414D01*
X118120Y112486D01*
X118149Y112539D01*
X118187Y112587D01*
X118226Y112678D01*
X118274Y112764D01*
X118289Y112823D01*
X118313Y112879D01*
X118328Y112977D01*
X118353Y113072D01*
X118359Y113173D01*
X118363Y113193D01*
X118361Y113205D01*
X118363Y113233D01*
X118363Y137865D01*
X118360Y137895D01*
X118362Y137924D01*
X118340Y138052D01*
X118323Y138181D01*
X118313Y138208D01*
X118307Y138237D01*
X118254Y138356D01*
X118206Y138476D01*
X118189Y138500D01*
X118177Y138527D01*
X118096Y138629D01*
X118020Y138734D01*
X117997Y138753D01*
X117978Y138776D01*
X117875Y138854D01*
X117775Y138937D01*
X117748Y138949D01*
X117724Y138967D01*
X117654Y139002D01*
X116151Y140504D01*
X115343Y142454D01*
X115343Y144566D01*
X115862Y145818D01*
X115875Y145866D01*
X115896Y145911D01*
X115917Y146019D01*
X115946Y146125D01*
X115947Y146175D01*
X115956Y146224D01*
X115949Y146333D01*
X115951Y146443D01*
X115940Y146491D01*
X115936Y146541D01*
X115903Y146645D01*
X115877Y146752D01*
X115854Y146796D01*
X115838Y146843D01*
X115780Y146936D01*
X115728Y147033D01*
X115695Y147070D01*
X115668Y147112D01*
X115588Y147187D01*
X115514Y147269D01*
X115473Y147296D01*
X115437Y147330D01*
X115340Y147383D01*
X115249Y147443D01*
X115202Y147460D01*
X115158Y147484D01*
X115052Y147511D01*
X114948Y147547D01*
X114898Y147551D01*
X114850Y147563D01*
X114690Y147573D01*
X79305Y147573D01*
X79275Y147570D01*
X79246Y147572D01*
X79118Y147550D01*
X78989Y147533D01*
X78962Y147523D01*
X78933Y147517D01*
X78814Y147464D01*
X78694Y147416D01*
X78670Y147399D01*
X78643Y147387D01*
X78541Y147306D01*
X78436Y147230D01*
X78417Y147207D01*
X78394Y147188D01*
X78316Y147085D01*
X78233Y146985D01*
X78221Y146958D01*
X78203Y146934D01*
X78168Y146864D01*
X76666Y145361D01*
X74716Y144553D01*
X72604Y144553D01*
X70654Y145361D01*
X69161Y146854D01*
X68353Y148804D01*
X68353Y150916D01*
X69161Y152866D01*
X70654Y154359D01*
X72604Y155167D01*
X74716Y155167D01*
X76666Y154359D01*
X78169Y152856D01*
X78226Y152767D01*
X78290Y152654D01*
X78310Y152633D01*
X78326Y152608D01*
X78421Y152519D01*
X78511Y152426D01*
X78536Y152410D01*
X78558Y152390D01*
X78671Y152327D01*
X78782Y152259D01*
X78810Y152251D01*
X78836Y152236D01*
X78962Y152204D01*
X79086Y152166D01*
X79116Y152164D01*
X79144Y152157D01*
X79305Y152147D01*
X119634Y152147D01*
X119752Y152162D01*
X119871Y152169D01*
X119909Y152182D01*
X119950Y152187D01*
X120060Y152230D01*
X120173Y152267D01*
X120208Y152289D01*
X120245Y152304D01*
X120341Y152373D01*
X120442Y152437D01*
X120470Y152467D01*
X120503Y152490D01*
X120579Y152582D01*
X120660Y152669D01*
X120680Y152704D01*
X120705Y152735D01*
X120756Y152843D01*
X120814Y152947D01*
X120824Y152987D01*
X120841Y153023D01*
X120863Y153140D01*
X120893Y153255D01*
X120897Y153315D01*
X120901Y153335D01*
X120899Y153356D01*
X120903Y153416D01*
X120903Y158086D01*
X120891Y158184D01*
X120888Y158283D01*
X120871Y158342D01*
X120863Y158402D01*
X120827Y158494D01*
X120799Y158589D01*
X120769Y158641D01*
X120746Y158697D01*
X120688Y158777D01*
X120638Y158863D01*
X120572Y158938D01*
X120560Y158955D01*
X120550Y158962D01*
X120532Y158984D01*
X119961Y159554D01*
X119153Y161504D01*
X119153Y163616D01*
X119961Y165566D01*
X121454Y167059D01*
X123404Y167867D01*
X125516Y167867D01*
X127466Y167059D01*
X128959Y165566D01*
X129767Y163616D01*
X129767Y161504D01*
X128959Y159554D01*
X127466Y158061D01*
X126260Y157562D01*
X126235Y157547D01*
X126207Y157538D01*
X126097Y157469D01*
X125984Y157404D01*
X125963Y157384D01*
X125938Y157368D01*
X125849Y157273D01*
X125756Y157183D01*
X125740Y157158D01*
X125720Y157136D01*
X125657Y157023D01*
X125589Y156912D01*
X125581Y156884D01*
X125566Y156858D01*
X125534Y156732D01*
X125496Y156608D01*
X125494Y156578D01*
X125487Y156550D01*
X125477Y156389D01*
X125477Y151333D01*
X125489Y151235D01*
X125492Y151136D01*
X125509Y151077D01*
X125517Y151017D01*
X125553Y150925D01*
X125581Y150830D01*
X125611Y150778D01*
X125634Y150722D01*
X125692Y150642D01*
X125742Y150556D01*
X125808Y150481D01*
X125820Y150464D01*
X125830Y150457D01*
X125848Y150435D01*
X130557Y145727D01*
X130557Y123755D01*
X130560Y123725D01*
X130558Y123696D01*
X130580Y123568D01*
X130597Y123439D01*
X130607Y123412D01*
X130613Y123383D01*
X130666Y123264D01*
X130714Y123144D01*
X130731Y123120D01*
X130743Y123093D01*
X130824Y122991D01*
X130900Y122886D01*
X130923Y122867D01*
X130942Y122844D01*
X131045Y122766D01*
X131145Y122683D01*
X131172Y122671D01*
X131196Y122653D01*
X131266Y122618D01*
X132769Y121116D01*
X133577Y119166D01*
X133577Y117054D01*
X132769Y115104D01*
X132608Y114944D01*
X132523Y114834D01*
X132434Y114727D01*
X132426Y114708D01*
X132413Y114692D01*
X132358Y114564D01*
X132299Y114439D01*
X132295Y114419D01*
X132287Y114400D01*
X132265Y114263D01*
X132239Y114126D01*
X132240Y114106D01*
X132237Y114086D01*
X132250Y113948D01*
X132259Y113809D01*
X132265Y113790D01*
X132267Y113770D01*
X132314Y113639D01*
X132357Y113507D01*
X132368Y113489D01*
X132375Y113470D01*
X132453Y113355D01*
X132527Y113238D01*
X132542Y113224D01*
X132553Y113207D01*
X132657Y113115D01*
X132759Y113020D01*
X132776Y113010D01*
X132792Y112997D01*
X132916Y112933D01*
X133037Y112866D01*
X133057Y112861D01*
X133075Y112852D01*
X133211Y112822D01*
X133345Y112787D01*
X133373Y112785D01*
X133385Y112782D01*
X133406Y112783D01*
X133506Y112777D01*
X136957Y112777D01*
X137055Y112789D01*
X137154Y112792D01*
X137212Y112809D01*
X137273Y112817D01*
X137365Y112853D01*
X137460Y112881D01*
X137512Y112911D01*
X137568Y112934D01*
X137648Y112992D01*
X137734Y113042D01*
X137809Y113108D01*
X137826Y113120D01*
X137833Y113130D01*
X137855Y113148D01*
X145932Y121225D01*
X145992Y121304D01*
X146060Y121376D01*
X146089Y121429D01*
X146126Y121477D01*
X146166Y121568D01*
X146214Y121654D01*
X146229Y121713D01*
X146253Y121769D01*
X146268Y121867D01*
X146293Y121962D01*
X146299Y122062D01*
X146303Y122083D01*
X146301Y122095D01*
X146303Y122123D01*
X146303Y150565D01*
X146300Y150595D01*
X146302Y150624D01*
X146280Y150752D01*
X146263Y150881D01*
X146253Y150908D01*
X146247Y150937D01*
X146194Y151056D01*
X146146Y151176D01*
X146129Y151200D01*
X146117Y151227D01*
X146036Y151329D01*
X145960Y151434D01*
X145937Y151453D01*
X145918Y151476D01*
X145815Y151554D01*
X145715Y151637D01*
X145688Y151649D01*
X145664Y151667D01*
X145594Y151702D01*
X144091Y153204D01*
X143283Y155154D01*
X143283Y157266D01*
X144091Y159216D01*
X145584Y160709D01*
X147534Y161517D01*
X149646Y161517D01*
X151596Y160709D01*
X153089Y159216D01*
X153897Y157266D01*
X153897Y155154D01*
X153089Y153204D01*
X151586Y151701D01*
X151497Y151644D01*
X151384Y151580D01*
X151363Y151560D01*
X151338Y151544D01*
X151249Y151449D01*
X151156Y151359D01*
X151140Y151334D01*
X151120Y151312D01*
X151057Y151199D01*
X150989Y151088D01*
X150981Y151060D01*
X150966Y151034D01*
X150934Y150908D01*
X150896Y150784D01*
X150894Y150754D01*
X150887Y150726D01*
X150877Y150565D01*
X150877Y119703D01*
X139377Y108203D01*
X122146Y108203D01*
X122028Y108188D01*
X121909Y108181D01*
X121871Y108168D01*
X121830Y108163D01*
X121720Y108120D01*
X121607Y108083D01*
X121572Y108061D01*
X121535Y108046D01*
X121439Y107977D01*
X121338Y107913D01*
X121310Y107883D01*
X121277Y107860D01*
X121201Y107768D01*
X121120Y107681D01*
X121100Y107646D01*
X121075Y107615D01*
X121024Y107507D01*
X120966Y107403D01*
X120956Y107363D01*
X120939Y107327D01*
X120917Y107210D01*
X120887Y107095D01*
X120883Y107035D01*
X120879Y107015D01*
X120881Y106994D01*
X120877Y106934D01*
X120877Y105624D01*
X120069Y103674D01*
X118638Y102243D01*
X118553Y102134D01*
X118464Y102027D01*
X118456Y102008D01*
X118443Y101992D01*
X118388Y101864D01*
X118329Y101739D01*
X118325Y101719D01*
X118317Y101700D01*
X118295Y101562D01*
X118269Y101426D01*
X118270Y101406D01*
X118267Y101386D01*
X118280Y101247D01*
X118289Y101109D01*
X118295Y101090D01*
X118297Y101070D01*
X118344Y100938D01*
X118387Y100807D01*
X118398Y100789D01*
X118405Y100770D01*
X118483Y100655D01*
X118557Y100538D01*
X118572Y100524D01*
X118583Y100507D01*
X118687Y100415D01*
X118789Y100320D01*
X118806Y100310D01*
X118822Y100297D01*
X118946Y100233D01*
X119067Y100166D01*
X119087Y100161D01*
X119105Y100152D01*
X119241Y100122D01*
X119375Y100087D01*
X119403Y100085D01*
X119415Y100082D01*
X119436Y100083D01*
X119536Y100077D01*
X160199Y100077D01*
X160228Y100080D01*
X160258Y100078D01*
X160386Y100100D01*
X160515Y100117D01*
X160542Y100127D01*
X160571Y100132D01*
X160690Y100186D01*
X160810Y100234D01*
X160834Y100251D01*
X160861Y100263D01*
X160963Y100344D01*
X161068Y100420D01*
X161086Y100443D01*
X161110Y100462D01*
X161188Y100565D01*
X161270Y100665D01*
X161283Y100692D01*
X161301Y100716D01*
X161372Y100860D01*
X161871Y102066D01*
X163364Y103559D01*
X165314Y104367D01*
X167426Y104367D01*
X169376Y103559D01*
X170869Y102066D01*
X171677Y100116D01*
X171677Y98004D01*
X170869Y96054D01*
X169376Y94561D01*
X167426Y93753D01*
X165314Y93753D01*
G37*
%LPD*%
G36*
X358990Y10681D02*
X358990Y10681D01*
X359089Y10684D01*
X359147Y10701D01*
X359207Y10709D01*
X359299Y10745D01*
X359394Y10773D01*
X359446Y10803D01*
X359503Y10826D01*
X359583Y10884D01*
X359668Y10934D01*
X359743Y11000D01*
X359760Y11012D01*
X359768Y11022D01*
X359789Y11040D01*
X367420Y18671D01*
X367480Y18749D01*
X367548Y18821D01*
X367577Y18874D01*
X367614Y18922D01*
X367654Y19013D01*
X367702Y19100D01*
X367717Y19159D01*
X367741Y19214D01*
X367756Y19312D01*
X367781Y19408D01*
X367787Y19508D01*
X367791Y19528D01*
X367789Y19541D01*
X367791Y19569D01*
X367791Y114859D01*
X367779Y114957D01*
X367776Y115056D01*
X367759Y115114D01*
X367751Y115175D01*
X367715Y115267D01*
X367687Y115362D01*
X367657Y115414D01*
X367634Y115470D01*
X367576Y115550D01*
X367526Y115636D01*
X367460Y115711D01*
X367448Y115728D01*
X367438Y115735D01*
X367420Y115757D01*
X355025Y128152D01*
X354946Y128212D01*
X354874Y128280D01*
X354821Y128309D01*
X354773Y128346D01*
X354682Y128386D01*
X354596Y128434D01*
X354537Y128449D01*
X354481Y128473D01*
X354383Y128488D01*
X354288Y128513D01*
X354188Y128519D01*
X354167Y128523D01*
X354155Y128521D01*
X354127Y128523D01*
X330973Y128523D01*
X330835Y128506D01*
X330696Y128493D01*
X330677Y128486D01*
X330657Y128483D01*
X330528Y128432D01*
X330397Y128385D01*
X330380Y128374D01*
X330361Y128366D01*
X330249Y128285D01*
X330134Y128207D01*
X330120Y128191D01*
X330104Y128180D01*
X330015Y128072D01*
X329923Y127968D01*
X329914Y127950D01*
X329901Y127935D01*
X329842Y127809D01*
X329779Y127685D01*
X329774Y127665D01*
X329766Y127647D01*
X329740Y127511D01*
X329709Y127375D01*
X329710Y127354D01*
X329706Y127335D01*
X329714Y127196D01*
X329719Y127057D01*
X329724Y127037D01*
X329726Y127017D01*
X329768Y126885D01*
X329807Y126751D01*
X329817Y126734D01*
X329824Y126715D01*
X329898Y126597D01*
X329969Y126477D01*
X329987Y126456D01*
X329994Y126446D01*
X330009Y126432D01*
X330075Y126357D01*
X359031Y97400D01*
X361189Y95243D01*
X361189Y24137D01*
X351783Y14731D01*
X292107Y14731D01*
X290321Y16517D01*
X290321Y26106D01*
X290306Y26224D01*
X290299Y26343D01*
X290286Y26381D01*
X290281Y26422D01*
X290238Y26532D01*
X290201Y26645D01*
X290179Y26680D01*
X290164Y26717D01*
X290095Y26813D01*
X290031Y26914D01*
X290001Y26942D01*
X289978Y26975D01*
X289886Y27051D01*
X289799Y27132D01*
X289764Y27152D01*
X289733Y27177D01*
X289625Y27228D01*
X289521Y27286D01*
X289481Y27296D01*
X289445Y27313D01*
X289328Y27335D01*
X289213Y27365D01*
X289153Y27369D01*
X289133Y27373D01*
X289112Y27371D01*
X289052Y27375D01*
X288938Y27375D01*
X287917Y28396D01*
X287823Y28469D01*
X287734Y28548D01*
X287698Y28566D01*
X287666Y28591D01*
X287557Y28639D01*
X287451Y28693D01*
X287412Y28701D01*
X287374Y28717D01*
X287257Y28736D01*
X287141Y28762D01*
X287100Y28761D01*
X287060Y28767D01*
X286942Y28756D01*
X286823Y28753D01*
X286784Y28741D01*
X286744Y28738D01*
X286632Y28697D01*
X286517Y28664D01*
X286482Y28644D01*
X286444Y28630D01*
X286346Y28563D01*
X286243Y28503D01*
X286198Y28463D01*
X286181Y28451D01*
X286168Y28436D01*
X286122Y28396D01*
X285360Y27634D01*
X285300Y27556D01*
X285232Y27484D01*
X285203Y27431D01*
X285166Y27383D01*
X285126Y27292D01*
X285078Y27205D01*
X285063Y27147D01*
X285039Y27091D01*
X285024Y26993D01*
X284999Y26897D01*
X284993Y26797D01*
X284989Y26777D01*
X284991Y26765D01*
X284989Y26737D01*
X284989Y11938D01*
X285004Y11820D01*
X285011Y11701D01*
X285024Y11663D01*
X285029Y11622D01*
X285072Y11512D01*
X285109Y11399D01*
X285131Y11364D01*
X285146Y11327D01*
X285215Y11231D01*
X285279Y11130D01*
X285309Y11102D01*
X285332Y11069D01*
X285424Y10993D01*
X285511Y10912D01*
X285546Y10892D01*
X285577Y10867D01*
X285685Y10816D01*
X285789Y10758D01*
X285829Y10748D01*
X285865Y10731D01*
X285982Y10709D01*
X286097Y10679D01*
X286157Y10675D01*
X286177Y10671D01*
X286198Y10673D01*
X286258Y10669D01*
X358891Y10669D01*
X358990Y10681D01*
G37*
%LPC*%
G36*
X211034Y373153D02*
X211034Y373153D01*
X209084Y373961D01*
X207591Y375454D01*
X206783Y377404D01*
X206783Y379516D01*
X207591Y381466D01*
X208671Y382545D01*
X208731Y382623D01*
X208799Y382696D01*
X208829Y382749D01*
X208866Y382797D01*
X208905Y382887D01*
X208953Y382974D01*
X208968Y383033D01*
X208992Y383089D01*
X209007Y383186D01*
X209032Y383282D01*
X209039Y383382D01*
X209042Y383403D01*
X209041Y383415D01*
X209042Y383443D01*
X209043Y387486D01*
X209028Y387604D01*
X209020Y387723D01*
X209008Y387761D01*
X209003Y387801D01*
X208959Y387912D01*
X208922Y388025D01*
X208901Y388060D01*
X208886Y388097D01*
X208816Y388194D01*
X208752Y388294D01*
X208723Y388322D01*
X208699Y388355D01*
X208607Y388430D01*
X208520Y388512D01*
X208485Y388532D01*
X208454Y388557D01*
X208346Y388608D01*
X208242Y388666D01*
X208203Y388676D01*
X208166Y388693D01*
X208049Y388715D01*
X207934Y388745D01*
X207874Y388749D01*
X207854Y388753D01*
X207834Y388751D01*
X207773Y388755D01*
X201698Y388755D01*
X200805Y389648D01*
X200805Y420912D01*
X201698Y421805D01*
X207706Y421805D01*
X207844Y421822D01*
X207983Y421835D01*
X208002Y421842D01*
X208022Y421845D01*
X208151Y421896D01*
X208282Y421943D01*
X208299Y421954D01*
X208317Y421962D01*
X208430Y422043D01*
X208545Y422121D01*
X208558Y422137D01*
X208575Y422148D01*
X208664Y422256D01*
X208755Y422360D01*
X208765Y422378D01*
X208778Y422393D01*
X208837Y422519D01*
X208900Y422643D01*
X208904Y422663D01*
X208913Y422681D01*
X208939Y422818D01*
X208970Y422953D01*
X208969Y422974D01*
X208973Y422993D01*
X208964Y423132D01*
X208960Y423271D01*
X208954Y423291D01*
X208953Y423311D01*
X208910Y423443D01*
X208872Y423577D01*
X208861Y423594D01*
X208855Y423613D01*
X208781Y423731D01*
X208710Y423851D01*
X208692Y423872D01*
X208685Y423882D01*
X208670Y423896D01*
X208604Y423971D01*
X207591Y424984D01*
X206783Y426934D01*
X206783Y429046D01*
X207591Y430996D01*
X209094Y432499D01*
X209183Y432556D01*
X209296Y432620D01*
X209317Y432640D01*
X209342Y432656D01*
X209431Y432751D01*
X209524Y432841D01*
X209540Y432866D01*
X209560Y432888D01*
X209623Y433001D01*
X209691Y433112D01*
X209699Y433140D01*
X209714Y433166D01*
X209746Y433292D01*
X209784Y433416D01*
X209786Y433446D01*
X209793Y433474D01*
X209803Y433635D01*
X209803Y437486D01*
X209788Y437604D01*
X209781Y437723D01*
X209768Y437761D01*
X209763Y437802D01*
X209720Y437912D01*
X209683Y438025D01*
X209661Y438060D01*
X209646Y438097D01*
X209577Y438193D01*
X209513Y438294D01*
X209483Y438322D01*
X209460Y438355D01*
X209368Y438431D01*
X209281Y438512D01*
X209246Y438532D01*
X209215Y438557D01*
X209107Y438608D01*
X209003Y438666D01*
X208963Y438676D01*
X208927Y438693D01*
X208810Y438715D01*
X208695Y438745D01*
X208635Y438749D01*
X208615Y438753D01*
X208594Y438751D01*
X208534Y438755D01*
X201698Y438755D01*
X200805Y439648D01*
X200805Y470912D01*
X201698Y471805D01*
X220962Y471805D01*
X221855Y470912D01*
X221855Y439648D01*
X220962Y438755D01*
X215646Y438755D01*
X215528Y438740D01*
X215409Y438733D01*
X215371Y438720D01*
X215330Y438715D01*
X215220Y438672D01*
X215107Y438635D01*
X215072Y438613D01*
X215035Y438598D01*
X214939Y438529D01*
X214838Y438465D01*
X214810Y438435D01*
X214777Y438412D01*
X214701Y438320D01*
X214620Y438233D01*
X214600Y438198D01*
X214575Y438167D01*
X214524Y438059D01*
X214466Y437955D01*
X214456Y437915D01*
X214439Y437879D01*
X214417Y437762D01*
X214387Y437647D01*
X214383Y437587D01*
X214379Y437567D01*
X214381Y437546D01*
X214377Y437486D01*
X214377Y433635D01*
X214380Y433605D01*
X214378Y433576D01*
X214400Y433448D01*
X214417Y433319D01*
X214427Y433292D01*
X214433Y433263D01*
X214486Y433144D01*
X214534Y433024D01*
X214551Y433000D01*
X214563Y432973D01*
X214644Y432871D01*
X214720Y432766D01*
X214743Y432747D01*
X214762Y432724D01*
X214865Y432646D01*
X214965Y432563D01*
X214992Y432551D01*
X215016Y432533D01*
X215086Y432498D01*
X216589Y430996D01*
X217397Y429046D01*
X217397Y426934D01*
X216589Y424984D01*
X215576Y423971D01*
X215492Y423862D01*
X215402Y423755D01*
X215394Y423736D01*
X215381Y423720D01*
X215326Y423593D01*
X215267Y423467D01*
X215263Y423447D01*
X215255Y423428D01*
X215233Y423290D01*
X215207Y423154D01*
X215208Y423134D01*
X215205Y423114D01*
X215218Y422975D01*
X215227Y422837D01*
X215233Y422818D01*
X215235Y422798D01*
X215282Y422666D01*
X215325Y422535D01*
X215336Y422517D01*
X215343Y422498D01*
X215421Y422383D01*
X215495Y422266D01*
X215510Y422252D01*
X215521Y422235D01*
X215625Y422143D01*
X215727Y422048D01*
X215744Y422038D01*
X215760Y422025D01*
X215883Y421962D01*
X216005Y421894D01*
X216025Y421889D01*
X216043Y421880D01*
X216179Y421850D01*
X216313Y421815D01*
X216341Y421813D01*
X216353Y421810D01*
X216374Y421811D01*
X216474Y421805D01*
X220962Y421805D01*
X221855Y420912D01*
X221855Y389648D01*
X220962Y388755D01*
X214885Y388755D01*
X214767Y388740D01*
X214648Y388733D01*
X214610Y388720D01*
X214570Y388715D01*
X214459Y388672D01*
X214346Y388635D01*
X214312Y388613D01*
X214274Y388598D01*
X214178Y388529D01*
X214077Y388465D01*
X214049Y388435D01*
X214017Y388412D01*
X213941Y388320D01*
X213859Y388233D01*
X213840Y388198D01*
X213814Y388167D01*
X213763Y388059D01*
X213706Y387955D01*
X213696Y387915D01*
X213678Y387879D01*
X213656Y387762D01*
X213626Y387647D01*
X213622Y387587D01*
X213619Y387567D01*
X213620Y387546D01*
X213616Y387486D01*
X213616Y384420D01*
X213620Y384391D01*
X213617Y384361D01*
X213639Y384233D01*
X213656Y384105D01*
X213667Y384077D01*
X213672Y384048D01*
X213725Y383929D01*
X213773Y383809D01*
X213790Y383785D01*
X213802Y383758D01*
X213883Y383657D01*
X213960Y383551D01*
X213982Y383533D01*
X214001Y383510D01*
X214104Y383432D01*
X214205Y383349D01*
X214231Y383336D01*
X214255Y383318D01*
X214399Y383247D01*
X215096Y382959D01*
X216589Y381466D01*
X217397Y379516D01*
X217397Y377404D01*
X216589Y375454D01*
X215096Y373961D01*
X213146Y373153D01*
X211034Y373153D01*
G37*
%LPD*%
%LPC*%
G36*
X274196Y339216D02*
X274196Y339216D01*
X273303Y340109D01*
X273303Y360423D01*
X274196Y361316D01*
X277622Y361316D01*
X277740Y361331D01*
X277859Y361338D01*
X277897Y361351D01*
X277938Y361356D01*
X278048Y361399D01*
X278161Y361436D01*
X278196Y361458D01*
X278233Y361473D01*
X278329Y361542D01*
X278430Y361606D01*
X278458Y361636D01*
X278491Y361659D01*
X278567Y361751D01*
X278648Y361838D01*
X278668Y361873D01*
X278693Y361904D01*
X278744Y362012D01*
X278802Y362116D01*
X278812Y362156D01*
X278829Y362192D01*
X278851Y362309D01*
X278881Y362424D01*
X278885Y362484D01*
X278889Y362504D01*
X278887Y362525D01*
X278891Y362585D01*
X278891Y368795D01*
X278888Y368824D01*
X278890Y368853D01*
X278868Y368981D01*
X278851Y369110D01*
X278841Y369138D01*
X278835Y369167D01*
X278782Y369285D01*
X278734Y369406D01*
X278717Y369430D01*
X278705Y369457D01*
X278624Y369558D01*
X278548Y369663D01*
X278525Y369682D01*
X278506Y369705D01*
X278403Y369783D01*
X278303Y369866D01*
X278276Y369879D01*
X278252Y369896D01*
X278108Y369967D01*
X277664Y370151D01*
X276171Y371644D01*
X275363Y373594D01*
X275363Y375706D01*
X276171Y377656D01*
X277664Y379149D01*
X279614Y379957D01*
X281726Y379957D01*
X283676Y379149D01*
X285179Y377646D01*
X285236Y377557D01*
X285300Y377444D01*
X285320Y377423D01*
X285336Y377398D01*
X285431Y377309D01*
X285521Y377216D01*
X285546Y377200D01*
X285568Y377180D01*
X285681Y377117D01*
X285792Y377049D01*
X285820Y377041D01*
X285846Y377026D01*
X285972Y376994D01*
X286096Y376956D01*
X286126Y376954D01*
X286154Y376947D01*
X286315Y376937D01*
X321107Y376937D01*
X321205Y376949D01*
X321304Y376952D01*
X321362Y376969D01*
X321423Y376977D01*
X321515Y377013D01*
X321610Y377041D01*
X321662Y377071D01*
X321718Y377094D01*
X321798Y377152D01*
X321884Y377202D01*
X321959Y377268D01*
X321976Y377280D01*
X321983Y377290D01*
X322005Y377308D01*
X331285Y386589D01*
X331370Y386698D01*
X331458Y386805D01*
X331467Y386824D01*
X331480Y386840D01*
X331535Y386967D01*
X331594Y387093D01*
X331598Y387113D01*
X331606Y387132D01*
X331628Y387270D01*
X331654Y387406D01*
X331653Y387426D01*
X331656Y387446D01*
X331643Y387585D01*
X331634Y387723D01*
X331628Y387742D01*
X331626Y387762D01*
X331579Y387894D01*
X331536Y388025D01*
X331525Y388043D01*
X331518Y388062D01*
X331440Y388177D01*
X331366Y388294D01*
X331351Y388308D01*
X331340Y388325D01*
X331235Y388417D01*
X331134Y388512D01*
X331117Y388522D01*
X331101Y388535D01*
X330977Y388599D01*
X330856Y388666D01*
X330836Y388671D01*
X330818Y388680D01*
X330682Y388710D01*
X330548Y388745D01*
X330520Y388747D01*
X330508Y388750D01*
X330487Y388749D01*
X330387Y388755D01*
X328698Y388755D01*
X327805Y389648D01*
X327805Y420912D01*
X328698Y421805D01*
X333436Y421805D01*
X333574Y421822D01*
X333713Y421835D01*
X333732Y421842D01*
X333752Y421845D01*
X333881Y421896D01*
X334012Y421943D01*
X334029Y421954D01*
X334047Y421962D01*
X334160Y422043D01*
X334275Y422121D01*
X334288Y422137D01*
X334305Y422148D01*
X334394Y422256D01*
X334485Y422360D01*
X334495Y422378D01*
X334508Y422393D01*
X334567Y422519D01*
X334630Y422643D01*
X334634Y422663D01*
X334643Y422681D01*
X334669Y422818D01*
X334700Y422953D01*
X334699Y422974D01*
X334703Y422993D01*
X334694Y423132D01*
X334690Y423271D01*
X334684Y423291D01*
X334683Y423311D01*
X334640Y423443D01*
X334602Y423577D01*
X334591Y423594D01*
X334585Y423613D01*
X334511Y423731D01*
X334440Y423851D01*
X334422Y423872D01*
X334415Y423882D01*
X334400Y423896D01*
X334334Y423971D01*
X333321Y424984D01*
X332513Y426934D01*
X332513Y429046D01*
X333321Y430996D01*
X334814Y432489D01*
X336764Y433297D01*
X338876Y433297D01*
X340826Y432489D01*
X342319Y430996D01*
X343127Y429046D01*
X343127Y426934D01*
X342319Y424984D01*
X341306Y423971D01*
X341222Y423862D01*
X341132Y423755D01*
X341124Y423736D01*
X341111Y423720D01*
X341056Y423593D01*
X340997Y423467D01*
X340993Y423447D01*
X340985Y423428D01*
X340963Y423290D01*
X340937Y423154D01*
X340938Y423134D01*
X340935Y423114D01*
X340948Y422975D01*
X340957Y422837D01*
X340963Y422818D01*
X340965Y422798D01*
X341012Y422666D01*
X341055Y422535D01*
X341066Y422517D01*
X341073Y422498D01*
X341151Y422383D01*
X341225Y422266D01*
X341240Y422252D01*
X341251Y422235D01*
X341355Y422143D01*
X341457Y422048D01*
X341474Y422038D01*
X341490Y422025D01*
X341613Y421962D01*
X341735Y421894D01*
X341755Y421889D01*
X341773Y421880D01*
X341909Y421850D01*
X342043Y421815D01*
X342071Y421813D01*
X342083Y421810D01*
X342104Y421811D01*
X342204Y421805D01*
X347962Y421805D01*
X348855Y420912D01*
X348855Y389648D01*
X347962Y388755D01*
X340445Y388755D01*
X340347Y388743D01*
X340248Y388740D01*
X340190Y388723D01*
X340129Y388715D01*
X340037Y388679D01*
X339942Y388651D01*
X339890Y388621D01*
X339834Y388598D01*
X339754Y388540D01*
X339668Y388490D01*
X339593Y388424D01*
X339576Y388412D01*
X339569Y388402D01*
X339547Y388384D01*
X323527Y372363D01*
X286315Y372363D01*
X286285Y372360D01*
X286256Y372362D01*
X286128Y372340D01*
X285999Y372323D01*
X285972Y372313D01*
X285943Y372307D01*
X285824Y372254D01*
X285704Y372206D01*
X285680Y372189D01*
X285653Y372177D01*
X285551Y372096D01*
X285446Y372020D01*
X285427Y371997D01*
X285404Y371978D01*
X285326Y371875D01*
X285243Y371775D01*
X285231Y371748D01*
X285213Y371724D01*
X285178Y371654D01*
X283836Y370312D01*
X283776Y370233D01*
X283708Y370161D01*
X283679Y370108D01*
X283642Y370060D01*
X283602Y369969D01*
X283554Y369883D01*
X283539Y369824D01*
X283515Y369768D01*
X283500Y369671D01*
X283475Y369575D01*
X283469Y369475D01*
X283465Y369454D01*
X283467Y369442D01*
X283465Y369414D01*
X283465Y362585D01*
X283480Y362467D01*
X283487Y362348D01*
X283500Y362310D01*
X283505Y362269D01*
X283548Y362159D01*
X283585Y362046D01*
X283607Y362011D01*
X283622Y361974D01*
X283691Y361878D01*
X283755Y361777D01*
X283785Y361749D01*
X283808Y361716D01*
X283900Y361640D01*
X283987Y361559D01*
X284022Y361539D01*
X284053Y361514D01*
X284161Y361463D01*
X284265Y361405D01*
X284305Y361395D01*
X284341Y361378D01*
X284458Y361356D01*
X284573Y361326D01*
X284633Y361322D01*
X284653Y361318D01*
X284674Y361320D01*
X284734Y361316D01*
X288160Y361316D01*
X289053Y360423D01*
X289053Y340109D01*
X288160Y339216D01*
X274196Y339216D01*
G37*
%LPD*%
%LPC*%
G36*
X314636Y61859D02*
X314636Y61859D01*
X313989Y62032D01*
X313410Y62367D01*
X312937Y62840D01*
X312860Y62974D01*
X312784Y63074D01*
X312713Y63178D01*
X312688Y63200D01*
X312667Y63227D01*
X312569Y63305D01*
X312475Y63388D01*
X312445Y63404D01*
X312418Y63425D01*
X312303Y63476D01*
X312191Y63533D01*
X312159Y63540D01*
X312128Y63554D01*
X312004Y63575D01*
X311881Y63603D01*
X311847Y63602D01*
X311814Y63607D01*
X311689Y63597D01*
X311563Y63593D01*
X311531Y63584D01*
X311497Y63581D01*
X311379Y63540D01*
X311258Y63505D01*
X311229Y63487D01*
X311197Y63476D01*
X311092Y63407D01*
X310984Y63343D01*
X310947Y63311D01*
X310932Y63301D01*
X310917Y63285D01*
X310863Y63237D01*
X310502Y62875D01*
X301638Y62875D01*
X300617Y63896D01*
X300523Y63969D01*
X300434Y64048D01*
X300398Y64066D01*
X300366Y64091D01*
X300257Y64139D01*
X300151Y64193D01*
X300112Y64201D01*
X300074Y64217D01*
X299957Y64236D01*
X299841Y64262D01*
X299800Y64261D01*
X299760Y64267D01*
X299642Y64256D01*
X299523Y64253D01*
X299484Y64241D01*
X299444Y64238D01*
X299332Y64197D01*
X299217Y64164D01*
X299182Y64144D01*
X299144Y64130D01*
X299046Y64063D01*
X298943Y64003D01*
X298898Y63963D01*
X298881Y63951D01*
X298868Y63936D01*
X298822Y63896D01*
X297802Y62875D01*
X288938Y62875D01*
X287917Y63896D01*
X287823Y63969D01*
X287734Y64048D01*
X287698Y64066D01*
X287666Y64091D01*
X287557Y64139D01*
X287451Y64193D01*
X287412Y64201D01*
X287374Y64217D01*
X287257Y64236D01*
X287141Y64262D01*
X287100Y64261D01*
X287060Y64267D01*
X286942Y64256D01*
X286823Y64253D01*
X286784Y64241D01*
X286744Y64238D01*
X286632Y64197D01*
X286517Y64164D01*
X286482Y64144D01*
X286444Y64130D01*
X286346Y64063D01*
X286243Y64003D01*
X286198Y63963D01*
X286181Y63951D01*
X286168Y63936D01*
X286122Y63896D01*
X285102Y62875D01*
X276238Y62875D01*
X275345Y63768D01*
X275345Y85532D01*
X276238Y86425D01*
X285102Y86425D01*
X286122Y85404D01*
X286205Y85340D01*
X286262Y85286D01*
X286276Y85278D01*
X286306Y85252D01*
X286342Y85234D01*
X286374Y85209D01*
X286483Y85162D01*
X286589Y85107D01*
X286628Y85099D01*
X286666Y85083D01*
X286783Y85064D01*
X286899Y85038D01*
X286940Y85039D01*
X286980Y85033D01*
X287098Y85044D01*
X287217Y85047D01*
X287256Y85059D01*
X287296Y85062D01*
X287409Y85103D01*
X287523Y85136D01*
X287557Y85156D01*
X287596Y85170D01*
X287635Y85197D01*
X287642Y85200D01*
X287682Y85228D01*
X287694Y85237D01*
X287797Y85297D01*
X287842Y85337D01*
X287859Y85349D01*
X287872Y85364D01*
X287891Y85380D01*
X287899Y85386D01*
X287903Y85391D01*
X287917Y85404D01*
X288938Y86425D01*
X297802Y86425D01*
X298822Y85404D01*
X298905Y85340D01*
X298962Y85286D01*
X298976Y85278D01*
X299006Y85252D01*
X299042Y85234D01*
X299074Y85209D01*
X299183Y85162D01*
X299289Y85107D01*
X299328Y85099D01*
X299366Y85083D01*
X299483Y85064D01*
X299599Y85038D01*
X299640Y85039D01*
X299680Y85033D01*
X299798Y85044D01*
X299917Y85047D01*
X299956Y85059D01*
X299996Y85062D01*
X300109Y85103D01*
X300223Y85136D01*
X300257Y85156D01*
X300296Y85170D01*
X300335Y85197D01*
X300342Y85200D01*
X300382Y85228D01*
X300394Y85237D01*
X300497Y85297D01*
X300542Y85337D01*
X300559Y85349D01*
X300572Y85364D01*
X300591Y85380D01*
X300599Y85386D01*
X300603Y85391D01*
X300617Y85404D01*
X301638Y86425D01*
X310502Y86425D01*
X310863Y86063D01*
X310962Y85987D01*
X311057Y85904D01*
X311088Y85889D01*
X311114Y85868D01*
X311230Y85818D01*
X311342Y85762D01*
X311375Y85755D01*
X311406Y85742D01*
X311531Y85722D01*
X311653Y85696D01*
X311687Y85697D01*
X311720Y85692D01*
X311846Y85704D01*
X311971Y85709D01*
X312003Y85719D01*
X312037Y85722D01*
X312155Y85765D01*
X312276Y85801D01*
X312304Y85818D01*
X312336Y85830D01*
X312440Y85900D01*
X312548Y85965D01*
X312571Y85989D01*
X312599Y86008D01*
X312682Y86102D01*
X312771Y86192D01*
X312798Y86233D01*
X312810Y86247D01*
X312819Y86266D01*
X312860Y86326D01*
X312937Y86460D01*
X313410Y86933D01*
X313989Y87268D01*
X314636Y87441D01*
X316871Y87441D01*
X316871Y75280D01*
X316886Y75162D01*
X316893Y75043D01*
X316905Y75005D01*
X316911Y74965D01*
X316954Y74854D01*
X316991Y74741D01*
X317013Y74707D01*
X317028Y74669D01*
X317043Y74647D01*
X317018Y74593D01*
X316960Y74488D01*
X316950Y74449D01*
X316933Y74413D01*
X316911Y74296D01*
X316881Y74180D01*
X316877Y74120D01*
X316873Y74100D01*
X316875Y74080D01*
X316871Y74020D01*
X316871Y61859D01*
X314636Y61859D01*
G37*
%LPD*%
%LPC*%
G36*
X320669Y38520D02*
X320669Y38520D01*
X320654Y38638D01*
X320647Y38757D01*
X320634Y38795D01*
X320629Y38835D01*
X320586Y38946D01*
X320549Y39059D01*
X320527Y39093D01*
X320512Y39131D01*
X320496Y39153D01*
X320522Y39207D01*
X320580Y39312D01*
X320590Y39351D01*
X320607Y39387D01*
X320629Y39504D01*
X320659Y39620D01*
X320663Y39680D01*
X320667Y39700D01*
X320665Y39720D01*
X320669Y39780D01*
X320669Y51941D01*
X322904Y51941D01*
X323551Y51768D01*
X324130Y51433D01*
X324603Y50960D01*
X324680Y50826D01*
X324756Y50726D01*
X324827Y50622D01*
X324852Y50600D01*
X324873Y50573D01*
X324971Y50495D01*
X325065Y50412D01*
X325095Y50396D01*
X325122Y50375D01*
X325237Y50324D01*
X325349Y50267D01*
X325381Y50260D01*
X325412Y50246D01*
X325536Y50225D01*
X325659Y50197D01*
X325693Y50198D01*
X325726Y50193D01*
X325851Y50203D01*
X325977Y50207D01*
X326009Y50216D01*
X326043Y50219D01*
X326161Y50260D01*
X326282Y50295D01*
X326311Y50313D01*
X326343Y50324D01*
X326448Y50393D01*
X326556Y50457D01*
X326593Y50489D01*
X326608Y50499D01*
X326623Y50515D01*
X326677Y50563D01*
X327038Y50925D01*
X327152Y50925D01*
X327270Y50940D01*
X327389Y50947D01*
X327427Y50960D01*
X327468Y50965D01*
X327578Y51008D01*
X327691Y51045D01*
X327726Y51067D01*
X327763Y51082D01*
X327859Y51151D01*
X327960Y51215D01*
X327988Y51245D01*
X328021Y51268D01*
X328097Y51360D01*
X328178Y51447D01*
X328198Y51482D01*
X328223Y51513D01*
X328274Y51621D01*
X328332Y51725D01*
X328342Y51765D01*
X328359Y51801D01*
X328381Y51918D01*
X328411Y52033D01*
X328415Y52093D01*
X328419Y52113D01*
X328417Y52134D01*
X328421Y52194D01*
X328421Y61606D01*
X328406Y61724D01*
X328399Y61843D01*
X328386Y61881D01*
X328381Y61922D01*
X328338Y62032D01*
X328301Y62145D01*
X328279Y62180D01*
X328264Y62217D01*
X328195Y62313D01*
X328131Y62414D01*
X328101Y62442D01*
X328078Y62475D01*
X327986Y62551D01*
X327899Y62632D01*
X327864Y62652D01*
X327833Y62677D01*
X327725Y62728D01*
X327621Y62786D01*
X327581Y62796D01*
X327545Y62813D01*
X327428Y62835D01*
X327313Y62865D01*
X327253Y62869D01*
X327233Y62873D01*
X327212Y62871D01*
X327152Y62875D01*
X327038Y62875D01*
X326677Y63237D01*
X326578Y63313D01*
X326483Y63396D01*
X326452Y63411D01*
X326426Y63432D01*
X326310Y63482D01*
X326198Y63538D01*
X326165Y63545D01*
X326134Y63558D01*
X326009Y63578D01*
X325887Y63604D01*
X325853Y63603D01*
X325820Y63608D01*
X325694Y63596D01*
X325569Y63591D01*
X325537Y63581D01*
X325503Y63578D01*
X325385Y63535D01*
X325264Y63499D01*
X325236Y63482D01*
X325204Y63470D01*
X325100Y63400D01*
X324992Y63335D01*
X324969Y63311D01*
X324941Y63292D01*
X324858Y63198D01*
X324769Y63108D01*
X324742Y63067D01*
X324730Y63053D01*
X324721Y63034D01*
X324680Y62974D01*
X324603Y62840D01*
X324130Y62367D01*
X323551Y62032D01*
X322904Y61859D01*
X320669Y61859D01*
X320669Y74020D01*
X320654Y74138D01*
X320647Y74257D01*
X320634Y74295D01*
X320629Y74335D01*
X320586Y74446D01*
X320549Y74559D01*
X320527Y74593D01*
X320512Y74631D01*
X320496Y74653D01*
X320522Y74707D01*
X320580Y74812D01*
X320590Y74851D01*
X320607Y74887D01*
X320629Y75004D01*
X320659Y75120D01*
X320663Y75180D01*
X320667Y75200D01*
X320665Y75220D01*
X320669Y75280D01*
X320669Y87441D01*
X322904Y87441D01*
X323551Y87268D01*
X324130Y86933D01*
X324603Y86460D01*
X324680Y86326D01*
X324756Y86226D01*
X324827Y86122D01*
X324852Y86100D01*
X324873Y86073D01*
X324971Y85995D01*
X325065Y85912D01*
X325095Y85896D01*
X325122Y85875D01*
X325237Y85824D01*
X325349Y85767D01*
X325381Y85760D01*
X325412Y85746D01*
X325536Y85725D01*
X325659Y85697D01*
X325693Y85698D01*
X325726Y85693D01*
X325851Y85703D01*
X325977Y85707D01*
X326009Y85716D01*
X326043Y85719D01*
X326161Y85760D01*
X326282Y85795D01*
X326311Y85813D01*
X326343Y85824D01*
X326448Y85893D01*
X326556Y85957D01*
X326593Y85989D01*
X326608Y85999D01*
X326623Y86015D01*
X326677Y86063D01*
X327038Y86425D01*
X327914Y86425D01*
X328032Y86440D01*
X328151Y86447D01*
X328189Y86460D01*
X328230Y86465D01*
X328340Y86508D01*
X328453Y86545D01*
X328488Y86567D01*
X328525Y86582D01*
X328621Y86651D01*
X328722Y86715D01*
X328750Y86745D01*
X328783Y86768D01*
X328859Y86860D01*
X328940Y86947D01*
X328960Y86982D01*
X328985Y87013D01*
X329036Y87121D01*
X329094Y87225D01*
X329104Y87265D01*
X329121Y87301D01*
X329143Y87418D01*
X329173Y87533D01*
X329177Y87593D01*
X329181Y87613D01*
X329179Y87634D01*
X329183Y87694D01*
X329183Y93657D01*
X329672Y94145D01*
X329690Y94169D01*
X329712Y94188D01*
X329787Y94294D01*
X329866Y94397D01*
X329878Y94424D01*
X329895Y94448D01*
X329941Y94570D01*
X329993Y94689D01*
X329997Y94718D01*
X330008Y94746D01*
X330022Y94874D01*
X330043Y95003D01*
X330040Y95032D01*
X330043Y95062D01*
X330025Y95190D01*
X330013Y95319D01*
X330003Y95347D01*
X329999Y95376D01*
X329973Y95451D01*
X329973Y97576D01*
X330781Y99526D01*
X332274Y101019D01*
X334224Y101827D01*
X336336Y101827D01*
X338286Y101019D01*
X339779Y99526D01*
X340587Y97576D01*
X340587Y95464D01*
X339779Y93514D01*
X338286Y92021D01*
X336336Y91213D01*
X335026Y91213D01*
X334908Y91198D01*
X334789Y91191D01*
X334751Y91178D01*
X334710Y91173D01*
X334600Y91130D01*
X334487Y91093D01*
X334452Y91071D01*
X334415Y91056D01*
X334319Y90987D01*
X334218Y90923D01*
X334190Y90893D01*
X334157Y90870D01*
X334081Y90778D01*
X334000Y90691D01*
X333980Y90656D01*
X333955Y90625D01*
X333904Y90517D01*
X333846Y90413D01*
X333836Y90373D01*
X333819Y90337D01*
X333797Y90220D01*
X333767Y90105D01*
X333763Y90045D01*
X333759Y90025D01*
X333761Y90004D01*
X333757Y89944D01*
X333757Y87694D01*
X333772Y87576D01*
X333779Y87457D01*
X333792Y87419D01*
X333797Y87378D01*
X333840Y87268D01*
X333877Y87155D01*
X333899Y87120D01*
X333914Y87083D01*
X333983Y86987D01*
X334047Y86886D01*
X334077Y86858D01*
X334100Y86825D01*
X334192Y86749D01*
X334279Y86668D01*
X334314Y86648D01*
X334345Y86623D01*
X334453Y86572D01*
X334557Y86514D01*
X334597Y86504D01*
X334633Y86487D01*
X334750Y86465D01*
X334865Y86435D01*
X334925Y86431D01*
X334945Y86427D01*
X334966Y86429D01*
X335026Y86425D01*
X335902Y86425D01*
X336795Y85532D01*
X336795Y63768D01*
X335902Y62875D01*
X335788Y62875D01*
X335670Y62860D01*
X335551Y62853D01*
X335513Y62840D01*
X335472Y62835D01*
X335362Y62792D01*
X335249Y62755D01*
X335214Y62733D01*
X335177Y62718D01*
X335081Y62649D01*
X334980Y62585D01*
X334952Y62555D01*
X334919Y62532D01*
X334843Y62440D01*
X334762Y62353D01*
X334742Y62318D01*
X334717Y62287D01*
X334666Y62179D01*
X334608Y62075D01*
X334598Y62035D01*
X334581Y61999D01*
X334559Y61882D01*
X334529Y61767D01*
X334525Y61707D01*
X334521Y61687D01*
X334523Y61666D01*
X334519Y61606D01*
X334519Y52194D01*
X334534Y52076D01*
X334541Y51957D01*
X334554Y51919D01*
X334559Y51878D01*
X334602Y51768D01*
X334639Y51655D01*
X334661Y51620D01*
X334676Y51583D01*
X334745Y51487D01*
X334809Y51386D01*
X334839Y51358D01*
X334862Y51325D01*
X334954Y51249D01*
X335041Y51168D01*
X335076Y51148D01*
X335107Y51123D01*
X335215Y51072D01*
X335319Y51014D01*
X335359Y51004D01*
X335395Y50987D01*
X335512Y50965D01*
X335627Y50935D01*
X335687Y50931D01*
X335707Y50927D01*
X335728Y50929D01*
X335788Y50925D01*
X335902Y50925D01*
X336795Y50032D01*
X336795Y28268D01*
X335902Y27375D01*
X327038Y27375D01*
X326677Y27737D01*
X326578Y27813D01*
X326483Y27896D01*
X326452Y27911D01*
X326426Y27932D01*
X326310Y27982D01*
X326198Y28038D01*
X326165Y28045D01*
X326134Y28058D01*
X326009Y28078D01*
X325887Y28104D01*
X325853Y28103D01*
X325820Y28108D01*
X325694Y28096D01*
X325569Y28091D01*
X325537Y28081D01*
X325503Y28078D01*
X325385Y28035D01*
X325264Y27999D01*
X325236Y27982D01*
X325204Y27970D01*
X325100Y27900D01*
X324992Y27835D01*
X324969Y27811D01*
X324941Y27792D01*
X324858Y27698D01*
X324769Y27608D01*
X324742Y27567D01*
X324730Y27553D01*
X324721Y27534D01*
X324680Y27474D01*
X324603Y27340D01*
X324130Y26867D01*
X323551Y26532D01*
X322904Y26359D01*
X320669Y26359D01*
X320669Y38520D01*
G37*
%LPD*%
%LPC*%
G36*
X242104Y262801D02*
X242104Y262801D01*
X241211Y263694D01*
X241211Y273958D01*
X242104Y274851D01*
X242799Y274851D01*
X242917Y274866D01*
X243036Y274873D01*
X243074Y274886D01*
X243115Y274891D01*
X243225Y274934D01*
X243338Y274971D01*
X243373Y274993D01*
X243410Y275008D01*
X243506Y275077D01*
X243607Y275141D01*
X243635Y275171D01*
X243668Y275194D01*
X243744Y275286D01*
X243825Y275373D01*
X243845Y275408D01*
X243870Y275439D01*
X243921Y275547D01*
X243979Y275651D01*
X243989Y275691D01*
X244006Y275727D01*
X244028Y275844D01*
X244058Y275959D01*
X244062Y276019D01*
X244066Y276039D01*
X244064Y276060D01*
X244068Y276120D01*
X244068Y278130D01*
X244053Y278248D01*
X244046Y278367D01*
X244033Y278405D01*
X244028Y278446D01*
X243985Y278556D01*
X243948Y278669D01*
X243926Y278704D01*
X243911Y278741D01*
X243842Y278837D01*
X243778Y278938D01*
X243748Y278966D01*
X243725Y278999D01*
X243633Y279075D01*
X243546Y279156D01*
X243511Y279176D01*
X243480Y279201D01*
X243372Y279252D01*
X243268Y279310D01*
X243228Y279320D01*
X243192Y279337D01*
X243075Y279359D01*
X242960Y279389D01*
X242900Y279393D01*
X242880Y279397D01*
X242859Y279395D01*
X242799Y279399D01*
X234699Y279399D01*
X233806Y280292D01*
X233806Y283718D01*
X233791Y283836D01*
X233784Y283955D01*
X233771Y283993D01*
X233766Y284034D01*
X233723Y284144D01*
X233686Y284257D01*
X233664Y284292D01*
X233649Y284329D01*
X233580Y284425D01*
X233516Y284526D01*
X233486Y284554D01*
X233463Y284587D01*
X233371Y284663D01*
X233284Y284744D01*
X233249Y284764D01*
X233218Y284789D01*
X233110Y284840D01*
X233006Y284898D01*
X232966Y284908D01*
X232930Y284925D01*
X232813Y284947D01*
X232698Y284977D01*
X232638Y284981D01*
X232618Y284985D01*
X232597Y284983D01*
X232537Y284987D01*
X231902Y284987D01*
X231784Y284972D01*
X231665Y284965D01*
X231627Y284952D01*
X231586Y284947D01*
X231476Y284904D01*
X231363Y284867D01*
X231328Y284845D01*
X231291Y284830D01*
X231195Y284761D01*
X231094Y284697D01*
X231066Y284667D01*
X231033Y284644D01*
X230957Y284552D01*
X230876Y284465D01*
X230856Y284430D01*
X230831Y284399D01*
X230780Y284291D01*
X230722Y284187D01*
X230712Y284147D01*
X230695Y284111D01*
X230673Y283994D01*
X230643Y283879D01*
X230639Y283819D01*
X230635Y283799D01*
X230637Y283778D01*
X230633Y283718D01*
X230633Y277136D01*
X230648Y277018D01*
X230655Y276899D01*
X230668Y276861D01*
X230673Y276820D01*
X230716Y276710D01*
X230753Y276597D01*
X230775Y276562D01*
X230790Y276525D01*
X230859Y276429D01*
X230923Y276328D01*
X230953Y276300D01*
X230976Y276267D01*
X231068Y276191D01*
X231155Y276110D01*
X231190Y276090D01*
X231221Y276065D01*
X231329Y276014D01*
X231433Y275956D01*
X231473Y275946D01*
X231509Y275929D01*
X231626Y275907D01*
X231741Y275877D01*
X231801Y275873D01*
X231821Y275869D01*
X231842Y275871D01*
X231902Y275867D01*
X232070Y275867D01*
X232717Y275694D01*
X233296Y275359D01*
X233769Y274886D01*
X234104Y274307D01*
X234277Y273660D01*
X234277Y270825D01*
X228466Y270825D01*
X228348Y270810D01*
X228229Y270803D01*
X228191Y270790D01*
X228151Y270785D01*
X228040Y270742D01*
X227927Y270705D01*
X227893Y270683D01*
X227855Y270668D01*
X227759Y270599D01*
X227742Y270588D01*
X227718Y270602D01*
X227686Y270627D01*
X227579Y270678D01*
X227474Y270736D01*
X227435Y270746D01*
X227399Y270763D01*
X227282Y270785D01*
X227166Y270815D01*
X227106Y270819D01*
X227086Y270823D01*
X227066Y270821D01*
X227006Y270825D01*
X221195Y270825D01*
X221195Y273660D01*
X221318Y274118D01*
X221335Y274243D01*
X221359Y274367D01*
X221357Y274400D01*
X221361Y274434D01*
X221347Y274559D01*
X221339Y274684D01*
X221329Y274716D01*
X221325Y274749D01*
X221280Y274867D01*
X221241Y274986D01*
X221223Y275015D01*
X221211Y275046D01*
X221138Y275149D01*
X221071Y275255D01*
X221046Y275278D01*
X221027Y275306D01*
X220931Y275387D01*
X220839Y275473D01*
X220810Y275489D01*
X220784Y275511D01*
X220671Y275566D01*
X220561Y275627D01*
X220528Y275635D01*
X220498Y275650D01*
X220374Y275675D01*
X220253Y275706D01*
X220204Y275709D01*
X220186Y275713D01*
X220164Y275712D01*
X220092Y275716D01*
X215776Y275716D01*
X214883Y276609D01*
X214883Y296923D01*
X215776Y297816D01*
X229740Y297816D01*
X230633Y296923D01*
X230633Y290830D01*
X230648Y290712D01*
X230655Y290593D01*
X230668Y290555D01*
X230673Y290514D01*
X230716Y290404D01*
X230753Y290291D01*
X230775Y290256D01*
X230790Y290219D01*
X230859Y290123D01*
X230923Y290022D01*
X230953Y289994D01*
X230976Y289961D01*
X231068Y289885D01*
X231155Y289804D01*
X231190Y289784D01*
X231221Y289759D01*
X231329Y289708D01*
X231433Y289650D01*
X231473Y289640D01*
X231509Y289623D01*
X231626Y289601D01*
X231741Y289571D01*
X231801Y289567D01*
X231821Y289563D01*
X231842Y289565D01*
X231902Y289561D01*
X232537Y289561D01*
X232655Y289576D01*
X232774Y289583D01*
X232812Y289596D01*
X232853Y289601D01*
X232963Y289644D01*
X233076Y289681D01*
X233111Y289703D01*
X233148Y289718D01*
X233244Y289787D01*
X233345Y289851D01*
X233373Y289881D01*
X233406Y289904D01*
X233482Y289996D01*
X233563Y290083D01*
X233583Y290118D01*
X233608Y290149D01*
X233659Y290257D01*
X233717Y290361D01*
X233727Y290401D01*
X233744Y290437D01*
X233766Y290554D01*
X233796Y290669D01*
X233800Y290729D01*
X233804Y290749D01*
X233802Y290770D01*
X233806Y290830D01*
X233806Y294256D01*
X234699Y295149D01*
X244390Y295149D01*
X244488Y295161D01*
X244587Y295164D01*
X244645Y295181D01*
X244705Y295189D01*
X244797Y295225D01*
X244893Y295253D01*
X244945Y295283D01*
X245001Y295306D01*
X245081Y295364D01*
X245166Y295414D01*
X245242Y295480D01*
X245258Y295492D01*
X245266Y295502D01*
X245287Y295521D01*
X245631Y295864D01*
X245777Y295864D01*
X245840Y295872D01*
X245903Y295871D01*
X245997Y295892D01*
X246092Y295904D01*
X246151Y295927D01*
X246213Y295942D01*
X246361Y296006D01*
X246490Y296074D01*
X246962Y295924D01*
X247074Y295903D01*
X247185Y295874D01*
X247254Y295870D01*
X247275Y295866D01*
X247294Y295868D01*
X247346Y295864D01*
X247841Y295864D01*
X247944Y295761D01*
X247994Y295722D01*
X248038Y295676D01*
X248119Y295625D01*
X248195Y295566D01*
X248254Y295541D01*
X248307Y295507D01*
X248458Y295449D01*
X248912Y295305D01*
X248914Y295303D01*
X249032Y295238D01*
X249056Y295232D01*
X249078Y295221D01*
X249210Y295193D01*
X249340Y295159D01*
X249375Y295157D01*
X249389Y295154D01*
X249410Y295154D01*
X249501Y295149D01*
X255013Y295149D01*
X255906Y294256D01*
X255906Y280292D01*
X255013Y279399D01*
X250673Y279399D01*
X250555Y279384D01*
X250436Y279377D01*
X250398Y279364D01*
X250357Y279359D01*
X250247Y279316D01*
X250134Y279279D01*
X250099Y279257D01*
X250062Y279242D01*
X249966Y279173D01*
X249865Y279109D01*
X249837Y279079D01*
X249804Y279056D01*
X249728Y278964D01*
X249647Y278877D01*
X249627Y278842D01*
X249602Y278811D01*
X249551Y278703D01*
X249493Y278599D01*
X249483Y278559D01*
X249466Y278523D01*
X249444Y278406D01*
X249414Y278291D01*
X249410Y278231D01*
X249406Y278211D01*
X249408Y278190D01*
X249404Y278130D01*
X249404Y276120D01*
X249419Y276002D01*
X249426Y275883D01*
X249439Y275845D01*
X249444Y275804D01*
X249487Y275694D01*
X249524Y275581D01*
X249546Y275546D01*
X249561Y275509D01*
X249630Y275413D01*
X249694Y275312D01*
X249724Y275284D01*
X249747Y275251D01*
X249839Y275175D01*
X249926Y275094D01*
X249961Y275074D01*
X249992Y275049D01*
X250100Y274998D01*
X250204Y274940D01*
X250244Y274930D01*
X250280Y274913D01*
X250397Y274891D01*
X250512Y274861D01*
X250572Y274857D01*
X250592Y274853D01*
X250613Y274855D01*
X250673Y274851D01*
X251368Y274851D01*
X252261Y273958D01*
X252261Y263694D01*
X251368Y262801D01*
X242104Y262801D01*
G37*
%LPD*%
%LPC*%
G36*
X218189Y193293D02*
X218189Y193293D01*
X217296Y194186D01*
X217296Y208150D01*
X218189Y209043D01*
X231922Y209043D01*
X232020Y209055D01*
X232119Y209058D01*
X232178Y209075D01*
X232238Y209083D01*
X232330Y209119D01*
X232425Y209147D01*
X232477Y209177D01*
X232533Y209200D01*
X232614Y209258D01*
X232699Y209308D01*
X232774Y209374D01*
X232791Y209386D01*
X232799Y209396D01*
X232820Y209414D01*
X233689Y210283D01*
X233749Y210362D01*
X233817Y210434D01*
X233846Y210487D01*
X233883Y210535D01*
X233923Y210625D01*
X233971Y210712D01*
X233986Y210771D01*
X234010Y210826D01*
X234025Y210924D01*
X234050Y211020D01*
X234056Y211120D01*
X234060Y211140D01*
X234058Y211153D01*
X234060Y211181D01*
X234060Y216027D01*
X234045Y216145D01*
X234038Y216264D01*
X234025Y216302D01*
X234020Y216343D01*
X233977Y216453D01*
X233940Y216566D01*
X233918Y216601D01*
X233903Y216638D01*
X233834Y216734D01*
X233770Y216835D01*
X233740Y216863D01*
X233717Y216896D01*
X233625Y216972D01*
X233538Y217053D01*
X233503Y217073D01*
X233472Y217098D01*
X233364Y217149D01*
X233260Y217207D01*
X233220Y217217D01*
X233184Y217234D01*
X233067Y217256D01*
X232952Y217286D01*
X232892Y217290D01*
X232872Y217294D01*
X232851Y217292D01*
X232791Y217296D01*
X229746Y217296D01*
X228853Y218189D01*
X228853Y238503D01*
X229746Y239396D01*
X231946Y239396D01*
X232084Y239413D01*
X232222Y239426D01*
X232241Y239433D01*
X232261Y239436D01*
X232390Y239487D01*
X232521Y239534D01*
X232538Y239545D01*
X232557Y239553D01*
X232669Y239634D01*
X232785Y239712D01*
X232798Y239728D01*
X232814Y239739D01*
X232903Y239847D01*
X232995Y239951D01*
X233004Y239969D01*
X233017Y239984D01*
X233076Y240110D01*
X233140Y240234D01*
X233144Y240254D01*
X233153Y240272D01*
X233179Y240409D01*
X233209Y240544D01*
X233209Y240565D01*
X233212Y240584D01*
X233204Y240723D01*
X233200Y240862D01*
X233194Y240882D01*
X233193Y240902D01*
X233150Y241034D01*
X233111Y241168D01*
X233101Y241185D01*
X233095Y241204D01*
X233020Y241322D01*
X232950Y241442D01*
X232931Y241463D01*
X232924Y241473D01*
X232909Y241487D01*
X232843Y241562D01*
X231711Y242694D01*
X231711Y252958D01*
X232604Y253851D01*
X241868Y253851D01*
X242761Y252958D01*
X242761Y242694D01*
X241629Y241562D01*
X241544Y241453D01*
X241455Y241346D01*
X241446Y241327D01*
X241434Y241311D01*
X241379Y241184D01*
X241319Y241058D01*
X241316Y241038D01*
X241307Y241019D01*
X241286Y240881D01*
X241260Y240745D01*
X241261Y240725D01*
X241258Y240705D01*
X241271Y240566D01*
X241279Y240428D01*
X241286Y240409D01*
X241287Y240389D01*
X241335Y240257D01*
X241377Y240126D01*
X241388Y240108D01*
X241395Y240089D01*
X241473Y239974D01*
X241548Y239857D01*
X241562Y239843D01*
X241574Y239826D01*
X241678Y239734D01*
X241779Y239639D01*
X241797Y239629D01*
X241812Y239616D01*
X241936Y239552D01*
X242058Y239485D01*
X242077Y239480D01*
X242095Y239471D01*
X242231Y239441D01*
X242366Y239406D01*
X242394Y239404D01*
X242406Y239401D01*
X242426Y239402D01*
X242526Y239396D01*
X243710Y239396D01*
X244603Y238503D01*
X244603Y218189D01*
X243710Y217296D01*
X240665Y217296D01*
X240547Y217281D01*
X240428Y217274D01*
X240390Y217261D01*
X240349Y217256D01*
X240239Y217213D01*
X240126Y217176D01*
X240091Y217154D01*
X240054Y217139D01*
X239958Y217070D01*
X239857Y217006D01*
X239829Y216976D01*
X239796Y216953D01*
X239720Y216861D01*
X239639Y216774D01*
X239619Y216739D01*
X239594Y216708D01*
X239543Y216600D01*
X239485Y216496D01*
X239475Y216456D01*
X239458Y216420D01*
X239436Y216303D01*
X239406Y216188D01*
X239402Y216128D01*
X239398Y216108D01*
X239400Y216087D01*
X239396Y216027D01*
X239396Y194186D01*
X238503Y193293D01*
X218189Y193293D01*
G37*
%LPD*%
%LPC*%
G36*
X44664Y374423D02*
X44664Y374423D01*
X42714Y375231D01*
X41221Y376724D01*
X40413Y378674D01*
X40413Y380800D01*
X40436Y380903D01*
X40471Y381028D01*
X40471Y381057D01*
X40478Y381086D01*
X40474Y381216D01*
X40476Y381346D01*
X40469Y381375D01*
X40468Y381404D01*
X40432Y381529D01*
X40402Y381655D01*
X40388Y381681D01*
X40379Y381710D01*
X40314Y381822D01*
X40253Y381936D01*
X40233Y381958D01*
X40218Y381984D01*
X40112Y382105D01*
X33833Y388384D01*
X33754Y388444D01*
X33682Y388512D01*
X33629Y388541D01*
X33581Y388578D01*
X33490Y388618D01*
X33404Y388666D01*
X33345Y388681D01*
X33289Y388705D01*
X33191Y388720D01*
X33096Y388745D01*
X32996Y388751D01*
X32975Y388755D01*
X32963Y388753D01*
X32935Y388755D01*
X23898Y388755D01*
X23005Y389648D01*
X23005Y420912D01*
X23898Y421805D01*
X43162Y421805D01*
X44055Y420912D01*
X44055Y389648D01*
X43162Y388755D01*
X42993Y388755D01*
X42855Y388738D01*
X42717Y388725D01*
X42697Y388718D01*
X42677Y388715D01*
X42548Y388664D01*
X42417Y388617D01*
X42400Y388606D01*
X42382Y388598D01*
X42269Y388517D01*
X42154Y388439D01*
X42141Y388423D01*
X42124Y388412D01*
X42035Y388304D01*
X41944Y388200D01*
X41934Y388182D01*
X41922Y388167D01*
X41862Y388041D01*
X41799Y387917D01*
X41795Y387897D01*
X41786Y387879D01*
X41760Y387743D01*
X41729Y387607D01*
X41730Y387586D01*
X41726Y387567D01*
X41735Y387428D01*
X41739Y387289D01*
X41745Y387269D01*
X41746Y387249D01*
X41789Y387117D01*
X41827Y386983D01*
X41838Y386966D01*
X41844Y386947D01*
X41918Y386829D01*
X41989Y386709D01*
X42008Y386688D01*
X42014Y386678D01*
X42029Y386664D01*
X42095Y386589D01*
X43345Y385338D01*
X43369Y385320D01*
X43388Y385298D01*
X43494Y385223D01*
X43597Y385144D01*
X43624Y385132D01*
X43648Y385115D01*
X43769Y385069D01*
X43889Y385017D01*
X43918Y385013D01*
X43946Y385002D01*
X44074Y384988D01*
X44203Y384967D01*
X44232Y384970D01*
X44262Y384967D01*
X44390Y384985D01*
X44519Y384997D01*
X44547Y385007D01*
X44576Y385011D01*
X44651Y385037D01*
X46776Y385037D01*
X48726Y384229D01*
X50219Y382736D01*
X51027Y380786D01*
X51027Y378674D01*
X50219Y376724D01*
X48726Y375231D01*
X46776Y374423D01*
X44664Y374423D01*
G37*
%LPD*%
%LPC*%
G36*
X125498Y438755D02*
X125498Y438755D01*
X124605Y439648D01*
X124605Y470912D01*
X125498Y471805D01*
X144762Y471805D01*
X145655Y470912D01*
X145655Y439648D01*
X144762Y438755D01*
X125498Y438755D01*
G37*
%LPD*%
%LPC*%
G36*
X100098Y438755D02*
X100098Y438755D01*
X99205Y439648D01*
X99205Y470912D01*
X100098Y471805D01*
X119362Y471805D01*
X120255Y470912D01*
X120255Y439648D01*
X119362Y438755D01*
X100098Y438755D01*
G37*
%LPD*%
%LPC*%
G36*
X74698Y438755D02*
X74698Y438755D01*
X73805Y439648D01*
X73805Y470912D01*
X74698Y471805D01*
X93962Y471805D01*
X94855Y470912D01*
X94855Y439648D01*
X93962Y438755D01*
X74698Y438755D01*
G37*
%LPD*%
%LPC*%
G36*
X49298Y438755D02*
X49298Y438755D01*
X48405Y439648D01*
X48405Y470912D01*
X49298Y471805D01*
X68562Y471805D01*
X69455Y470912D01*
X69455Y439648D01*
X68562Y438755D01*
X49298Y438755D01*
G37*
%LPD*%
%LPC*%
G36*
X328698Y438755D02*
X328698Y438755D01*
X327805Y439648D01*
X327805Y470912D01*
X328698Y471805D01*
X347962Y471805D01*
X348855Y470912D01*
X348855Y439648D01*
X347962Y438755D01*
X328698Y438755D01*
G37*
%LPD*%
%LPC*%
G36*
X176298Y438755D02*
X176298Y438755D01*
X175405Y439648D01*
X175405Y470912D01*
X176298Y471805D01*
X195562Y471805D01*
X196455Y470912D01*
X196455Y439648D01*
X195562Y438755D01*
X176298Y438755D01*
G37*
%LPD*%
%LPC*%
G36*
X150898Y438755D02*
X150898Y438755D01*
X150005Y439648D01*
X150005Y470912D01*
X150898Y471805D01*
X170162Y471805D01*
X171055Y470912D01*
X171055Y439648D01*
X170162Y438755D01*
X150898Y438755D01*
G37*
%LPD*%
%LPC*%
G36*
X277898Y438755D02*
X277898Y438755D01*
X277005Y439648D01*
X277005Y470912D01*
X277898Y471805D01*
X297162Y471805D01*
X298055Y470912D01*
X298055Y439648D01*
X297162Y438755D01*
X277898Y438755D01*
G37*
%LPD*%
%LPC*%
G36*
X252498Y438755D02*
X252498Y438755D01*
X251605Y439648D01*
X251605Y470912D01*
X252498Y471805D01*
X271762Y471805D01*
X272655Y470912D01*
X272655Y439648D01*
X271762Y438755D01*
X252498Y438755D01*
G37*
%LPD*%
%LPC*%
G36*
X23898Y438755D02*
X23898Y438755D01*
X23005Y439648D01*
X23005Y470912D01*
X23898Y471805D01*
X43162Y471805D01*
X44055Y470912D01*
X44055Y439648D01*
X43162Y438755D01*
X23898Y438755D01*
G37*
%LPD*%
%LPC*%
G36*
X303298Y388755D02*
X303298Y388755D01*
X302405Y389648D01*
X302405Y420912D01*
X303298Y421805D01*
X322562Y421805D01*
X323455Y420912D01*
X323455Y389648D01*
X322562Y388755D01*
X303298Y388755D01*
G37*
%LPD*%
%LPC*%
G36*
X150898Y388755D02*
X150898Y388755D01*
X150005Y389648D01*
X150005Y420912D01*
X150898Y421805D01*
X170162Y421805D01*
X171055Y420912D01*
X171055Y389648D01*
X170162Y388755D01*
X150898Y388755D01*
G37*
%LPD*%
%LPC*%
G36*
X354098Y388755D02*
X354098Y388755D01*
X353205Y389648D01*
X353205Y420912D01*
X354098Y421805D01*
X373362Y421805D01*
X374255Y420912D01*
X374255Y389648D01*
X373362Y388755D01*
X354098Y388755D01*
G37*
%LPD*%
%LPC*%
G36*
X125498Y388755D02*
X125498Y388755D01*
X124605Y389648D01*
X124605Y420912D01*
X125498Y421805D01*
X144762Y421805D01*
X145655Y420912D01*
X145655Y389648D01*
X144762Y388755D01*
X125498Y388755D01*
G37*
%LPD*%
%LPC*%
G36*
X100098Y388755D02*
X100098Y388755D01*
X99205Y389648D01*
X99205Y420912D01*
X100098Y421805D01*
X119362Y421805D01*
X120255Y420912D01*
X120255Y389648D01*
X119362Y388755D01*
X100098Y388755D01*
G37*
%LPD*%
%LPC*%
G36*
X176298Y388755D02*
X176298Y388755D01*
X175405Y389648D01*
X175405Y420912D01*
X176298Y421805D01*
X195562Y421805D01*
X196455Y420912D01*
X196455Y389648D01*
X195562Y388755D01*
X176298Y388755D01*
G37*
%LPD*%
%LPC*%
G36*
X74698Y388755D02*
X74698Y388755D01*
X73805Y389648D01*
X73805Y420912D01*
X74698Y421805D01*
X93962Y421805D01*
X94855Y420912D01*
X94855Y389648D01*
X93962Y388755D01*
X74698Y388755D01*
G37*
%LPD*%
%LPC*%
G36*
X49298Y388755D02*
X49298Y388755D01*
X48405Y389648D01*
X48405Y420912D01*
X49298Y421805D01*
X68562Y421805D01*
X69455Y420912D01*
X69455Y389648D01*
X68562Y388755D01*
X49298Y388755D01*
G37*
%LPD*%
%LPC*%
G36*
X354098Y438755D02*
X354098Y438755D01*
X353205Y439648D01*
X353205Y470912D01*
X354098Y471805D01*
X373362Y471805D01*
X374255Y470912D01*
X374255Y439648D01*
X373362Y438755D01*
X354098Y438755D01*
G37*
%LPD*%
%LPC*%
G36*
X262766Y217296D02*
X262766Y217296D01*
X261873Y218189D01*
X261873Y238503D01*
X262766Y239396D01*
X276730Y239396D01*
X277882Y238243D01*
X277976Y238170D01*
X278065Y238091D01*
X278102Y238073D01*
X278133Y238048D01*
X278243Y238001D01*
X278349Y237947D01*
X278388Y237938D01*
X278425Y237922D01*
X278543Y237903D01*
X278659Y237877D01*
X278699Y237878D01*
X278739Y237872D01*
X278858Y237883D01*
X278977Y237887D01*
X279016Y237898D01*
X279056Y237902D01*
X279168Y237942D01*
X279282Y237975D01*
X279317Y237996D01*
X279355Y238009D01*
X279454Y238076D01*
X279556Y238137D01*
X279602Y238177D01*
X279618Y238188D01*
X279632Y238203D01*
X279677Y238243D01*
X280222Y238788D01*
X281996Y239523D01*
X283916Y239523D01*
X285690Y238788D01*
X287048Y237430D01*
X287783Y235656D01*
X287783Y233736D01*
X287048Y231962D01*
X285690Y230604D01*
X283916Y229869D01*
X282428Y229869D01*
X282330Y229857D01*
X282231Y229854D01*
X282172Y229837D01*
X282112Y229829D01*
X282020Y229793D01*
X281925Y229765D01*
X281873Y229735D01*
X281817Y229712D01*
X281737Y229654D01*
X281651Y229604D01*
X281576Y229538D01*
X281559Y229526D01*
X281551Y229516D01*
X281530Y229498D01*
X277994Y225962D01*
X277934Y225883D01*
X277866Y225811D01*
X277837Y225758D01*
X277800Y225710D01*
X277760Y225620D01*
X277712Y225533D01*
X277697Y225474D01*
X277673Y225419D01*
X277658Y225321D01*
X277633Y225225D01*
X277627Y225125D01*
X277623Y225105D01*
X277625Y225092D01*
X277623Y225064D01*
X277623Y218189D01*
X276730Y217296D01*
X262766Y217296D01*
G37*
%LPD*%
%LPC*%
G36*
X10669Y457819D02*
X10669Y457819D01*
X10669Y472821D01*
X17464Y472821D01*
X18111Y472648D01*
X18690Y472313D01*
X19163Y471840D01*
X19498Y471261D01*
X19671Y470614D01*
X19671Y457819D01*
X10669Y457819D01*
G37*
%LPD*%
%LPC*%
G36*
X10669Y437739D02*
X10669Y437739D01*
X10669Y452741D01*
X19671Y452741D01*
X19671Y439946D01*
X19498Y439299D01*
X19163Y438720D01*
X18690Y438247D01*
X18111Y437912D01*
X17464Y437739D01*
X10669Y437739D01*
G37*
%LPD*%
%LPC*%
G36*
X-3411Y457819D02*
X-3411Y457819D01*
X-3411Y470614D01*
X-3238Y471261D01*
X-2903Y471840D01*
X-2430Y472313D01*
X-1851Y472648D01*
X-1204Y472821D01*
X5591Y472821D01*
X5591Y457819D01*
X-3411Y457819D01*
G37*
%LPD*%
%LPC*%
G36*
X-1204Y437739D02*
X-1204Y437739D01*
X-1851Y437912D01*
X-2430Y438247D01*
X-2903Y438720D01*
X-3238Y439299D01*
X-3411Y439946D01*
X-3411Y452741D01*
X5591Y452741D01*
X5591Y437739D01*
X-1204Y437739D01*
G37*
%LPD*%
%LPC*%
G36*
X194524Y37873D02*
X194524Y37873D01*
X192574Y38681D01*
X191081Y40174D01*
X190273Y42124D01*
X190273Y44236D01*
X191081Y46186D01*
X192574Y47679D01*
X194524Y48487D01*
X196636Y48487D01*
X198586Y47679D01*
X200079Y46186D01*
X200887Y44236D01*
X200887Y42124D01*
X200079Y40174D01*
X198586Y38681D01*
X196636Y37873D01*
X194524Y37873D01*
G37*
%LPD*%
%LPC*%
G36*
X326446Y256539D02*
X326446Y256539D01*
X324672Y257274D01*
X323314Y258632D01*
X322579Y260406D01*
X322579Y262326D01*
X323314Y264100D01*
X324672Y265458D01*
X326446Y266193D01*
X328366Y266193D01*
X330140Y265458D01*
X331498Y264100D01*
X332233Y262326D01*
X332233Y260406D01*
X331498Y258632D01*
X330140Y257274D01*
X328366Y256539D01*
X326446Y256539D01*
G37*
%LPD*%
%LPC*%
G36*
X192277Y289305D02*
X192277Y289305D01*
X192277Y298832D01*
X196422Y298832D01*
X197069Y298659D01*
X197648Y298324D01*
X198121Y297851D01*
X198456Y297272D01*
X198629Y296625D01*
X198629Y289305D01*
X192277Y289305D01*
G37*
%LPD*%
%LPC*%
G36*
X230885Y170687D02*
X230885Y170687D01*
X230885Y177039D01*
X238205Y177039D01*
X238852Y176866D01*
X239431Y176531D01*
X239904Y176058D01*
X240239Y175479D01*
X240412Y174832D01*
X240412Y170687D01*
X230885Y170687D01*
G37*
%LPD*%
%LPC*%
G36*
X316737Y352805D02*
X316737Y352805D01*
X316737Y362332D01*
X320882Y362332D01*
X321529Y362159D01*
X322108Y361824D01*
X322581Y361351D01*
X322916Y360772D01*
X323089Y360125D01*
X323089Y352805D01*
X316737Y352805D01*
G37*
%LPD*%
%LPC*%
G36*
X305307Y352805D02*
X305307Y352805D01*
X305307Y360125D01*
X305480Y360772D01*
X305815Y361351D01*
X306288Y361824D01*
X306867Y362159D01*
X307514Y362332D01*
X311659Y362332D01*
X311659Y352805D01*
X305307Y352805D01*
G37*
%LPD*%
%LPC*%
G36*
X180847Y289305D02*
X180847Y289305D01*
X180847Y296625D01*
X181020Y297272D01*
X181355Y297851D01*
X181828Y298324D01*
X182407Y298659D01*
X183054Y298832D01*
X187199Y298832D01*
X187199Y289305D01*
X180847Y289305D01*
G37*
%LPD*%
%LPC*%
G36*
X230885Y165609D02*
X230885Y165609D01*
X240412Y165609D01*
X240412Y161464D01*
X240239Y160817D01*
X239904Y160238D01*
X239431Y159765D01*
X238852Y159430D01*
X238205Y159257D01*
X230885Y159257D01*
X230885Y165609D01*
G37*
%LPD*%
%LPC*%
G36*
X316737Y338200D02*
X316737Y338200D01*
X316737Y347727D01*
X323089Y347727D01*
X323089Y340407D01*
X322916Y339760D01*
X322581Y339181D01*
X322108Y338708D01*
X321529Y338373D01*
X320882Y338200D01*
X316737Y338200D01*
G37*
%LPD*%
%LPC*%
G36*
X192277Y274700D02*
X192277Y274700D01*
X192277Y284227D01*
X198629Y284227D01*
X198629Y276907D01*
X198456Y276260D01*
X198121Y275681D01*
X197648Y275208D01*
X197069Y274873D01*
X196422Y274700D01*
X192277Y274700D01*
G37*
%LPD*%
%LPC*%
G36*
X216280Y170687D02*
X216280Y170687D01*
X216280Y174832D01*
X216453Y175479D01*
X216788Y176058D01*
X217261Y176531D01*
X217840Y176866D01*
X218487Y177039D01*
X225807Y177039D01*
X225807Y170687D01*
X216280Y170687D01*
G37*
%LPD*%
%LPC*%
G36*
X307514Y338200D02*
X307514Y338200D01*
X306867Y338373D01*
X306288Y338708D01*
X305815Y339181D01*
X305480Y339760D01*
X305307Y340407D01*
X305307Y347727D01*
X311659Y347727D01*
X311659Y338200D01*
X307514Y338200D01*
G37*
%LPD*%
%LPC*%
G36*
X183054Y274700D02*
X183054Y274700D01*
X182407Y274873D01*
X181828Y275208D01*
X181355Y275681D01*
X181020Y276260D01*
X180847Y276907D01*
X180847Y284227D01*
X187199Y284227D01*
X187199Y274700D01*
X183054Y274700D01*
G37*
%LPD*%
%LPC*%
G36*
X218487Y159257D02*
X218487Y159257D01*
X217840Y159430D01*
X217261Y159765D01*
X216788Y160238D01*
X216453Y160817D01*
X216280Y161464D01*
X216280Y165609D01*
X225807Y165609D01*
X225807Y159257D01*
X218487Y159257D01*
G37*
%LPD*%
%LPC*%
G36*
X229735Y261785D02*
X229735Y261785D01*
X229735Y266827D01*
X234277Y266827D01*
X234277Y263992D01*
X234104Y263345D01*
X233769Y262766D01*
X233296Y262293D01*
X232717Y261958D01*
X232070Y261785D01*
X229735Y261785D01*
G37*
%LPD*%
%LPC*%
G36*
X223402Y261785D02*
X223402Y261785D01*
X222755Y261958D01*
X222176Y262293D01*
X221703Y262766D01*
X221368Y263345D01*
X221195Y263992D01*
X221195Y266827D01*
X225737Y266827D01*
X225737Y261785D01*
X223402Y261785D01*
G37*
%LPD*%
%LPC*%
G36*
X314197Y350265D02*
X314197Y350265D01*
X314197Y350267D01*
X314199Y350267D01*
X314199Y350265D01*
X314197Y350265D01*
G37*
%LPD*%
%LPC*%
G36*
X189737Y286765D02*
X189737Y286765D01*
X189737Y286767D01*
X189739Y286767D01*
X189739Y286765D01*
X189737Y286765D01*
G37*
%LPD*%
%LPC*%
G36*
X8129Y455279D02*
X8129Y455279D01*
X8129Y455281D01*
X8131Y455281D01*
X8131Y455279D01*
X8129Y455279D01*
G37*
%LPD*%
%LPC*%
G36*
X228345Y168147D02*
X228345Y168147D01*
X228345Y168149D01*
X228347Y168149D01*
X228347Y168147D01*
X228345Y168147D01*
G37*
%LPD*%
D10*
X8130Y405280D03*
X8130Y455280D03*
X33530Y405280D03*
X33530Y455280D03*
X58930Y405280D03*
X58930Y455280D03*
X84330Y405280D03*
X84330Y455280D03*
X109730Y405280D03*
X109730Y455280D03*
X135130Y405280D03*
X135130Y455280D03*
X160530Y405280D03*
X160530Y455280D03*
X185930Y405280D03*
X185930Y455280D03*
X211330Y405280D03*
X211330Y455280D03*
X236730Y405280D03*
X236730Y455280D03*
X262130Y405280D03*
X262130Y455280D03*
X287530Y405280D03*
X287530Y455280D03*
X312930Y405280D03*
X312930Y455280D03*
X338330Y405280D03*
X338330Y455280D03*
X363730Y405280D03*
X363730Y455280D03*
D11*
X280670Y39150D03*
X280670Y74650D03*
X293370Y39150D03*
X293370Y74650D03*
X306070Y39150D03*
X306070Y74650D03*
X318770Y39150D03*
X318770Y74650D03*
X331470Y39150D03*
X331470Y74650D03*
D12*
X281178Y350266D03*
X314198Y350266D03*
D13*
X246736Y268826D03*
X227736Y268826D03*
X237236Y247826D03*
D14*
X228346Y168148D03*
X228346Y201168D03*
X244856Y320294D03*
X244856Y287274D03*
D12*
X189738Y286766D03*
X222758Y286766D03*
X236728Y228346D03*
X269748Y228346D03*
D15*
X204470Y114300D02*
X33020Y285750D01*
X33020Y345440D01*
X7617Y455279D02*
X3155Y455275D01*
X7617Y455279D02*
X8130Y455280D01*
X204470Y114300D02*
X264160Y114300D01*
X290830Y114300D01*
X318770Y86360D01*
X318770Y74650D01*
X318770Y39150D01*
D16*
X233680Y72390D03*
D17*
X264160Y102870D01*
X264160Y114300D01*
D16*
X33020Y345440D03*
X6350Y431800D03*
D17*
X6350Y454013D01*
X7617Y455279D01*
X189738Y286766D02*
X207678Y268826D01*
X227736Y268826D01*
X189738Y286766D02*
X189738Y192532D01*
X214122Y168148D02*
X228346Y168148D01*
X214122Y168148D02*
X189738Y192532D01*
X314198Y326390D02*
X314198Y350266D01*
X314198Y326390D02*
X314198Y221488D01*
X260858Y168148D02*
X228346Y168148D01*
X260858Y168148D02*
X314198Y221488D01*
D16*
X314198Y326390D03*
X143510Y55880D03*
X151130Y250190D03*
X160020Y337820D03*
X114300Y361950D03*
X198120Y346710D03*
X53340Y262890D03*
X67310Y196850D03*
X25400Y120650D03*
X85090Y20320D03*
X44450Y17780D03*
X27940Y44450D03*
X321310Y191770D03*
X278130Y170180D03*
X290830Y300990D03*
X353060Y111760D03*
D15*
X210979Y123190D02*
X80010Y254159D01*
X80010Y323850D01*
X210979Y123190D02*
X328930Y123190D01*
X358140Y93980D01*
X358140Y25400D01*
X350520Y17780D02*
X293370Y17780D01*
X293370Y39150D01*
X350520Y17780D02*
X358140Y25400D01*
D17*
X80010Y323850D02*
X85090Y328930D01*
X84455Y329565D01*
D16*
X84455Y329565D03*
X45720Y379730D03*
D17*
X33530Y391920D01*
X33530Y405280D01*
D15*
X370840Y115570D02*
X370840Y17780D01*
X360680Y7620D01*
X281940Y7620D01*
X281940Y37878D01*
X280670Y39150D01*
X13970Y399434D02*
X8130Y405280D01*
X13970Y399434D02*
X13970Y387350D01*
X57150Y344170D02*
X97790Y344170D01*
X57150Y344170D02*
X13970Y387350D01*
D17*
X355600Y130810D02*
X370840Y115570D01*
X99060Y342900D02*
X97790Y344170D01*
X222250Y130810D02*
X355600Y130810D01*
X222250Y130810D02*
X99060Y254000D01*
X99060Y342900D01*
D15*
X331470Y74650D02*
X331470Y52070D01*
D16*
X335280Y96520D03*
D15*
X331470Y52070D02*
X331470Y39150D01*
D17*
X331470Y92710D02*
X335280Y96520D01*
X331470Y92710D02*
X331470Y74650D01*
D16*
X337820Y427990D03*
D17*
X338330Y427480D01*
X338330Y406400D01*
X338330Y405280D01*
D16*
X280670Y374650D03*
D17*
X322580Y374650D02*
X337820Y389890D01*
X322580Y374650D02*
X280670Y374650D01*
X337820Y405890D02*
X338330Y406400D01*
X337820Y405890D02*
X337820Y389890D01*
X281178Y374142D02*
X280670Y374650D01*
X281178Y374142D02*
X281178Y350266D01*
D16*
X128270Y118110D03*
D17*
X128270Y144780D01*
X123190Y149860D01*
D16*
X73660Y149860D03*
D17*
X123190Y149860D01*
X123190Y161290D01*
X124460Y162560D01*
D16*
X124460Y162560D03*
X212090Y427990D03*
D17*
X212090Y454514D01*
X211330Y455280D01*
D16*
X120650Y143510D03*
D17*
X120650Y111760D01*
X115570Y106680D01*
D16*
X115570Y106680D03*
D17*
X119380Y110490D01*
X138430Y110490D01*
X148590Y120650D01*
D16*
X148590Y156210D03*
D17*
X148590Y120650D01*
D16*
X212090Y378460D03*
D17*
X211329Y377699D02*
X211330Y405280D01*
X212090Y378460D02*
X211329Y377699D01*
D16*
X88900Y124460D03*
D17*
X88900Y111760D01*
X102870Y97790D01*
X165100Y97790D02*
X166370Y99060D01*
D16*
X166370Y99060D03*
D17*
X165100Y97790D02*
X102870Y97790D01*
D16*
X256286Y337566D03*
D17*
X236730Y357122D01*
X236730Y405280D01*
D18*
X327406Y261366D03*
D16*
X242570Y429260D03*
D17*
X242570Y449440D01*
X236730Y455280D01*
D19*
X237236Y247826D02*
X237236Y228394D01*
X236728Y228346D01*
X236728Y209550D02*
X228346Y201168D01*
X236728Y209550D02*
X236728Y228346D01*
X246736Y268826D02*
X246736Y293196D01*
X244856Y287274D01*
D17*
X223266Y287274D01*
X222758Y286766D01*
D19*
X269748Y228346D02*
X276606Y228346D01*
X282956Y234696D01*
D18*
X282956Y234696D03*
D17*
X259334Y320294D02*
X244856Y320294D01*
X259334Y320294D02*
X264160Y325120D01*
X274686Y390603D02*
X274686Y422006D01*
X274686Y390603D02*
X264160Y380077D01*
X283210Y430530D02*
X300990Y430530D01*
X312930Y442470D01*
X312930Y455280D01*
X264160Y380077D02*
X264160Y325120D01*
X274686Y422006D02*
X283210Y430530D01*
D16*
X195580Y43180D03*
M02*
