G04 EAGLE Gerber RS-274X export*
G75*
%MOMM*%
%FSLAX34Y34*%
%LPD*%
%INBottom Copper*%
%IPPOS*%
%AMOC8*
5,1,8,0,0,1.08239X$1,22.5*%
G01*
%ADD10R,1.000000X1.700000*%
%ADD11R,0.600000X0.250000*%
%ADD12R,1.400000X1.800000*%
%ADD13R,1.600000X1.300000*%
%ADD14R,1.300000X1.600000*%
%ADD15R,1.905000X1.270000*%
%ADD16R,2.000000X0.700000*%
%ADD17R,0.700000X2.000000*%
%ADD18C,0.152400*%
%ADD19C,0.756400*%
%ADD20C,0.228600*%
%ADD21C,0.660400*%

G36*
X122038Y3826D02*
X122038Y3826D01*
X122157Y3833D01*
X122195Y3846D01*
X122236Y3851D01*
X122346Y3894D01*
X122459Y3931D01*
X122494Y3953D01*
X122531Y3968D01*
X122627Y4037D01*
X122728Y4101D01*
X122756Y4131D01*
X122789Y4154D01*
X122865Y4246D01*
X122946Y4333D01*
X122966Y4368D01*
X122991Y4399D01*
X123042Y4507D01*
X123100Y4611D01*
X123110Y4651D01*
X123127Y4687D01*
X123149Y4804D01*
X123179Y4919D01*
X123183Y4979D01*
X123187Y4999D01*
X123185Y5020D01*
X123189Y5080D01*
X123189Y24078D01*
X125422Y26311D01*
X236578Y26311D01*
X238811Y24078D01*
X238811Y5080D01*
X238826Y4962D01*
X238833Y4843D01*
X238846Y4805D01*
X238851Y4764D01*
X238894Y4654D01*
X238931Y4541D01*
X238953Y4506D01*
X238968Y4469D01*
X239037Y4373D01*
X239101Y4272D01*
X239131Y4244D01*
X239154Y4211D01*
X239246Y4135D01*
X239333Y4054D01*
X239368Y4034D01*
X239399Y4009D01*
X239507Y3958D01*
X239611Y3900D01*
X239651Y3890D01*
X239687Y3873D01*
X239804Y3851D01*
X239919Y3821D01*
X239979Y3817D01*
X239999Y3813D01*
X240020Y3815D01*
X240080Y3811D01*
X371920Y3811D01*
X372038Y3826D01*
X372157Y3833D01*
X372195Y3846D01*
X372236Y3851D01*
X372346Y3894D01*
X372459Y3931D01*
X372494Y3953D01*
X372531Y3968D01*
X372627Y4037D01*
X372728Y4101D01*
X372756Y4131D01*
X372789Y4154D01*
X372865Y4246D01*
X372946Y4333D01*
X372966Y4368D01*
X372991Y4399D01*
X373042Y4507D01*
X373100Y4611D01*
X373110Y4651D01*
X373127Y4687D01*
X373149Y4804D01*
X373179Y4919D01*
X373183Y4979D01*
X373187Y4999D01*
X373185Y5020D01*
X373189Y5080D01*
X373189Y136920D01*
X373174Y137038D01*
X373167Y137157D01*
X373154Y137195D01*
X373149Y137236D01*
X373106Y137346D01*
X373069Y137459D01*
X373047Y137494D01*
X373032Y137531D01*
X372963Y137627D01*
X372899Y137728D01*
X372869Y137756D01*
X372846Y137789D01*
X372754Y137865D01*
X372667Y137946D01*
X372632Y137966D01*
X372601Y137991D01*
X372493Y138042D01*
X372389Y138100D01*
X372349Y138110D01*
X372313Y138127D01*
X372196Y138149D01*
X372081Y138179D01*
X372021Y138183D01*
X372001Y138187D01*
X371980Y138185D01*
X371920Y138189D01*
X352922Y138189D01*
X350689Y140422D01*
X350689Y249899D01*
X350689Y249900D01*
X350689Y249902D01*
X350473Y351218D01*
X350461Y351312D01*
X350458Y351406D01*
X350457Y351413D01*
X350468Y353307D01*
X350468Y353310D01*
X350468Y353318D01*
X350465Y354895D01*
X351586Y356002D01*
X351588Y356005D01*
X351594Y356010D01*
X352939Y357361D01*
X352959Y357373D01*
X353044Y357446D01*
X353058Y357457D01*
X353065Y357465D01*
X353081Y357479D01*
X373061Y377215D01*
X373063Y377217D01*
X373067Y377220D01*
X374181Y378334D01*
X375758Y378325D01*
X375761Y378325D01*
X375766Y378325D01*
X391920Y378325D01*
X392038Y378340D01*
X392157Y378347D01*
X392195Y378360D01*
X392236Y378365D01*
X392346Y378408D01*
X392459Y378445D01*
X392494Y378467D01*
X392531Y378482D01*
X392627Y378551D01*
X392728Y378615D01*
X392756Y378645D01*
X392789Y378668D01*
X392865Y378760D01*
X392946Y378847D01*
X392966Y378882D01*
X392991Y378913D01*
X393042Y379021D01*
X393100Y379125D01*
X393110Y379165D01*
X393127Y379201D01*
X393149Y379318D01*
X393179Y379433D01*
X393183Y379493D01*
X393187Y379513D01*
X393185Y379534D01*
X393189Y379594D01*
X393189Y486920D01*
X393174Y487038D01*
X393167Y487157D01*
X393154Y487195D01*
X393149Y487236D01*
X393106Y487346D01*
X393069Y487459D01*
X393047Y487494D01*
X393032Y487531D01*
X392963Y487627D01*
X392899Y487728D01*
X392869Y487756D01*
X392846Y487789D01*
X392754Y487865D01*
X392667Y487946D01*
X392632Y487966D01*
X392601Y487991D01*
X392493Y488042D01*
X392389Y488100D01*
X392349Y488110D01*
X392313Y488127D01*
X392196Y488149D01*
X392081Y488179D01*
X392021Y488183D01*
X392001Y488187D01*
X391980Y488185D01*
X391920Y488189D01*
X330909Y488189D01*
X330771Y488172D01*
X330633Y488159D01*
X330613Y488152D01*
X330593Y488149D01*
X330464Y488098D01*
X330333Y488051D01*
X330316Y488040D01*
X330298Y488032D01*
X330186Y487951D01*
X330070Y487873D01*
X330057Y487857D01*
X330040Y487846D01*
X329952Y487738D01*
X329860Y487634D01*
X329850Y487616D01*
X329838Y487601D01*
X329778Y487475D01*
X329715Y487351D01*
X329711Y487331D01*
X329702Y487313D01*
X329676Y487177D01*
X329645Y487041D01*
X329646Y487020D01*
X329642Y487001D01*
X329651Y486862D01*
X329655Y486723D01*
X329661Y486703D01*
X329662Y486683D01*
X329705Y486551D01*
X329743Y486417D01*
X329754Y486400D01*
X329760Y486381D01*
X329835Y486263D01*
X329905Y486143D01*
X329924Y486122D01*
X329930Y486112D01*
X329945Y486098D01*
X330011Y486023D01*
X340107Y475927D01*
X340107Y433635D01*
X340110Y433605D01*
X340108Y433576D01*
X340130Y433448D01*
X340147Y433319D01*
X340157Y433292D01*
X340163Y433263D01*
X340216Y433144D01*
X340264Y433024D01*
X340281Y433000D01*
X340293Y432973D01*
X340374Y432871D01*
X340450Y432766D01*
X340473Y432747D01*
X340492Y432724D01*
X340595Y432646D01*
X340695Y432563D01*
X340722Y432551D01*
X340746Y432533D01*
X340816Y432498D01*
X342319Y430996D01*
X343127Y429046D01*
X343127Y426934D01*
X342319Y424984D01*
X340826Y423491D01*
X338876Y422683D01*
X336764Y422683D01*
X334814Y423491D01*
X333321Y424984D01*
X332513Y426934D01*
X332513Y429046D01*
X333321Y430996D01*
X334824Y432499D01*
X334913Y432556D01*
X335026Y432620D01*
X335047Y432640D01*
X335072Y432656D01*
X335161Y432751D01*
X335254Y432841D01*
X335270Y432866D01*
X335290Y432888D01*
X335353Y433001D01*
X335421Y433112D01*
X335429Y433140D01*
X335444Y433166D01*
X335476Y433292D01*
X335514Y433416D01*
X335516Y433446D01*
X335523Y433474D01*
X335533Y433635D01*
X335533Y473507D01*
X335521Y473605D01*
X335518Y473704D01*
X335501Y473762D01*
X335493Y473823D01*
X335457Y473915D01*
X335429Y474010D01*
X335399Y474062D01*
X335376Y474118D01*
X335318Y474198D01*
X335268Y474284D01*
X335202Y474359D01*
X335190Y474376D01*
X335180Y474383D01*
X335162Y474405D01*
X328355Y481212D01*
X328276Y481272D01*
X328204Y481340D01*
X328151Y481369D01*
X328103Y481406D01*
X328012Y481446D01*
X327926Y481494D01*
X327867Y481509D01*
X327811Y481533D01*
X327713Y481548D01*
X327618Y481573D01*
X327518Y481579D01*
X327497Y481583D01*
X327485Y481581D01*
X327457Y481583D01*
X232613Y481583D01*
X232515Y481571D01*
X232416Y481568D01*
X232358Y481551D01*
X232297Y481543D01*
X232205Y481507D01*
X232110Y481479D01*
X232058Y481449D01*
X232002Y481426D01*
X231922Y481368D01*
X231836Y481318D01*
X231761Y481252D01*
X231744Y481240D01*
X231737Y481230D01*
X231715Y481212D01*
X223003Y472500D01*
X222943Y472421D01*
X222875Y472349D01*
X222846Y472296D01*
X222809Y472248D01*
X222769Y472157D01*
X222721Y472071D01*
X222706Y472012D01*
X222682Y471956D01*
X222667Y471858D01*
X222642Y471763D01*
X222636Y471663D01*
X222632Y471642D01*
X222634Y471630D01*
X222632Y471602D01*
X222632Y391998D01*
X222644Y391900D01*
X222647Y391801D01*
X222664Y391743D01*
X222672Y391682D01*
X222708Y391590D01*
X222736Y391495D01*
X222766Y391443D01*
X222789Y391387D01*
X222847Y391307D01*
X222897Y391221D01*
X222963Y391146D01*
X222975Y391129D01*
X222985Y391122D01*
X223003Y391100D01*
X230887Y383217D01*
X230887Y381323D01*
X215577Y366013D01*
X139903Y366013D01*
X139805Y366001D01*
X139706Y365998D01*
X139648Y365981D01*
X139587Y365973D01*
X139495Y365937D01*
X139400Y365909D01*
X139348Y365879D01*
X139292Y365856D01*
X139212Y365798D01*
X139126Y365748D01*
X139051Y365682D01*
X139034Y365670D01*
X139027Y365660D01*
X139005Y365642D01*
X128388Y355025D01*
X128328Y354946D01*
X128260Y354874D01*
X128235Y354829D01*
X128215Y354804D01*
X128210Y354794D01*
X128194Y354773D01*
X128154Y354682D01*
X128106Y354596D01*
X128094Y354549D01*
X128079Y354517D01*
X128076Y354503D01*
X128067Y354481D01*
X128052Y354383D01*
X128027Y354288D01*
X128023Y354223D01*
X128019Y354204D01*
X128020Y354186D01*
X128017Y354167D01*
X128019Y354155D01*
X128017Y354127D01*
X128017Y240233D01*
X128029Y240135D01*
X128032Y240036D01*
X128049Y239978D01*
X128057Y239917D01*
X128093Y239825D01*
X128121Y239730D01*
X128151Y239678D01*
X128174Y239622D01*
X128232Y239542D01*
X128282Y239456D01*
X128348Y239381D01*
X128360Y239364D01*
X128370Y239357D01*
X128388Y239335D01*
X226635Y141088D01*
X226714Y141028D01*
X226786Y140960D01*
X226839Y140931D01*
X226887Y140894D01*
X226978Y140854D01*
X227064Y140806D01*
X227123Y140791D01*
X227179Y140767D01*
X227277Y140752D01*
X227372Y140727D01*
X227472Y140721D01*
X227493Y140717D01*
X227505Y140719D01*
X227533Y140717D01*
X266377Y140717D01*
X302835Y104258D01*
X302914Y104198D01*
X302986Y104130D01*
X303039Y104101D01*
X303087Y104064D01*
X303178Y104024D01*
X303264Y103976D01*
X303323Y103961D01*
X303379Y103937D01*
X303477Y103922D01*
X303572Y103897D01*
X303672Y103891D01*
X303693Y103887D01*
X303705Y103889D01*
X303733Y103887D01*
X336227Y103887D01*
X337567Y102547D01*
X337567Y102165D01*
X337570Y102135D01*
X337568Y102106D01*
X337590Y101978D01*
X337607Y101849D01*
X337617Y101822D01*
X337623Y101793D01*
X337676Y101674D01*
X337724Y101554D01*
X337741Y101530D01*
X337753Y101503D01*
X337834Y101401D01*
X337910Y101296D01*
X337933Y101277D01*
X337952Y101254D01*
X338055Y101176D01*
X338155Y101093D01*
X338182Y101081D01*
X338206Y101063D01*
X338276Y101028D01*
X339779Y99526D01*
X340587Y97576D01*
X340587Y95464D01*
X339779Y93514D01*
X338286Y92021D01*
X336336Y91213D01*
X334224Y91213D01*
X332274Y92021D01*
X330781Y93514D01*
X329973Y95464D01*
X329973Y97584D01*
X329979Y97606D01*
X330000Y97651D01*
X330021Y97759D01*
X330050Y97865D01*
X330051Y97915D01*
X330060Y97964D01*
X330053Y98073D01*
X330055Y98183D01*
X330044Y98231D01*
X330040Y98281D01*
X330007Y98385D01*
X329981Y98492D01*
X329958Y98536D01*
X329942Y98583D01*
X329884Y98676D01*
X329832Y98773D01*
X329799Y98810D01*
X329772Y98852D01*
X329692Y98927D01*
X329618Y99009D01*
X329577Y99036D01*
X329541Y99070D01*
X329444Y99123D01*
X329353Y99183D01*
X329306Y99200D01*
X329262Y99224D01*
X329156Y99251D01*
X329052Y99287D01*
X329002Y99291D01*
X328954Y99303D01*
X328793Y99313D01*
X218643Y99313D01*
X218545Y99301D01*
X218446Y99298D01*
X218388Y99281D01*
X218327Y99273D01*
X218235Y99237D01*
X218140Y99209D01*
X218088Y99179D01*
X218032Y99156D01*
X217952Y99098D01*
X217866Y99048D01*
X217791Y98982D01*
X217774Y98970D01*
X217767Y98960D01*
X217745Y98942D01*
X203976Y85173D01*
X203916Y85094D01*
X203848Y85022D01*
X203819Y84969D01*
X203782Y84921D01*
X203742Y84830D01*
X203694Y84744D01*
X203679Y84685D01*
X203655Y84629D01*
X203640Y84531D01*
X203615Y84436D01*
X203609Y84336D01*
X203605Y84315D01*
X203607Y84303D01*
X203605Y84275D01*
X203605Y71378D01*
X202712Y70485D01*
X188448Y70485D01*
X187555Y71378D01*
X187555Y88794D01*
X187574Y88830D01*
X187583Y88870D01*
X187599Y88907D01*
X187617Y89024D01*
X187643Y89141D01*
X187642Y89181D01*
X187648Y89221D01*
X187637Y89339D01*
X187634Y89458D01*
X187623Y89497D01*
X187619Y89537D01*
X187578Y89650D01*
X187545Y89764D01*
X187525Y89799D01*
X187511Y89837D01*
X187444Y89935D01*
X187384Y90038D01*
X187344Y90083D01*
X187333Y90100D01*
X187317Y90113D01*
X187277Y90159D01*
X169605Y107832D01*
X169526Y107892D01*
X169454Y107960D01*
X169401Y107989D01*
X169353Y108026D01*
X169262Y108066D01*
X169176Y108114D01*
X169117Y108129D01*
X169061Y108153D01*
X168963Y108168D01*
X168868Y108193D01*
X168768Y108199D01*
X168747Y108203D01*
X168735Y108201D01*
X168707Y108203D01*
X167843Y108203D01*
X167745Y108191D01*
X167646Y108188D01*
X167588Y108171D01*
X167527Y108163D01*
X167435Y108127D01*
X167340Y108099D01*
X167288Y108069D01*
X167232Y108046D01*
X167152Y107988D01*
X167066Y107938D01*
X166991Y107872D01*
X166974Y107860D01*
X166967Y107850D01*
X166945Y107832D01*
X165647Y106533D01*
X165562Y106424D01*
X165474Y106317D01*
X165465Y106298D01*
X165452Y106282D01*
X165397Y106155D01*
X165338Y106029D01*
X165334Y106009D01*
X165326Y105990D01*
X165304Y105852D01*
X165278Y105716D01*
X165279Y105696D01*
X165276Y105676D01*
X165289Y105537D01*
X165298Y105399D01*
X165304Y105380D01*
X165306Y105360D01*
X165353Y105228D01*
X165396Y105097D01*
X165407Y105079D01*
X165414Y105060D01*
X165492Y104945D01*
X165566Y104828D01*
X165581Y104814D01*
X165592Y104797D01*
X165697Y104705D01*
X165798Y104610D01*
X165815Y104600D01*
X165831Y104587D01*
X165955Y104523D01*
X166076Y104456D01*
X166096Y104451D01*
X166114Y104442D01*
X166250Y104412D01*
X166384Y104377D01*
X166412Y104375D01*
X166424Y104372D01*
X166445Y104373D01*
X166545Y104367D01*
X167426Y104367D01*
X169376Y103559D01*
X170869Y102066D01*
X171677Y100116D01*
X171677Y98004D01*
X170869Y96054D01*
X169366Y94551D01*
X169277Y94494D01*
X169164Y94430D01*
X169143Y94410D01*
X169118Y94394D01*
X169029Y94299D01*
X168936Y94209D01*
X168920Y94184D01*
X168900Y94162D01*
X168837Y94049D01*
X168769Y93938D01*
X168761Y93910D01*
X168746Y93884D01*
X168714Y93758D01*
X168676Y93634D01*
X168674Y93604D01*
X168667Y93576D01*
X168657Y93415D01*
X168657Y90804D01*
X168672Y90686D01*
X168679Y90567D01*
X168692Y90529D01*
X168697Y90488D01*
X168740Y90378D01*
X168777Y90265D01*
X168799Y90230D01*
X168814Y90193D01*
X168883Y90097D01*
X168947Y89996D01*
X168977Y89968D01*
X169000Y89935D01*
X169092Y89859D01*
X169179Y89778D01*
X169214Y89758D01*
X169245Y89733D01*
X169353Y89682D01*
X169457Y89624D01*
X169497Y89614D01*
X169533Y89597D01*
X169650Y89575D01*
X169765Y89545D01*
X169825Y89541D01*
X169845Y89537D01*
X169866Y89539D01*
X169926Y89535D01*
X172232Y89535D01*
X173125Y88642D01*
X173125Y71378D01*
X172232Y70485D01*
X157968Y70485D01*
X157075Y71378D01*
X157075Y72418D01*
X157058Y72556D01*
X157045Y72694D01*
X157038Y72713D01*
X157035Y72733D01*
X156984Y72863D01*
X156937Y72994D01*
X156926Y73010D01*
X156918Y73029D01*
X156837Y73142D01*
X156759Y73257D01*
X156743Y73270D01*
X156732Y73286D01*
X156624Y73375D01*
X156520Y73467D01*
X156502Y73476D01*
X156487Y73489D01*
X156361Y73549D01*
X156237Y73612D01*
X156217Y73616D01*
X156199Y73625D01*
X156062Y73651D01*
X155927Y73681D01*
X155906Y73681D01*
X155887Y73685D01*
X155748Y73676D01*
X155609Y73672D01*
X155589Y73666D01*
X155569Y73665D01*
X155437Y73622D01*
X155303Y73583D01*
X155286Y73573D01*
X155267Y73567D01*
X155149Y73493D01*
X155029Y73422D01*
X155008Y73403D01*
X154998Y73397D01*
X154984Y73382D01*
X154908Y73315D01*
X154340Y72747D01*
X153761Y72412D01*
X153114Y72239D01*
X147319Y72239D01*
X147319Y80010D01*
X147304Y80128D01*
X147297Y80247D01*
X147284Y80285D01*
X147279Y80325D01*
X147235Y80436D01*
X147199Y80549D01*
X147177Y80584D01*
X147162Y80621D01*
X147092Y80717D01*
X147029Y80818D01*
X146999Y80846D01*
X146975Y80878D01*
X146884Y80954D01*
X146797Y81036D01*
X146762Y81055D01*
X146730Y81081D01*
X146623Y81132D01*
X146519Y81189D01*
X146479Y81200D01*
X146443Y81217D01*
X146326Y81239D01*
X146211Y81269D01*
X146150Y81273D01*
X146130Y81277D01*
X146110Y81275D01*
X146050Y81279D01*
X144779Y81279D01*
X144779Y81281D01*
X146050Y81281D01*
X146168Y81296D01*
X146287Y81303D01*
X146325Y81316D01*
X146365Y81321D01*
X146476Y81365D01*
X146589Y81401D01*
X146624Y81423D01*
X146661Y81438D01*
X146757Y81508D01*
X146858Y81571D01*
X146886Y81601D01*
X146918Y81625D01*
X146994Y81716D01*
X147076Y81803D01*
X147095Y81838D01*
X147121Y81870D01*
X147172Y81977D01*
X147229Y82081D01*
X147240Y82121D01*
X147257Y82157D01*
X147279Y82274D01*
X147309Y82389D01*
X147313Y82450D01*
X147317Y82470D01*
X147315Y82490D01*
X147319Y82550D01*
X147319Y90321D01*
X153114Y90321D01*
X153761Y90148D01*
X154340Y89813D01*
X154813Y89340D01*
X155070Y88896D01*
X155146Y88796D01*
X155216Y88691D01*
X155242Y88669D01*
X155262Y88642D01*
X155360Y88564D01*
X155455Y88481D01*
X155485Y88466D01*
X155511Y88445D01*
X155626Y88393D01*
X155738Y88336D01*
X155771Y88329D01*
X155802Y88315D01*
X155926Y88294D01*
X156048Y88267D01*
X156082Y88268D01*
X156115Y88262D01*
X156240Y88273D01*
X156366Y88276D01*
X156399Y88286D01*
X156432Y88289D01*
X156551Y88330D01*
X156672Y88365D01*
X156701Y88382D01*
X156732Y88393D01*
X156837Y88462D01*
X156946Y88526D01*
X156982Y88559D01*
X156997Y88569D01*
X157012Y88585D01*
X157066Y88633D01*
X157968Y89535D01*
X162814Y89535D01*
X162932Y89550D01*
X163051Y89557D01*
X163089Y89570D01*
X163130Y89575D01*
X163240Y89618D01*
X163353Y89655D01*
X163388Y89677D01*
X163425Y89692D01*
X163521Y89761D01*
X163622Y89825D01*
X163650Y89855D01*
X163683Y89878D01*
X163759Y89970D01*
X163840Y90057D01*
X163860Y90092D01*
X163885Y90123D01*
X163936Y90231D01*
X163994Y90335D01*
X164004Y90375D01*
X164021Y90411D01*
X164043Y90528D01*
X164073Y90643D01*
X164077Y90703D01*
X164081Y90723D01*
X164079Y90744D01*
X164083Y90804D01*
X164083Y93415D01*
X164080Y93445D01*
X164082Y93474D01*
X164060Y93602D01*
X164043Y93731D01*
X164033Y93758D01*
X164027Y93787D01*
X163974Y93906D01*
X163926Y94026D01*
X163909Y94050D01*
X163897Y94077D01*
X163816Y94179D01*
X163740Y94284D01*
X163717Y94303D01*
X163698Y94326D01*
X163595Y94404D01*
X163495Y94487D01*
X163468Y94499D01*
X163444Y94517D01*
X163374Y94552D01*
X161871Y96054D01*
X161063Y98004D01*
X161063Y98885D01*
X161046Y99023D01*
X161033Y99161D01*
X161026Y99181D01*
X161023Y99201D01*
X160972Y99329D01*
X160925Y99461D01*
X160914Y99478D01*
X160906Y99496D01*
X160825Y99609D01*
X160747Y99724D01*
X160731Y99737D01*
X160720Y99754D01*
X160612Y99842D01*
X160508Y99934D01*
X160490Y99944D01*
X160475Y99956D01*
X160349Y100016D01*
X160225Y100079D01*
X160205Y100083D01*
X160187Y100092D01*
X160051Y100118D01*
X159915Y100149D01*
X159894Y100148D01*
X159875Y100152D01*
X159736Y100143D01*
X159597Y100139D01*
X159577Y100133D01*
X159557Y100132D01*
X159425Y100089D01*
X159291Y100051D01*
X159274Y100040D01*
X159255Y100034D01*
X159137Y99959D01*
X159017Y99889D01*
X158996Y99870D01*
X158986Y99864D01*
X158972Y99849D01*
X158897Y99783D01*
X154617Y95503D01*
X136213Y95503D01*
X134502Y97214D01*
X134502Y97215D01*
X123043Y108673D01*
X122934Y108758D01*
X122827Y108846D01*
X122808Y108855D01*
X122792Y108868D01*
X122664Y108923D01*
X122539Y108982D01*
X122519Y108986D01*
X122500Y108994D01*
X122362Y109016D01*
X122226Y109042D01*
X122206Y109041D01*
X122186Y109044D01*
X122047Y109031D01*
X121909Y109022D01*
X121890Y109016D01*
X121870Y109014D01*
X121738Y108967D01*
X121607Y108924D01*
X121589Y108913D01*
X121570Y108906D01*
X121455Y108828D01*
X121338Y108754D01*
X121324Y108739D01*
X121307Y108728D01*
X121215Y108624D01*
X121120Y108522D01*
X121110Y108504D01*
X121097Y108489D01*
X121033Y108365D01*
X120966Y108244D01*
X120961Y108224D01*
X120952Y108206D01*
X120922Y108070D01*
X120887Y107936D01*
X120885Y107908D01*
X120882Y107896D01*
X120883Y107875D01*
X120877Y107775D01*
X120877Y105624D01*
X120069Y103674D01*
X118566Y102171D01*
X118477Y102114D01*
X118364Y102050D01*
X118343Y102030D01*
X118318Y102014D01*
X118229Y101919D01*
X118136Y101829D01*
X118120Y101804D01*
X118100Y101782D01*
X118037Y101669D01*
X117969Y101558D01*
X117961Y101530D01*
X117946Y101504D01*
X117914Y101378D01*
X117876Y101254D01*
X117874Y101224D01*
X117867Y101196D01*
X117857Y101035D01*
X117857Y90804D01*
X117872Y90686D01*
X117879Y90567D01*
X117892Y90529D01*
X117897Y90488D01*
X117940Y90378D01*
X117977Y90265D01*
X117999Y90230D01*
X118014Y90193D01*
X118083Y90097D01*
X118147Y89996D01*
X118177Y89968D01*
X118200Y89935D01*
X118292Y89859D01*
X118379Y89778D01*
X118414Y89758D01*
X118445Y89733D01*
X118553Y89682D01*
X118657Y89624D01*
X118697Y89614D01*
X118733Y89597D01*
X118850Y89575D01*
X118965Y89545D01*
X119025Y89541D01*
X119045Y89537D01*
X119066Y89539D01*
X119126Y89535D01*
X123972Y89535D01*
X124865Y88642D01*
X124865Y71378D01*
X123972Y70485D01*
X109708Y70485D01*
X108815Y71378D01*
X108815Y88642D01*
X109708Y89535D01*
X112014Y89535D01*
X112132Y89550D01*
X112251Y89557D01*
X112289Y89570D01*
X112330Y89575D01*
X112440Y89618D01*
X112553Y89655D01*
X112588Y89677D01*
X112625Y89692D01*
X112721Y89761D01*
X112822Y89825D01*
X112850Y89855D01*
X112883Y89878D01*
X112959Y89970D01*
X113040Y90057D01*
X113060Y90092D01*
X113085Y90123D01*
X113136Y90231D01*
X113194Y90335D01*
X113204Y90375D01*
X113221Y90411D01*
X113243Y90528D01*
X113273Y90643D01*
X113277Y90703D01*
X113281Y90723D01*
X113279Y90744D01*
X113283Y90804D01*
X113283Y101035D01*
X113280Y101065D01*
X113282Y101094D01*
X113260Y101222D01*
X113243Y101351D01*
X113233Y101378D01*
X113227Y101407D01*
X113174Y101526D01*
X113126Y101646D01*
X113109Y101670D01*
X113097Y101697D01*
X113016Y101799D01*
X112940Y101904D01*
X112917Y101923D01*
X112898Y101946D01*
X112795Y102024D01*
X112695Y102107D01*
X112668Y102119D01*
X112644Y102137D01*
X112574Y102172D01*
X111071Y103674D01*
X110263Y105624D01*
X110263Y107736D01*
X111071Y109686D01*
X111232Y109846D01*
X111317Y109956D01*
X111406Y110063D01*
X111414Y110082D01*
X111427Y110098D01*
X111482Y110226D01*
X111541Y110351D01*
X111545Y110371D01*
X111553Y110390D01*
X111575Y110527D01*
X111601Y110664D01*
X111600Y110684D01*
X111603Y110704D01*
X111590Y110842D01*
X111581Y110981D01*
X111575Y111000D01*
X111573Y111020D01*
X111526Y111151D01*
X111483Y111283D01*
X111472Y111301D01*
X111465Y111320D01*
X111387Y111435D01*
X111313Y111552D01*
X111298Y111566D01*
X111287Y111583D01*
X111183Y111675D01*
X111081Y111770D01*
X111064Y111780D01*
X111048Y111793D01*
X110924Y111857D01*
X110803Y111924D01*
X110783Y111929D01*
X110765Y111938D01*
X110629Y111968D01*
X110495Y112003D01*
X110467Y112005D01*
X110455Y112008D01*
X110434Y112007D01*
X110334Y112013D01*
X98113Y112013D01*
X96782Y113344D01*
X96688Y113417D01*
X96599Y113495D01*
X96563Y113514D01*
X96531Y113539D01*
X96422Y113586D01*
X96316Y113640D01*
X96277Y113649D01*
X96239Y113665D01*
X96122Y113684D01*
X96006Y113710D01*
X95965Y113708D01*
X95925Y113715D01*
X95807Y113704D01*
X95688Y113700D01*
X95649Y113689D01*
X95609Y113685D01*
X95496Y113645D01*
X95382Y113612D01*
X95347Y113591D01*
X95309Y113577D01*
X95211Y113510D01*
X95108Y113450D01*
X95063Y113410D01*
X95046Y113399D01*
X95033Y113383D01*
X94987Y113344D01*
X89018Y107375D01*
X88958Y107296D01*
X88890Y107224D01*
X88861Y107171D01*
X88824Y107123D01*
X88784Y107032D01*
X88736Y106946D01*
X88721Y106887D01*
X88697Y106831D01*
X88682Y106733D01*
X88657Y106638D01*
X88651Y106538D01*
X88647Y106517D01*
X88649Y106505D01*
X88647Y106477D01*
X88647Y90804D01*
X88662Y90686D01*
X88669Y90567D01*
X88682Y90529D01*
X88687Y90488D01*
X88730Y90378D01*
X88767Y90265D01*
X88789Y90230D01*
X88804Y90193D01*
X88873Y90097D01*
X88937Y89996D01*
X88967Y89968D01*
X88990Y89935D01*
X89082Y89859D01*
X89169Y89778D01*
X89204Y89758D01*
X89235Y89733D01*
X89343Y89682D01*
X89447Y89624D01*
X89487Y89614D01*
X89523Y89597D01*
X89640Y89575D01*
X89755Y89545D01*
X89815Y89541D01*
X89835Y89537D01*
X89856Y89539D01*
X89916Y89535D01*
X93492Y89535D01*
X94385Y88642D01*
X94385Y71378D01*
X93492Y70485D01*
X79228Y70485D01*
X78335Y71378D01*
X78335Y88642D01*
X79228Y89535D01*
X82804Y89535D01*
X82922Y89550D01*
X83041Y89557D01*
X83079Y89570D01*
X83120Y89575D01*
X83230Y89618D01*
X83343Y89655D01*
X83378Y89677D01*
X83415Y89692D01*
X83511Y89761D01*
X83612Y89825D01*
X83640Y89855D01*
X83673Y89878D01*
X83749Y89970D01*
X83830Y90057D01*
X83850Y90092D01*
X83875Y90123D01*
X83926Y90231D01*
X83984Y90335D01*
X83994Y90375D01*
X84011Y90411D01*
X84033Y90528D01*
X84063Y90643D01*
X84067Y90703D01*
X84071Y90723D01*
X84069Y90744D01*
X84073Y90804D01*
X84073Y100584D01*
X84058Y100702D01*
X84051Y100821D01*
X84038Y100859D01*
X84033Y100900D01*
X83990Y101010D01*
X83953Y101123D01*
X83931Y101158D01*
X83916Y101195D01*
X83847Y101291D01*
X83783Y101392D01*
X83753Y101420D01*
X83730Y101453D01*
X83638Y101529D01*
X83551Y101610D01*
X83516Y101630D01*
X83485Y101655D01*
X83377Y101706D01*
X83273Y101764D01*
X83233Y101774D01*
X83197Y101791D01*
X83080Y101813D01*
X82965Y101843D01*
X82905Y101847D01*
X82885Y101851D01*
X82864Y101849D01*
X82804Y101853D01*
X79374Y101853D01*
X79256Y101838D01*
X79137Y101831D01*
X79099Y101818D01*
X79058Y101813D01*
X78948Y101770D01*
X78835Y101733D01*
X78800Y101711D01*
X78763Y101696D01*
X78667Y101627D01*
X78566Y101563D01*
X78538Y101533D01*
X78505Y101510D01*
X78429Y101418D01*
X78348Y101331D01*
X78328Y101296D01*
X78303Y101265D01*
X78252Y101157D01*
X78194Y101053D01*
X78184Y101013D01*
X78167Y100977D01*
X78145Y100860D01*
X78115Y100745D01*
X78111Y100685D01*
X78107Y100665D01*
X78109Y100644D01*
X78105Y100584D01*
X78105Y97008D01*
X77212Y96115D01*
X63045Y96115D01*
X62947Y96103D01*
X62848Y96100D01*
X62790Y96083D01*
X62729Y96075D01*
X62637Y96039D01*
X62542Y96011D01*
X62490Y95981D01*
X62434Y95958D01*
X62354Y95900D01*
X62268Y95850D01*
X62193Y95784D01*
X62176Y95772D01*
X62169Y95762D01*
X62147Y95744D01*
X53346Y86943D01*
X53286Y86864D01*
X53218Y86792D01*
X53189Y86739D01*
X53152Y86691D01*
X53112Y86600D01*
X53064Y86514D01*
X53049Y86455D01*
X53025Y86399D01*
X53010Y86301D01*
X52985Y86206D01*
X52979Y86106D01*
X52975Y86085D01*
X52977Y86073D01*
X52975Y86045D01*
X52975Y71648D01*
X52082Y70755D01*
X36818Y70755D01*
X35925Y71648D01*
X35925Y90912D01*
X36818Y91805D01*
X51215Y91805D01*
X51313Y91817D01*
X51412Y91820D01*
X51470Y91837D01*
X51531Y91845D01*
X51623Y91881D01*
X51718Y91909D01*
X51770Y91939D01*
X51826Y91962D01*
X51906Y92020D01*
X51992Y92070D01*
X52067Y92136D01*
X52084Y92148D01*
X52091Y92158D01*
X52113Y92176D01*
X58684Y98747D01*
X58744Y98826D01*
X58812Y98898D01*
X58841Y98951D01*
X58878Y98999D01*
X58918Y99090D01*
X58966Y99176D01*
X58981Y99235D01*
X59005Y99291D01*
X59020Y99389D01*
X59045Y99484D01*
X59051Y99584D01*
X59055Y99605D01*
X59053Y99617D01*
X59055Y99645D01*
X59055Y111272D01*
X59948Y112165D01*
X77212Y112165D01*
X78105Y111272D01*
X78105Y107696D01*
X78120Y107578D01*
X78127Y107459D01*
X78140Y107421D01*
X78145Y107380D01*
X78188Y107270D01*
X78225Y107157D01*
X78247Y107122D01*
X78262Y107085D01*
X78331Y106989D01*
X78395Y106888D01*
X78425Y106860D01*
X78448Y106827D01*
X78540Y106751D01*
X78627Y106670D01*
X78662Y106650D01*
X78693Y106625D01*
X78801Y106574D01*
X78905Y106516D01*
X78945Y106506D01*
X78981Y106489D01*
X79098Y106467D01*
X79213Y106437D01*
X79273Y106433D01*
X79293Y106429D01*
X79314Y106431D01*
X79374Y106427D01*
X82804Y106427D01*
X82922Y106442D01*
X83041Y106449D01*
X83079Y106462D01*
X83120Y106467D01*
X83230Y106510D01*
X83343Y106547D01*
X83378Y106569D01*
X83415Y106584D01*
X83511Y106653D01*
X83612Y106717D01*
X83640Y106747D01*
X83673Y106770D01*
X83749Y106862D01*
X83830Y106949D01*
X83850Y106984D01*
X83875Y107015D01*
X83926Y107123D01*
X83984Y107227D01*
X83994Y107267D01*
X84011Y107303D01*
X84033Y107420D01*
X84063Y107535D01*
X84067Y107595D01*
X84071Y107615D01*
X84069Y107636D01*
X84073Y107696D01*
X84073Y108897D01*
X85784Y110608D01*
X85785Y110608D01*
X92824Y117647D01*
X92884Y117726D01*
X92952Y117798D01*
X92981Y117851D01*
X93018Y117899D01*
X93058Y117990D01*
X93106Y118076D01*
X93121Y118135D01*
X93145Y118191D01*
X93160Y118289D01*
X93185Y118384D01*
X93191Y118484D01*
X93195Y118505D01*
X93193Y118517D01*
X93195Y118545D01*
X93195Y118596D01*
X93189Y118645D01*
X93191Y118695D01*
X93169Y118802D01*
X93155Y118911D01*
X93137Y118957D01*
X93127Y119006D01*
X93079Y119105D01*
X93038Y119207D01*
X93009Y119247D01*
X92987Y119292D01*
X92916Y119375D01*
X92852Y119464D01*
X92813Y119496D01*
X92781Y119534D01*
X92691Y119597D01*
X92607Y119667D01*
X92562Y119688D01*
X92521Y119717D01*
X92418Y119756D01*
X92319Y119803D01*
X92270Y119812D01*
X92224Y119830D01*
X92114Y119842D01*
X92007Y119862D01*
X91957Y119859D01*
X91908Y119865D01*
X91799Y119849D01*
X91689Y119843D01*
X91642Y119827D01*
X91593Y119820D01*
X91440Y119768D01*
X89956Y119153D01*
X87844Y119153D01*
X85894Y119961D01*
X84401Y121454D01*
X83593Y123404D01*
X83593Y125516D01*
X84401Y127466D01*
X85894Y128959D01*
X87844Y129767D01*
X89956Y129767D01*
X90424Y129573D01*
X90472Y129559D01*
X90517Y129538D01*
X90625Y129518D01*
X90731Y129489D01*
X90781Y129488D01*
X90830Y129479D01*
X90939Y129485D01*
X91049Y129484D01*
X91097Y129495D01*
X91147Y129498D01*
X91251Y129532D01*
X91358Y129558D01*
X91402Y129581D01*
X91449Y129596D01*
X91542Y129655D01*
X91639Y129706D01*
X91676Y129740D01*
X91718Y129766D01*
X91793Y129847D01*
X91875Y129920D01*
X91902Y129962D01*
X91936Y129998D01*
X91989Y130094D01*
X92049Y130186D01*
X92066Y130233D01*
X92090Y130277D01*
X92117Y130383D01*
X92153Y130487D01*
X92157Y130536D01*
X92169Y130585D01*
X92179Y130745D01*
X92179Y131084D01*
X92337Y131671D01*
X92349Y131763D01*
X92371Y131853D01*
X92371Y131898D01*
X92376Y131924D01*
X92374Y131948D01*
X92380Y131987D01*
X92369Y132078D01*
X92368Y132171D01*
X92357Y132226D01*
X92356Y132242D01*
X92350Y132260D01*
X92345Y132286D01*
X92343Y132302D01*
X92340Y132310D01*
X92337Y132329D01*
X92179Y132916D01*
X92179Y133231D01*
X93994Y133231D01*
X94068Y133240D01*
X94143Y133239D01*
X94302Y133268D01*
X94303Y133269D01*
X94306Y133270D01*
X94309Y133270D01*
X94310Y133271D01*
X94311Y133271D01*
X94454Y133327D01*
X94599Y133384D01*
X94603Y133386D01*
X94606Y133388D01*
X94729Y133477D01*
X94858Y133569D01*
X94860Y133572D01*
X94864Y133575D01*
X94961Y133692D01*
X95062Y133813D01*
X95064Y133816D01*
X95066Y133820D01*
X95132Y133959D01*
X95200Y134100D01*
X95200Y134104D01*
X95202Y134107D01*
X95231Y134259D01*
X95261Y134412D01*
X95261Y134416D01*
X95262Y134420D01*
X95252Y134574D01*
X95244Y134729D01*
X95242Y134733D01*
X95242Y134737D01*
X95195Y134884D01*
X95147Y135032D01*
X95145Y135036D01*
X95144Y135040D01*
X95061Y135170D01*
X94979Y135302D01*
X94976Y135305D01*
X94974Y135308D01*
X94862Y135414D01*
X94749Y135522D01*
X94745Y135523D01*
X94742Y135526D01*
X94607Y135601D01*
X94471Y135677D01*
X94467Y135678D01*
X94464Y135680D01*
X94314Y135718D01*
X94164Y135758D01*
X94160Y135758D01*
X94156Y135759D01*
X93995Y135769D01*
X92179Y135769D01*
X92179Y136084D01*
X92352Y136731D01*
X92687Y137310D01*
X93160Y137783D01*
X93739Y138118D01*
X94386Y138291D01*
X96451Y138291D01*
X96451Y134500D01*
X96451Y129500D01*
X96466Y129382D01*
X96473Y129263D01*
X96485Y129225D01*
X96490Y129185D01*
X96534Y129074D01*
X96571Y128961D01*
X96593Y128927D01*
X96607Y128889D01*
X96677Y128793D01*
X96741Y128692D01*
X96771Y128664D01*
X96794Y128632D01*
X96886Y128556D01*
X96973Y128474D01*
X97008Y128455D01*
X97039Y128429D01*
X97147Y128378D01*
X97251Y128321D01*
X97290Y128311D01*
X97327Y128293D01*
X97444Y128271D01*
X97559Y128241D01*
X97619Y128237D01*
X97639Y128234D01*
X97640Y128234D01*
X97660Y128235D01*
X97720Y128231D01*
X97838Y128246D01*
X97957Y128253D01*
X97995Y128266D01*
X98036Y128271D01*
X98146Y128315D01*
X98260Y128351D01*
X98294Y128373D01*
X98331Y128388D01*
X98428Y128458D01*
X98528Y128522D01*
X98556Y128551D01*
X98589Y128575D01*
X98665Y128667D01*
X98746Y128753D01*
X98766Y128789D01*
X98792Y128820D01*
X98842Y128927D01*
X98900Y129032D01*
X98910Y129071D01*
X98927Y129107D01*
X98949Y129224D01*
X98979Y129340D01*
X98983Y129400D01*
X98987Y129420D01*
X98986Y129440D01*
X98989Y129500D01*
X98989Y134500D01*
X98989Y138291D01*
X101054Y138291D01*
X101701Y138118D01*
X102052Y137915D01*
X102149Y137874D01*
X102243Y137825D01*
X102295Y137812D01*
X102345Y137792D01*
X102450Y137776D01*
X102553Y137752D01*
X102606Y137753D01*
X102660Y137745D01*
X102765Y137756D01*
X102871Y137758D01*
X102922Y137773D01*
X102976Y137778D01*
X103075Y137815D01*
X103177Y137843D01*
X103210Y137860D01*
X103886Y138041D01*
X106721Y138041D01*
X106721Y128230D01*
X106736Y128112D01*
X106743Y127993D01*
X106755Y127955D01*
X106761Y127915D01*
X106804Y127804D01*
X106841Y127691D01*
X106863Y127657D01*
X106878Y127619D01*
X106947Y127523D01*
X107011Y127422D01*
X107041Y127394D01*
X107064Y127362D01*
X107156Y127286D01*
X107243Y127204D01*
X107278Y127185D01*
X107309Y127159D01*
X107417Y127108D01*
X107521Y127051D01*
X107561Y127041D01*
X107597Y127023D01*
X107714Y127001D01*
X107829Y126971D01*
X107889Y126967D01*
X107909Y126964D01*
X107930Y126965D01*
X107990Y126961D01*
X110450Y126961D01*
X110568Y126976D01*
X110687Y126983D01*
X110725Y126996D01*
X110766Y127001D01*
X110876Y127045D01*
X110989Y127081D01*
X111024Y127103D01*
X111061Y127118D01*
X111157Y127188D01*
X111258Y127251D01*
X111286Y127281D01*
X111319Y127305D01*
X111395Y127396D01*
X111476Y127483D01*
X111496Y127518D01*
X111521Y127550D01*
X111572Y127657D01*
X111630Y127762D01*
X111640Y127801D01*
X111657Y127837D01*
X111679Y127954D01*
X111709Y128070D01*
X111713Y128130D01*
X111717Y128150D01*
X111715Y128170D01*
X111719Y128230D01*
X111719Y138041D01*
X114554Y138041D01*
X115201Y137868D01*
X115338Y137788D01*
X115478Y137729D01*
X115618Y137669D01*
X115625Y137668D01*
X115631Y137665D01*
X115782Y137643D01*
X115932Y137619D01*
X115939Y137619D01*
X115946Y137618D01*
X116097Y137634D01*
X116249Y137649D01*
X116255Y137651D01*
X116262Y137652D01*
X116405Y137705D01*
X116548Y137756D01*
X116554Y137760D01*
X116560Y137762D01*
X116685Y137849D01*
X116811Y137935D01*
X116816Y137940D01*
X116821Y137944D01*
X116921Y138059D01*
X117022Y138173D01*
X117025Y138179D01*
X117029Y138184D01*
X117097Y138320D01*
X117167Y138456D01*
X117168Y138463D01*
X117171Y138469D01*
X117203Y138617D01*
X117236Y138767D01*
X117236Y138773D01*
X117237Y138780D01*
X117231Y138931D01*
X117227Y139085D01*
X117225Y139091D01*
X117224Y139098D01*
X117181Y139243D01*
X117138Y139390D01*
X117135Y139396D01*
X117133Y139402D01*
X117054Y139532D01*
X116977Y139664D01*
X116971Y139671D01*
X116968Y139675D01*
X116961Y139682D01*
X116870Y139785D01*
X116151Y140504D01*
X115343Y142454D01*
X115343Y144566D01*
X116151Y146516D01*
X117644Y148009D01*
X119594Y148817D01*
X121706Y148817D01*
X123656Y148009D01*
X125149Y146516D01*
X125957Y144566D01*
X125957Y142454D01*
X125149Y140504D01*
X124033Y139388D01*
X123960Y139294D01*
X123881Y139205D01*
X123863Y139169D01*
X123838Y139137D01*
X123791Y139028D01*
X123737Y138922D01*
X123728Y138882D01*
X123712Y138845D01*
X123693Y138727D01*
X123667Y138611D01*
X123668Y138571D01*
X123662Y138531D01*
X123673Y138412D01*
X123677Y138294D01*
X123688Y138255D01*
X123692Y138214D01*
X123732Y138102D01*
X123765Y137988D01*
X123786Y137953D01*
X123799Y137915D01*
X123866Y137817D01*
X123927Y137714D01*
X123967Y137669D01*
X123978Y137652D01*
X123993Y137639D01*
X124033Y137593D01*
X125245Y136382D01*
X125245Y133056D01*
X125260Y132938D01*
X125267Y132819D01*
X125280Y132781D01*
X125285Y132740D01*
X125328Y132630D01*
X125365Y132517D01*
X125387Y132482D01*
X125402Y132445D01*
X125471Y132349D01*
X125535Y132248D01*
X125565Y132220D01*
X125588Y132187D01*
X125680Y132111D01*
X125767Y132030D01*
X125802Y132010D01*
X125833Y131985D01*
X125941Y131934D01*
X126045Y131876D01*
X126085Y131866D01*
X126121Y131849D01*
X126238Y131827D01*
X126353Y131797D01*
X126413Y131793D01*
X126433Y131789D01*
X126454Y131791D01*
X126514Y131787D01*
X127987Y131787D01*
X139617Y120156D01*
X139696Y120096D01*
X139768Y120028D01*
X139821Y119999D01*
X139869Y119962D01*
X139960Y119922D01*
X140046Y119874D01*
X140105Y119859D01*
X140161Y119835D01*
X140259Y119820D01*
X140354Y119795D01*
X140454Y119789D01*
X140475Y119785D01*
X140487Y119787D01*
X140515Y119785D01*
X153412Y119785D01*
X154305Y118892D01*
X154305Y104723D01*
X154322Y104585D01*
X154335Y104447D01*
X154342Y104427D01*
X154345Y104407D01*
X154396Y104278D01*
X154443Y104147D01*
X154454Y104130D01*
X154462Y104112D01*
X154543Y104000D01*
X154621Y103884D01*
X154637Y103871D01*
X154648Y103854D01*
X154756Y103766D01*
X154860Y103674D01*
X154878Y103664D01*
X154893Y103652D01*
X155019Y103592D01*
X155143Y103529D01*
X155163Y103525D01*
X155181Y103516D01*
X155317Y103490D01*
X155453Y103459D01*
X155474Y103460D01*
X155493Y103456D01*
X155632Y103465D01*
X155771Y103469D01*
X155791Y103475D01*
X155811Y103476D01*
X155943Y103519D01*
X156077Y103557D01*
X156094Y103568D01*
X156113Y103574D01*
X156231Y103649D01*
X156351Y103719D01*
X156372Y103738D01*
X156382Y103744D01*
X156396Y103759D01*
X156471Y103825D01*
X163712Y111065D01*
X165423Y112777D01*
X171127Y112777D01*
X193997Y89906D01*
X194076Y89846D01*
X194148Y89778D01*
X194201Y89749D01*
X194249Y89712D01*
X194340Y89672D01*
X194426Y89624D01*
X194485Y89609D01*
X194541Y89585D01*
X194639Y89570D01*
X194734Y89545D01*
X194834Y89539D01*
X194855Y89535D01*
X194867Y89537D01*
X194895Y89535D01*
X201345Y89535D01*
X201443Y89547D01*
X201542Y89550D01*
X201600Y89567D01*
X201661Y89575D01*
X201753Y89611D01*
X201848Y89639D01*
X201900Y89669D01*
X201956Y89692D01*
X202036Y89750D01*
X202122Y89800D01*
X202197Y89866D01*
X202214Y89878D01*
X202221Y89888D01*
X202243Y89906D01*
X216223Y103887D01*
X293675Y103887D01*
X293813Y103904D01*
X293951Y103917D01*
X293971Y103924D01*
X293991Y103927D01*
X294120Y103978D01*
X294251Y104025D01*
X294268Y104036D01*
X294286Y104044D01*
X294398Y104125D01*
X294514Y104203D01*
X294527Y104219D01*
X294544Y104230D01*
X294632Y104338D01*
X294724Y104442D01*
X294734Y104460D01*
X294746Y104475D01*
X294806Y104601D01*
X294869Y104725D01*
X294873Y104745D01*
X294882Y104763D01*
X294908Y104899D01*
X294939Y105035D01*
X294938Y105056D01*
X294942Y105075D01*
X294933Y105214D01*
X294929Y105353D01*
X294923Y105373D01*
X294922Y105393D01*
X294879Y105525D01*
X294841Y105659D01*
X294830Y105676D01*
X294824Y105695D01*
X294750Y105813D01*
X294679Y105933D01*
X294660Y105954D01*
X294654Y105964D01*
X294639Y105978D01*
X294573Y106053D01*
X264855Y135772D01*
X264776Y135832D01*
X264704Y135900D01*
X264651Y135929D01*
X264603Y135966D01*
X264512Y136006D01*
X264426Y136054D01*
X264367Y136069D01*
X264311Y136093D01*
X264213Y136108D01*
X264118Y136133D01*
X264018Y136139D01*
X263997Y136143D01*
X263985Y136141D01*
X263957Y136143D01*
X225113Y136143D01*
X223402Y137854D01*
X223402Y137855D01*
X125155Y236102D01*
X123443Y237813D01*
X123443Y356547D01*
X137483Y370587D01*
X213157Y370587D01*
X213255Y370599D01*
X213354Y370602D01*
X213412Y370619D01*
X213473Y370627D01*
X213564Y370663D01*
X213659Y370690D01*
X213712Y370721D01*
X213768Y370744D01*
X213848Y370802D01*
X213933Y370852D01*
X214009Y370918D01*
X214026Y370930D01*
X214033Y370940D01*
X214054Y370958D01*
X214082Y370986D01*
X214167Y371096D01*
X214256Y371203D01*
X214265Y371222D01*
X214277Y371237D01*
X214333Y371365D01*
X214392Y371491D01*
X214396Y371511D01*
X214404Y371529D01*
X214426Y371667D01*
X214452Y371804D01*
X214451Y371823D01*
X214454Y371843D01*
X214441Y371982D01*
X214432Y372121D01*
X214426Y372140D01*
X214424Y372160D01*
X214377Y372291D01*
X214334Y372423D01*
X214323Y372440D01*
X214317Y372459D01*
X214238Y372575D01*
X214164Y372692D01*
X214149Y372706D01*
X214138Y372722D01*
X214034Y372815D01*
X213932Y372910D01*
X213915Y372920D01*
X213900Y372933D01*
X213776Y372996D01*
X213654Y373064D01*
X213634Y373069D01*
X213617Y373078D01*
X213481Y373108D01*
X213346Y373143D01*
X213318Y373145D01*
X213306Y373147D01*
X213286Y373147D01*
X213185Y373153D01*
X211034Y373153D01*
X209084Y373961D01*
X207581Y375464D01*
X207524Y375553D01*
X207460Y375666D01*
X207440Y375687D01*
X207424Y375712D01*
X207329Y375801D01*
X207239Y375894D01*
X207214Y375910D01*
X207192Y375930D01*
X207079Y375993D01*
X206968Y376061D01*
X206940Y376069D01*
X206914Y376084D01*
X206788Y376116D01*
X206664Y376154D01*
X206634Y376156D01*
X206606Y376163D01*
X206445Y376173D01*
X132283Y376173D01*
X132185Y376161D01*
X132086Y376158D01*
X132028Y376141D01*
X131967Y376133D01*
X131875Y376097D01*
X131780Y376069D01*
X131728Y376039D01*
X131672Y376016D01*
X131592Y375958D01*
X131506Y375908D01*
X131431Y375842D01*
X131414Y375830D01*
X131407Y375820D01*
X131385Y375802D01*
X116958Y361375D01*
X116898Y361296D01*
X116830Y361224D01*
X116801Y361171D01*
X116786Y361152D01*
X116785Y361151D01*
X116784Y361150D01*
X116764Y361123D01*
X116724Y361032D01*
X116676Y360946D01*
X116662Y360891D01*
X116649Y360863D01*
X116648Y360856D01*
X116637Y360831D01*
X116622Y360733D01*
X116597Y360638D01*
X116592Y360567D01*
X116589Y360550D01*
X116590Y360535D01*
X116587Y360517D01*
X116589Y360505D01*
X116587Y360477D01*
X116587Y191973D01*
X116599Y191875D01*
X116602Y191776D01*
X116619Y191718D01*
X116627Y191657D01*
X116663Y191565D01*
X116691Y191470D01*
X116721Y191418D01*
X116744Y191362D01*
X116802Y191282D01*
X116852Y191196D01*
X116918Y191121D01*
X116930Y191104D01*
X116940Y191097D01*
X116958Y191075D01*
X146215Y161818D01*
X146239Y161800D01*
X146258Y161778D01*
X146364Y161703D01*
X146467Y161624D01*
X146494Y161612D01*
X146518Y161595D01*
X146639Y161549D01*
X146759Y161497D01*
X146788Y161493D01*
X146816Y161482D01*
X146944Y161468D01*
X147073Y161447D01*
X147102Y161450D01*
X147132Y161447D01*
X147260Y161465D01*
X147389Y161477D01*
X147417Y161487D01*
X147446Y161491D01*
X147521Y161517D01*
X149646Y161517D01*
X151596Y160709D01*
X153089Y159216D01*
X153897Y157266D01*
X153897Y155154D01*
X153089Y153204D01*
X151596Y151711D01*
X149646Y150903D01*
X147534Y150903D01*
X145584Y151711D01*
X144091Y153204D01*
X143283Y155154D01*
X143283Y157280D01*
X143306Y157383D01*
X143341Y157508D01*
X143341Y157537D01*
X143348Y157566D01*
X143344Y157696D01*
X143346Y157826D01*
X143339Y157855D01*
X143338Y157884D01*
X143302Y158009D01*
X143272Y158135D01*
X143258Y158161D01*
X143249Y158190D01*
X143184Y158302D01*
X143123Y158416D01*
X143103Y158438D01*
X143088Y158464D01*
X142982Y158585D01*
X112013Y189553D01*
X112013Y362897D01*
X129863Y380747D01*
X206445Y380747D01*
X206475Y380750D01*
X206504Y380748D01*
X206632Y380770D01*
X206761Y380787D01*
X206788Y380797D01*
X206817Y380803D01*
X206936Y380856D01*
X207056Y380904D01*
X207080Y380921D01*
X207107Y380933D01*
X207209Y381014D01*
X207314Y381090D01*
X207333Y381113D01*
X207356Y381132D01*
X207434Y381235D01*
X207517Y381335D01*
X207529Y381362D01*
X207547Y381386D01*
X207582Y381456D01*
X209084Y382959D01*
X211034Y383767D01*
X213146Y383767D01*
X215096Y382959D01*
X216589Y381466D01*
X217397Y379516D01*
X217397Y377365D01*
X217414Y377227D01*
X217427Y377089D01*
X217434Y377069D01*
X217437Y377049D01*
X217488Y376920D01*
X217535Y376789D01*
X217546Y376772D01*
X217554Y376754D01*
X217635Y376641D01*
X217713Y376526D01*
X217729Y376513D01*
X217740Y376496D01*
X217848Y376407D01*
X217952Y376316D01*
X217970Y376306D01*
X217985Y376294D01*
X218111Y376234D01*
X218235Y376171D01*
X218255Y376167D01*
X218273Y376158D01*
X218409Y376132D01*
X218545Y376101D01*
X218566Y376102D01*
X218585Y376098D01*
X218724Y376107D01*
X218863Y376111D01*
X218883Y376117D01*
X218903Y376118D01*
X219035Y376161D01*
X219169Y376199D01*
X219186Y376210D01*
X219205Y376216D01*
X219323Y376290D01*
X219443Y376361D01*
X219464Y376380D01*
X219474Y376386D01*
X219488Y376401D01*
X219563Y376467D01*
X224469Y381372D01*
X224542Y381467D01*
X224620Y381556D01*
X224639Y381592D01*
X224664Y381624D01*
X224711Y381733D01*
X224765Y381839D01*
X224774Y381878D01*
X224790Y381916D01*
X224809Y382033D01*
X224835Y382149D01*
X224833Y382190D01*
X224840Y382230D01*
X224829Y382348D01*
X224825Y382467D01*
X224814Y382506D01*
X224810Y382546D01*
X224770Y382659D01*
X224737Y382773D01*
X224716Y382807D01*
X224702Y382846D01*
X224635Y382944D01*
X224575Y383047D01*
X224535Y383092D01*
X224524Y383109D01*
X224508Y383122D01*
X224469Y383167D01*
X218058Y389578D01*
X218058Y423389D01*
X218041Y423527D01*
X218028Y423666D01*
X218021Y423685D01*
X218018Y423705D01*
X217967Y423834D01*
X217920Y423965D01*
X217909Y423982D01*
X217901Y424000D01*
X217820Y424113D01*
X217742Y424228D01*
X217726Y424241D01*
X217715Y424258D01*
X217607Y424347D01*
X217503Y424438D01*
X217485Y424448D01*
X217470Y424461D01*
X217344Y424520D01*
X217220Y424583D01*
X217200Y424587D01*
X217182Y424596D01*
X217045Y424622D01*
X216910Y424653D01*
X216889Y424652D01*
X216870Y424656D01*
X216731Y424647D01*
X216592Y424643D01*
X216572Y424637D01*
X216552Y424636D01*
X216420Y424593D01*
X216286Y424555D01*
X216269Y424544D01*
X216250Y424538D01*
X216132Y424464D01*
X216012Y424393D01*
X215991Y424374D01*
X215981Y424368D01*
X215967Y424353D01*
X215892Y424287D01*
X215096Y423491D01*
X213146Y422683D01*
X211034Y422683D01*
X209084Y423491D01*
X207581Y424994D01*
X207524Y425083D01*
X207460Y425196D01*
X207440Y425217D01*
X207424Y425242D01*
X207329Y425331D01*
X207239Y425424D01*
X207214Y425440D01*
X207192Y425460D01*
X207079Y425523D01*
X206968Y425591D01*
X206940Y425599D01*
X206914Y425614D01*
X206788Y425646D01*
X206664Y425684D01*
X206634Y425686D01*
X206606Y425693D01*
X206445Y425703D01*
X114503Y425703D01*
X114405Y425691D01*
X114306Y425688D01*
X114248Y425671D01*
X114187Y425663D01*
X114095Y425627D01*
X114000Y425599D01*
X113948Y425569D01*
X113892Y425546D01*
X113812Y425488D01*
X113726Y425438D01*
X113651Y425372D01*
X113634Y425360D01*
X113627Y425350D01*
X113605Y425332D01*
X106798Y418525D01*
X106738Y418446D01*
X106670Y418374D01*
X106641Y418321D01*
X106604Y418273D01*
X106564Y418182D01*
X106516Y418096D01*
X106501Y418037D01*
X106477Y417981D01*
X106462Y417883D01*
X106437Y417788D01*
X106431Y417688D01*
X106427Y417667D01*
X106429Y417655D01*
X106427Y417627D01*
X106427Y184353D01*
X106439Y184255D01*
X106442Y184156D01*
X106459Y184098D01*
X106467Y184037D01*
X106503Y183945D01*
X106531Y183850D01*
X106561Y183798D01*
X106584Y183742D01*
X106642Y183662D01*
X106692Y183576D01*
X106758Y183501D01*
X106770Y183484D01*
X106780Y183477D01*
X106798Y183455D01*
X122085Y168168D01*
X122109Y168150D01*
X122128Y168128D01*
X122234Y168053D01*
X122337Y167974D01*
X122364Y167962D01*
X122388Y167945D01*
X122509Y167899D01*
X122629Y167847D01*
X122658Y167843D01*
X122686Y167832D01*
X122814Y167818D01*
X122943Y167797D01*
X122972Y167800D01*
X123002Y167797D01*
X123130Y167815D01*
X123259Y167827D01*
X123287Y167837D01*
X123316Y167841D01*
X123391Y167867D01*
X125516Y167867D01*
X127466Y167059D01*
X128959Y165566D01*
X129767Y163616D01*
X129767Y161504D01*
X128959Y159554D01*
X127466Y158061D01*
X125516Y157253D01*
X123404Y157253D01*
X121454Y158061D01*
X119961Y159554D01*
X119153Y161504D01*
X119153Y163630D01*
X119176Y163733D01*
X119211Y163858D01*
X119211Y163887D01*
X119218Y163916D01*
X119214Y164046D01*
X119216Y164176D01*
X119209Y164205D01*
X119208Y164234D01*
X119172Y164359D01*
X119142Y164485D01*
X119128Y164511D01*
X119119Y164540D01*
X119054Y164651D01*
X118993Y164766D01*
X118973Y164788D01*
X118958Y164814D01*
X118852Y164935D01*
X103565Y180222D01*
X101853Y181933D01*
X101853Y420047D01*
X103564Y421758D01*
X103565Y421758D01*
X112083Y430277D01*
X206445Y430277D01*
X206475Y430280D01*
X206504Y430278D01*
X206632Y430300D01*
X206761Y430317D01*
X206788Y430327D01*
X206817Y430333D01*
X206936Y430386D01*
X207056Y430434D01*
X207080Y430451D01*
X207107Y430463D01*
X207209Y430544D01*
X207314Y430620D01*
X207333Y430643D01*
X207356Y430662D01*
X207434Y430765D01*
X207517Y430865D01*
X207529Y430892D01*
X207547Y430916D01*
X207582Y430986D01*
X209084Y432489D01*
X211034Y433297D01*
X213146Y433297D01*
X215096Y432489D01*
X215892Y431693D01*
X216001Y431609D01*
X216108Y431519D01*
X216127Y431511D01*
X216143Y431498D01*
X216270Y431443D01*
X216396Y431384D01*
X216416Y431380D01*
X216435Y431372D01*
X216573Y431350D01*
X216709Y431324D01*
X216729Y431325D01*
X216749Y431322D01*
X216888Y431335D01*
X217026Y431344D01*
X217045Y431350D01*
X217065Y431352D01*
X217197Y431399D01*
X217328Y431442D01*
X217346Y431453D01*
X217365Y431460D01*
X217480Y431538D01*
X217597Y431612D01*
X217611Y431627D01*
X217628Y431638D01*
X217720Y431742D01*
X217815Y431844D01*
X217825Y431861D01*
X217838Y431877D01*
X217901Y432000D01*
X217969Y432122D01*
X217974Y432142D01*
X217983Y432160D01*
X218013Y432296D01*
X218048Y432430D01*
X218050Y432458D01*
X218053Y432470D01*
X218052Y432491D01*
X218058Y432591D01*
X218058Y474022D01*
X228482Y484445D01*
X230059Y486023D01*
X230144Y486132D01*
X230232Y486239D01*
X230241Y486258D01*
X230254Y486274D01*
X230309Y486402D01*
X230368Y486527D01*
X230372Y486547D01*
X230380Y486566D01*
X230402Y486704D01*
X230428Y486840D01*
X230427Y486860D01*
X230430Y486880D01*
X230417Y487019D01*
X230408Y487157D01*
X230402Y487176D01*
X230400Y487196D01*
X230353Y487328D01*
X230310Y487459D01*
X230299Y487477D01*
X230292Y487496D01*
X230214Y487611D01*
X230140Y487728D01*
X230125Y487742D01*
X230114Y487759D01*
X230009Y487851D01*
X229908Y487946D01*
X229891Y487956D01*
X229875Y487969D01*
X229751Y488033D01*
X229630Y488100D01*
X229610Y488105D01*
X229592Y488114D01*
X229456Y488144D01*
X229322Y488179D01*
X229294Y488181D01*
X229282Y488184D01*
X229261Y488183D01*
X229161Y488189D01*
X-14920Y488189D01*
X-15038Y488174D01*
X-15157Y488167D01*
X-15195Y488154D01*
X-15236Y488149D01*
X-15346Y488106D01*
X-15459Y488069D01*
X-15494Y488047D01*
X-15531Y488032D01*
X-15627Y487963D01*
X-15728Y487899D01*
X-15756Y487869D01*
X-15789Y487846D01*
X-15865Y487754D01*
X-15946Y487667D01*
X-15966Y487632D01*
X-15991Y487601D01*
X-16042Y487493D01*
X-16100Y487389D01*
X-16110Y487349D01*
X-16127Y487313D01*
X-16149Y487196D01*
X-16179Y487081D01*
X-16183Y487021D01*
X-16187Y487001D01*
X-16185Y486980D01*
X-16189Y486920D01*
X-16189Y379594D01*
X-16174Y379476D01*
X-16167Y379357D01*
X-16154Y379319D01*
X-16149Y379278D01*
X-16106Y379168D01*
X-16069Y379055D01*
X-16047Y379020D01*
X-16032Y378983D01*
X-15963Y378887D01*
X-15899Y378786D01*
X-15869Y378758D01*
X-15846Y378725D01*
X-15754Y378649D01*
X-15667Y378568D01*
X-15632Y378548D01*
X-15601Y378523D01*
X-15493Y378472D01*
X-15389Y378414D01*
X-15349Y378404D01*
X-15313Y378387D01*
X-15196Y378365D01*
X-15081Y378335D01*
X-15021Y378331D01*
X-15001Y378327D01*
X-14980Y378329D01*
X-14920Y378325D01*
X1220Y378325D01*
X1225Y378325D01*
X1235Y378325D01*
X2810Y378343D01*
X3923Y377230D01*
X3927Y377227D01*
X3934Y377220D01*
X23683Y357926D01*
X23756Y357871D01*
X23822Y357808D01*
X23851Y357792D01*
X25172Y356471D01*
X25176Y356468D01*
X25183Y356460D01*
X26311Y355359D01*
X26311Y353784D01*
X26311Y353779D01*
X26311Y353769D01*
X26333Y351891D01*
X26321Y351845D01*
X26313Y351727D01*
X26311Y351710D01*
X26312Y351702D01*
X26311Y351684D01*
X26311Y140422D01*
X24078Y138189D01*
X5080Y138189D01*
X4962Y138174D01*
X4843Y138167D01*
X4805Y138154D01*
X4764Y138149D01*
X4654Y138106D01*
X4541Y138069D01*
X4506Y138047D01*
X4469Y138032D01*
X4373Y137963D01*
X4272Y137899D01*
X4244Y137869D01*
X4211Y137846D01*
X4135Y137754D01*
X4054Y137667D01*
X4034Y137632D01*
X4009Y137601D01*
X3958Y137493D01*
X3900Y137389D01*
X3890Y137349D01*
X3873Y137313D01*
X3851Y137196D01*
X3821Y137081D01*
X3817Y137021D01*
X3813Y137001D01*
X3815Y136980D01*
X3811Y136920D01*
X3811Y5080D01*
X3826Y4962D01*
X3833Y4843D01*
X3846Y4805D01*
X3851Y4764D01*
X3894Y4654D01*
X3931Y4541D01*
X3953Y4506D01*
X3968Y4469D01*
X4037Y4373D01*
X4101Y4272D01*
X4131Y4244D01*
X4154Y4211D01*
X4246Y4135D01*
X4333Y4054D01*
X4368Y4034D01*
X4399Y4009D01*
X4507Y3958D01*
X4611Y3900D01*
X4651Y3890D01*
X4687Y3873D01*
X4804Y3851D01*
X4919Y3821D01*
X4979Y3817D01*
X4999Y3813D01*
X5020Y3815D01*
X5080Y3811D01*
X121920Y3811D01*
X122038Y3826D01*
G37*
%LPC*%
G36*
X306824Y237291D02*
X306824Y237291D01*
X305931Y238184D01*
X305931Y246448D01*
X306824Y247341D01*
X313519Y247341D01*
X313637Y247356D01*
X313756Y247363D01*
X313794Y247376D01*
X313835Y247381D01*
X313945Y247424D01*
X314058Y247461D01*
X314093Y247483D01*
X314130Y247498D01*
X314226Y247567D01*
X314327Y247631D01*
X314355Y247661D01*
X314388Y247684D01*
X314464Y247776D01*
X314545Y247863D01*
X314565Y247898D01*
X314590Y247929D01*
X314641Y248037D01*
X314699Y248141D01*
X314709Y248181D01*
X314726Y248217D01*
X314748Y248334D01*
X314778Y248449D01*
X314782Y248509D01*
X314786Y248529D01*
X314784Y248550D01*
X314788Y248610D01*
X314788Y262471D01*
X314798Y262480D01*
X314858Y262559D01*
X314926Y262631D01*
X314955Y262684D01*
X314992Y262732D01*
X315032Y262823D01*
X315080Y262909D01*
X315095Y262968D01*
X315119Y263023D01*
X315134Y263121D01*
X315159Y263217D01*
X315165Y263317D01*
X315169Y263337D01*
X315167Y263350D01*
X315169Y263378D01*
X315169Y269240D01*
X315154Y269358D01*
X315147Y269477D01*
X315134Y269515D01*
X315129Y269556D01*
X315086Y269666D01*
X315049Y269779D01*
X315027Y269814D01*
X315012Y269851D01*
X314943Y269947D01*
X314879Y270048D01*
X314849Y270076D01*
X314826Y270109D01*
X314734Y270185D01*
X314647Y270266D01*
X314612Y270286D01*
X314581Y270311D01*
X314473Y270362D01*
X314369Y270420D01*
X314329Y270430D01*
X314293Y270447D01*
X314176Y270469D01*
X314061Y270499D01*
X314001Y270503D01*
X313981Y270507D01*
X313960Y270505D01*
X313900Y270509D01*
X310899Y270509D01*
X310006Y271402D01*
X310006Y285366D01*
X310899Y286259D01*
X331213Y286259D01*
X332106Y285366D01*
X332106Y272364D01*
X332123Y272226D01*
X332136Y272088D01*
X332143Y272068D01*
X332146Y272048D01*
X332197Y271919D01*
X332244Y271788D01*
X332255Y271771D01*
X332263Y271753D01*
X332344Y271640D01*
X332422Y271525D01*
X332438Y271512D01*
X332449Y271495D01*
X332557Y271406D01*
X332661Y271315D01*
X332679Y271305D01*
X332694Y271293D01*
X332820Y271233D01*
X332944Y271170D01*
X332964Y271166D01*
X332982Y271157D01*
X333118Y271131D01*
X333254Y271100D01*
X333275Y271101D01*
X333294Y271097D01*
X333433Y271106D01*
X333572Y271110D01*
X333592Y271116D01*
X333612Y271117D01*
X333744Y271160D01*
X333878Y271198D01*
X333895Y271209D01*
X333914Y271215D01*
X334032Y271289D01*
X334152Y271360D01*
X334173Y271379D01*
X334183Y271385D01*
X334197Y271400D01*
X334272Y271466D01*
X335162Y272355D01*
X335222Y272434D01*
X335290Y272506D01*
X335319Y272559D01*
X335356Y272607D01*
X335396Y272698D01*
X335444Y272784D01*
X335459Y272843D01*
X335483Y272899D01*
X335498Y272997D01*
X335523Y273092D01*
X335529Y273192D01*
X335533Y273213D01*
X335531Y273225D01*
X335533Y273253D01*
X335533Y304079D01*
X335514Y304230D01*
X335497Y304381D01*
X335494Y304387D01*
X335493Y304394D01*
X335437Y304536D01*
X335383Y304678D01*
X335379Y304684D01*
X335376Y304690D01*
X335287Y304813D01*
X335199Y304937D01*
X335193Y304942D01*
X335190Y304947D01*
X335073Y305044D01*
X334956Y305143D01*
X334950Y305146D01*
X334945Y305150D01*
X334808Y305214D01*
X334670Y305281D01*
X334663Y305283D01*
X334657Y305286D01*
X334509Y305314D01*
X334358Y305344D01*
X334351Y305344D01*
X334345Y305345D01*
X334193Y305336D01*
X334040Y305328D01*
X334034Y305326D01*
X334027Y305326D01*
X333883Y305279D01*
X333737Y305233D01*
X333731Y305230D01*
X333725Y305228D01*
X333595Y305146D01*
X333466Y305066D01*
X333462Y305061D01*
X333456Y305057D01*
X333351Y304946D01*
X333246Y304837D01*
X333243Y304831D01*
X333238Y304826D01*
X333164Y304692D01*
X333089Y304560D01*
X333087Y304551D01*
X333084Y304547D01*
X333082Y304537D01*
X333038Y304407D01*
X332949Y304073D01*
X332614Y303494D01*
X332141Y303021D01*
X331562Y302686D01*
X330915Y302513D01*
X323595Y302513D01*
X323595Y310134D01*
X323580Y310252D01*
X323573Y310371D01*
X323560Y310409D01*
X323555Y310449D01*
X323511Y310560D01*
X323475Y310673D01*
X323453Y310708D01*
X323438Y310745D01*
X323368Y310841D01*
X323305Y310942D01*
X323275Y310970D01*
X323251Y311002D01*
X323160Y311078D01*
X323073Y311160D01*
X323038Y311179D01*
X323006Y311205D01*
X322899Y311256D01*
X322795Y311313D01*
X322755Y311324D01*
X322719Y311341D01*
X322602Y311363D01*
X322487Y311393D01*
X322426Y311397D01*
X322406Y311401D01*
X322386Y311399D01*
X322326Y311403D01*
X321055Y311403D01*
X321055Y311405D01*
X322326Y311405D01*
X322444Y311420D01*
X322563Y311427D01*
X322601Y311440D01*
X322641Y311445D01*
X322752Y311489D01*
X322865Y311525D01*
X322900Y311547D01*
X322937Y311562D01*
X323033Y311632D01*
X323134Y311695D01*
X323162Y311725D01*
X323194Y311749D01*
X323270Y311840D01*
X323352Y311927D01*
X323371Y311962D01*
X323397Y311994D01*
X323448Y312101D01*
X323505Y312205D01*
X323516Y312245D01*
X323533Y312281D01*
X323555Y312398D01*
X323585Y312513D01*
X323589Y312574D01*
X323593Y312594D01*
X323591Y312614D01*
X323595Y312674D01*
X323595Y320295D01*
X330915Y320295D01*
X331562Y320122D01*
X332141Y319787D01*
X332614Y319314D01*
X332949Y318735D01*
X333038Y318401D01*
X333096Y318260D01*
X333152Y318118D01*
X333156Y318113D01*
X333158Y318106D01*
X333250Y317982D01*
X333338Y317861D01*
X333344Y317856D01*
X333348Y317851D01*
X333466Y317755D01*
X333583Y317658D01*
X333590Y317655D01*
X333595Y317651D01*
X333734Y317587D01*
X333871Y317522D01*
X333878Y317521D01*
X333884Y317518D01*
X334035Y317491D01*
X334184Y317463D01*
X334190Y317463D01*
X334197Y317462D01*
X334349Y317473D01*
X334501Y317482D01*
X334507Y317484D01*
X334514Y317485D01*
X334659Y317534D01*
X334803Y317580D01*
X334809Y317584D01*
X334816Y317586D01*
X334943Y317669D01*
X335072Y317751D01*
X335077Y317756D01*
X335082Y317759D01*
X335185Y317870D01*
X335290Y317982D01*
X335293Y317988D01*
X335298Y317993D01*
X335370Y318127D01*
X335444Y318261D01*
X335445Y318267D01*
X335448Y318273D01*
X335485Y318421D01*
X335523Y318569D01*
X335524Y318578D01*
X335525Y318582D01*
X335525Y318593D01*
X335533Y318729D01*
X335533Y355397D01*
X335521Y355495D01*
X335518Y355594D01*
X335512Y355615D01*
X335511Y355630D01*
X335499Y355666D01*
X335493Y355713D01*
X335457Y355805D01*
X335429Y355900D01*
X335416Y355922D01*
X335413Y355932D01*
X335396Y355960D01*
X335376Y356008D01*
X335318Y356088D01*
X335268Y356174D01*
X335202Y356249D01*
X335190Y356266D01*
X335180Y356273D01*
X335162Y356295D01*
X266125Y425332D01*
X266046Y425392D01*
X265974Y425460D01*
X265921Y425489D01*
X265873Y425526D01*
X265782Y425566D01*
X265696Y425614D01*
X265637Y425629D01*
X265581Y425653D01*
X265483Y425668D01*
X265388Y425693D01*
X265288Y425699D01*
X265267Y425703D01*
X265255Y425701D01*
X265227Y425703D01*
X247044Y425703D01*
X246946Y425691D01*
X246847Y425688D01*
X246788Y425671D01*
X246728Y425663D01*
X246636Y425627D01*
X246541Y425599D01*
X246489Y425569D01*
X246433Y425546D01*
X246353Y425488D01*
X246267Y425438D01*
X246192Y425372D01*
X246175Y425360D01*
X246167Y425350D01*
X246146Y425331D01*
X245576Y424761D01*
X243626Y423953D01*
X241514Y423953D01*
X239564Y424761D01*
X238071Y426254D01*
X237263Y428204D01*
X237263Y430316D01*
X238071Y432266D01*
X239564Y433759D01*
X241514Y434567D01*
X243626Y434567D01*
X245576Y433759D01*
X247069Y432266D01*
X247568Y431060D01*
X247583Y431035D01*
X247591Y431009D01*
X247592Y431008D01*
X247592Y431007D01*
X247661Y430897D01*
X247726Y430784D01*
X247746Y430763D01*
X247762Y430738D01*
X247857Y430649D01*
X247947Y430556D01*
X247972Y430540D01*
X247994Y430520D01*
X248107Y430457D01*
X248218Y430389D01*
X248246Y430381D01*
X248272Y430366D01*
X248398Y430334D01*
X248522Y430296D01*
X248552Y430294D01*
X248580Y430287D01*
X248741Y430277D01*
X267647Y430277D01*
X340107Y357817D01*
X340107Y270833D01*
X338396Y269122D01*
X338395Y269122D01*
X332604Y263331D01*
X332544Y263252D01*
X332476Y263180D01*
X332447Y263127D01*
X332410Y263079D01*
X332370Y262988D01*
X332322Y262902D01*
X332307Y262843D01*
X332283Y262787D01*
X332268Y262689D01*
X332243Y262594D01*
X332237Y262494D01*
X332233Y262473D01*
X332235Y262461D01*
X332233Y262433D01*
X332233Y260406D01*
X331498Y258632D01*
X330140Y257274D01*
X328366Y256539D01*
X326446Y256539D01*
X324672Y257274D01*
X323619Y258327D01*
X323541Y258387D01*
X323469Y258455D01*
X323416Y258484D01*
X323368Y258521D01*
X323277Y258561D01*
X323191Y258609D01*
X323132Y258624D01*
X323076Y258648D01*
X322978Y258663D01*
X322883Y258688D01*
X322783Y258694D01*
X322762Y258698D01*
X322750Y258696D01*
X322722Y258698D01*
X321393Y258698D01*
X321275Y258683D01*
X321156Y258676D01*
X321118Y258663D01*
X321077Y258658D01*
X320967Y258615D01*
X320854Y258578D01*
X320819Y258556D01*
X320782Y258541D01*
X320686Y258472D01*
X320585Y258408D01*
X320557Y258378D01*
X320524Y258355D01*
X320448Y258263D01*
X320367Y258176D01*
X320347Y258141D01*
X320322Y258110D01*
X320271Y258002D01*
X320213Y257898D01*
X320203Y257858D01*
X320186Y257822D01*
X320164Y257705D01*
X320134Y257590D01*
X320130Y257530D01*
X320126Y257510D01*
X320128Y257489D01*
X320124Y257429D01*
X320124Y248610D01*
X320139Y248492D01*
X320146Y248373D01*
X320159Y248335D01*
X320164Y248294D01*
X320207Y248184D01*
X320244Y248071D01*
X320266Y248036D01*
X320281Y247999D01*
X320350Y247903D01*
X320414Y247802D01*
X320444Y247774D01*
X320467Y247741D01*
X320559Y247665D01*
X320646Y247584D01*
X320681Y247564D01*
X320712Y247539D01*
X320820Y247488D01*
X320924Y247430D01*
X320964Y247420D01*
X321000Y247403D01*
X321117Y247381D01*
X321232Y247351D01*
X321292Y247347D01*
X321312Y247343D01*
X321333Y247345D01*
X321393Y247341D01*
X328088Y247341D01*
X328981Y246448D01*
X328981Y238184D01*
X328088Y237291D01*
X306824Y237291D01*
G37*
%LPD*%
%LPC*%
G36*
X266124Y193591D02*
X266124Y193591D01*
X265231Y194484D01*
X265231Y201179D01*
X265216Y201297D01*
X265209Y201416D01*
X265196Y201454D01*
X265191Y201495D01*
X265148Y201605D01*
X265111Y201718D01*
X265089Y201753D01*
X265074Y201790D01*
X265005Y201886D01*
X264941Y201987D01*
X264911Y202015D01*
X264888Y202048D01*
X264796Y202124D01*
X264709Y202205D01*
X264674Y202225D01*
X264643Y202250D01*
X264535Y202301D01*
X264431Y202359D01*
X264391Y202369D01*
X264355Y202386D01*
X264238Y202408D01*
X264123Y202438D01*
X264063Y202442D01*
X264043Y202446D01*
X264022Y202444D01*
X263962Y202448D01*
X259151Y202448D01*
X250080Y211520D01*
X250001Y211580D01*
X249929Y211648D01*
X249876Y211677D01*
X249828Y211714D01*
X249737Y211754D01*
X249651Y211802D01*
X249592Y211817D01*
X249537Y211841D01*
X249439Y211856D01*
X249343Y211881D01*
X249243Y211887D01*
X249223Y211891D01*
X249210Y211889D01*
X249182Y211891D01*
X237824Y211891D01*
X236931Y212784D01*
X236931Y221048D01*
X237314Y221430D01*
X237387Y221524D01*
X237466Y221614D01*
X237484Y221650D01*
X237509Y221682D01*
X237556Y221791D01*
X237610Y221897D01*
X237619Y221936D01*
X237635Y221973D01*
X237654Y222091D01*
X237680Y222207D01*
X237679Y222247D01*
X237685Y222288D01*
X237674Y222406D01*
X237670Y222525D01*
X237659Y222564D01*
X237655Y222604D01*
X237615Y222716D01*
X237582Y222831D01*
X237561Y222865D01*
X237548Y222903D01*
X237481Y223002D01*
X237420Y223104D01*
X237381Y223150D01*
X237369Y223167D01*
X237354Y223180D01*
X237314Y223225D01*
X222533Y238007D01*
X220598Y239941D01*
X220598Y321789D01*
X220607Y321798D01*
X220668Y321876D01*
X220736Y321949D01*
X220765Y322002D01*
X220802Y322049D01*
X220842Y322140D01*
X220890Y322227D01*
X220905Y322286D01*
X220929Y322341D01*
X220944Y322439D01*
X220969Y322535D01*
X220975Y322635D01*
X220979Y322655D01*
X220977Y322668D01*
X220979Y322696D01*
X220979Y327083D01*
X270833Y376937D01*
X275025Y376937D01*
X275055Y376940D01*
X275084Y376938D01*
X275212Y376960D01*
X275341Y376977D01*
X275368Y376987D01*
X275397Y376993D01*
X275516Y377046D01*
X275636Y377094D01*
X275660Y377111D01*
X275687Y377123D01*
X275789Y377204D01*
X275894Y377280D01*
X275913Y377303D01*
X275936Y377322D01*
X276014Y377425D01*
X276097Y377525D01*
X276109Y377552D01*
X276127Y377576D01*
X276162Y377646D01*
X277664Y379149D01*
X279614Y379957D01*
X281726Y379957D01*
X283676Y379149D01*
X285169Y377656D01*
X285977Y375706D01*
X285977Y373594D01*
X285169Y371644D01*
X283676Y370151D01*
X281726Y369343D01*
X279614Y369343D01*
X277664Y370151D01*
X276161Y371654D01*
X276104Y371743D01*
X276040Y371856D01*
X276020Y371877D01*
X276004Y371902D01*
X275909Y371991D01*
X275819Y372084D01*
X275794Y372100D01*
X275772Y372120D01*
X275659Y372183D01*
X275548Y372251D01*
X275520Y372259D01*
X275494Y372274D01*
X275368Y372306D01*
X275244Y372344D01*
X275214Y372346D01*
X275186Y372353D01*
X275025Y372363D01*
X273253Y372363D01*
X273155Y372351D01*
X273056Y372348D01*
X272998Y372331D01*
X272937Y372323D01*
X272845Y372287D01*
X272750Y372259D01*
X272698Y372229D01*
X272642Y372206D01*
X272562Y372148D01*
X272476Y372098D01*
X272401Y372032D01*
X272384Y372020D01*
X272377Y372010D01*
X272355Y371992D01*
X225924Y325561D01*
X225864Y325482D01*
X225796Y325410D01*
X225767Y325357D01*
X225730Y325309D01*
X225690Y325218D01*
X225642Y325132D01*
X225627Y325073D01*
X225603Y325017D01*
X225588Y324919D01*
X225563Y324824D01*
X225557Y324724D01*
X225553Y324703D01*
X225555Y324691D01*
X225553Y324663D01*
X225553Y322696D01*
X225565Y322597D01*
X225568Y322498D01*
X225585Y322440D01*
X225593Y322380D01*
X225629Y322288D01*
X225657Y322193D01*
X225687Y322141D01*
X225710Y322085D01*
X225768Y322004D01*
X225818Y321919D01*
X225884Y321844D01*
X225896Y321827D01*
X225906Y321819D01*
X225925Y321798D01*
X225934Y321789D01*
X225934Y242677D01*
X225946Y242579D01*
X225949Y242480D01*
X225966Y242421D01*
X225974Y242361D01*
X226010Y242269D01*
X226038Y242174D01*
X226068Y242122D01*
X226091Y242066D01*
X226149Y241986D01*
X226199Y241900D01*
X226265Y241825D01*
X226277Y241808D01*
X226287Y241800D01*
X226305Y241779D01*
X245772Y222312D01*
X245851Y222252D01*
X245923Y222184D01*
X245976Y222155D01*
X246024Y222118D01*
X246115Y222078D01*
X246201Y222030D01*
X246260Y222015D01*
X246315Y221991D01*
X246413Y221976D01*
X246509Y221951D01*
X246609Y221945D01*
X246629Y221941D01*
X246642Y221943D01*
X246670Y221941D01*
X259088Y221941D01*
X259981Y221048D01*
X259981Y212784D01*
X259068Y211872D01*
X258995Y211778D01*
X258916Y211688D01*
X258898Y211652D01*
X258873Y211620D01*
X258826Y211511D01*
X258772Y211405D01*
X258763Y211366D01*
X258747Y211329D01*
X258728Y211211D01*
X258702Y211095D01*
X258703Y211054D01*
X258697Y211014D01*
X258708Y210896D01*
X258712Y210777D01*
X258723Y210738D01*
X258727Y210698D01*
X258767Y210586D01*
X258800Y210471D01*
X258821Y210437D01*
X258834Y210399D01*
X258901Y210300D01*
X258962Y210198D01*
X259001Y210152D01*
X259013Y210135D01*
X259028Y210122D01*
X259068Y210077D01*
X260989Y208155D01*
X261068Y208095D01*
X261140Y208027D01*
X261193Y207998D01*
X261241Y207961D01*
X261331Y207921D01*
X261418Y207873D01*
X261477Y207858D01*
X261532Y207834D01*
X261630Y207819D01*
X261726Y207794D01*
X261826Y207788D01*
X261847Y207784D01*
X261859Y207786D01*
X261887Y207784D01*
X263962Y207784D01*
X264080Y207799D01*
X264199Y207806D01*
X264237Y207819D01*
X264278Y207824D01*
X264388Y207867D01*
X264501Y207904D01*
X264536Y207926D01*
X264573Y207941D01*
X264669Y208010D01*
X264770Y208074D01*
X264798Y208104D01*
X264831Y208127D01*
X264907Y208219D01*
X264988Y208306D01*
X265008Y208341D01*
X265033Y208372D01*
X265084Y208480D01*
X265142Y208584D01*
X265152Y208624D01*
X265169Y208660D01*
X265191Y208777D01*
X265221Y208892D01*
X265225Y208952D01*
X265229Y208972D01*
X265227Y208993D01*
X265231Y209053D01*
X265231Y215748D01*
X266124Y216641D01*
X274388Y216641D01*
X275281Y215748D01*
X275281Y209053D01*
X275296Y208935D01*
X275303Y208816D01*
X275316Y208778D01*
X275321Y208737D01*
X275364Y208627D01*
X275401Y208514D01*
X275423Y208479D01*
X275438Y208442D01*
X275507Y208346D01*
X275571Y208245D01*
X275601Y208217D01*
X275624Y208184D01*
X275716Y208108D01*
X275803Y208027D01*
X275838Y208007D01*
X275869Y207982D01*
X275977Y207931D01*
X276081Y207873D01*
X276121Y207863D01*
X276157Y207846D01*
X276274Y207824D01*
X276389Y207794D01*
X276449Y207790D01*
X276469Y207786D01*
X276490Y207788D01*
X276550Y207784D01*
X276662Y207784D01*
X276780Y207799D01*
X276899Y207806D01*
X276937Y207819D01*
X276978Y207824D01*
X277088Y207867D01*
X277201Y207904D01*
X277236Y207926D01*
X277273Y207941D01*
X277369Y208010D01*
X277470Y208074D01*
X277498Y208104D01*
X277531Y208127D01*
X277607Y208219D01*
X277688Y208306D01*
X277708Y208341D01*
X277733Y208372D01*
X277784Y208480D01*
X277842Y208584D01*
X277852Y208624D01*
X277869Y208660D01*
X277891Y208777D01*
X277921Y208892D01*
X277925Y208952D01*
X277929Y208972D01*
X277927Y208993D01*
X277931Y209053D01*
X277931Y215748D01*
X278824Y216641D01*
X287088Y216641D01*
X287981Y215748D01*
X287981Y209053D01*
X287996Y208935D01*
X288003Y208816D01*
X288016Y208778D01*
X288021Y208737D01*
X288064Y208627D01*
X288101Y208514D01*
X288123Y208479D01*
X288138Y208442D01*
X288207Y208346D01*
X288271Y208245D01*
X288301Y208217D01*
X288324Y208184D01*
X288416Y208108D01*
X288503Y208027D01*
X288538Y208007D01*
X288569Y207982D01*
X288677Y207931D01*
X288781Y207873D01*
X288821Y207863D01*
X288857Y207846D01*
X288974Y207824D01*
X289089Y207794D01*
X289149Y207790D01*
X289169Y207786D01*
X289190Y207788D01*
X289250Y207784D01*
X289362Y207784D01*
X289480Y207799D01*
X289599Y207806D01*
X289637Y207819D01*
X289678Y207824D01*
X289788Y207867D01*
X289901Y207904D01*
X289936Y207926D01*
X289973Y207941D01*
X290069Y208010D01*
X290170Y208074D01*
X290198Y208104D01*
X290231Y208127D01*
X290307Y208219D01*
X290388Y208306D01*
X290408Y208341D01*
X290433Y208372D01*
X290484Y208480D01*
X290542Y208584D01*
X290552Y208624D01*
X290569Y208660D01*
X290591Y208777D01*
X290621Y208892D01*
X290625Y208952D01*
X290629Y208972D01*
X290627Y208993D01*
X290631Y209053D01*
X290631Y215748D01*
X291524Y216641D01*
X299788Y216641D01*
X300681Y215748D01*
X300681Y194484D01*
X299788Y193591D01*
X291524Y193591D01*
X290631Y194484D01*
X290631Y201179D01*
X290616Y201297D01*
X290609Y201416D01*
X290596Y201454D01*
X290591Y201495D01*
X290548Y201605D01*
X290511Y201718D01*
X290489Y201753D01*
X290474Y201790D01*
X290405Y201886D01*
X290341Y201987D01*
X290311Y202015D01*
X290288Y202048D01*
X290196Y202124D01*
X290109Y202205D01*
X290074Y202225D01*
X290043Y202250D01*
X289935Y202301D01*
X289831Y202359D01*
X289791Y202369D01*
X289755Y202386D01*
X289638Y202408D01*
X289523Y202438D01*
X289463Y202442D01*
X289443Y202446D01*
X289422Y202444D01*
X289362Y202448D01*
X289250Y202448D01*
X289132Y202433D01*
X289013Y202426D01*
X288975Y202413D01*
X288934Y202408D01*
X288824Y202365D01*
X288711Y202328D01*
X288676Y202306D01*
X288639Y202291D01*
X288543Y202222D01*
X288442Y202158D01*
X288414Y202128D01*
X288381Y202105D01*
X288305Y202013D01*
X288224Y201926D01*
X288204Y201891D01*
X288179Y201860D01*
X288128Y201752D01*
X288070Y201648D01*
X288060Y201608D01*
X288043Y201572D01*
X288021Y201455D01*
X287991Y201340D01*
X287987Y201280D01*
X287983Y201260D01*
X287985Y201239D01*
X287981Y201179D01*
X287981Y194484D01*
X287088Y193591D01*
X278824Y193591D01*
X277931Y194484D01*
X277931Y201179D01*
X277916Y201297D01*
X277909Y201416D01*
X277896Y201454D01*
X277891Y201495D01*
X277848Y201605D01*
X277811Y201718D01*
X277789Y201753D01*
X277774Y201790D01*
X277705Y201886D01*
X277641Y201987D01*
X277611Y202015D01*
X277588Y202048D01*
X277496Y202124D01*
X277409Y202205D01*
X277374Y202225D01*
X277343Y202250D01*
X277235Y202301D01*
X277131Y202359D01*
X277091Y202369D01*
X277055Y202386D01*
X276938Y202408D01*
X276823Y202438D01*
X276763Y202442D01*
X276743Y202446D01*
X276722Y202444D01*
X276662Y202448D01*
X276550Y202448D01*
X276432Y202433D01*
X276313Y202426D01*
X276275Y202413D01*
X276234Y202408D01*
X276124Y202365D01*
X276011Y202328D01*
X275976Y202306D01*
X275939Y202291D01*
X275843Y202222D01*
X275742Y202158D01*
X275714Y202128D01*
X275681Y202105D01*
X275605Y202013D01*
X275524Y201926D01*
X275504Y201891D01*
X275479Y201860D01*
X275428Y201752D01*
X275370Y201648D01*
X275360Y201608D01*
X275343Y201572D01*
X275321Y201455D01*
X275291Y201340D01*
X275287Y201280D01*
X275283Y201260D01*
X275285Y201239D01*
X275281Y201179D01*
X275281Y194484D01*
X274388Y193591D01*
X266124Y193591D01*
G37*
%LPD*%
%LPC*%
G36*
X281996Y229869D02*
X281996Y229869D01*
X280222Y230604D01*
X278864Y231962D01*
X278129Y233736D01*
X278129Y235224D01*
X278117Y235322D01*
X278114Y235421D01*
X278097Y235480D01*
X278089Y235540D01*
X278053Y235632D01*
X278025Y235727D01*
X277995Y235779D01*
X277972Y235835D01*
X277914Y235915D01*
X277864Y236001D01*
X277798Y236076D01*
X277786Y236093D01*
X277776Y236101D01*
X277758Y236122D01*
X272668Y241211D01*
X272668Y241322D01*
X272653Y241440D01*
X272646Y241559D01*
X272633Y241597D01*
X272628Y241638D01*
X272585Y241748D01*
X272548Y241861D01*
X272526Y241896D01*
X272511Y241933D01*
X272442Y242029D01*
X272378Y242130D01*
X272348Y242158D01*
X272325Y242191D01*
X272233Y242267D01*
X272146Y242348D01*
X272111Y242368D01*
X272080Y242393D01*
X271972Y242444D01*
X271868Y242502D01*
X271828Y242512D01*
X271792Y242529D01*
X271675Y242551D01*
X271560Y242581D01*
X271500Y242585D01*
X271480Y242589D01*
X271459Y242587D01*
X271399Y242591D01*
X266124Y242591D01*
X265231Y243484D01*
X265231Y264748D01*
X266124Y265641D01*
X274410Y265641D01*
X274421Y265632D01*
X274528Y265543D01*
X274547Y265534D01*
X274563Y265522D01*
X274691Y265466D01*
X274816Y265407D01*
X274836Y265404D01*
X274855Y265396D01*
X274992Y265374D01*
X275129Y265348D01*
X275149Y265349D01*
X275169Y265346D01*
X275307Y265359D01*
X275446Y265367D01*
X275465Y265374D01*
X275485Y265375D01*
X275616Y265423D01*
X275748Y265465D01*
X275766Y265476D01*
X275785Y265483D01*
X275900Y265561D01*
X276017Y265636D01*
X276031Y265650D01*
X276048Y265662D01*
X276140Y265766D01*
X276235Y265867D01*
X276245Y265885D01*
X276258Y265900D01*
X276322Y266024D01*
X276389Y266146D01*
X276394Y266165D01*
X276403Y266183D01*
X276433Y266319D01*
X276468Y266454D01*
X276470Y266482D01*
X276473Y266494D01*
X276472Y266514D01*
X276478Y266614D01*
X276478Y269240D01*
X276463Y269358D01*
X276456Y269477D01*
X276443Y269515D01*
X276438Y269556D01*
X276395Y269666D01*
X276358Y269779D01*
X276336Y269814D01*
X276321Y269851D01*
X276252Y269947D01*
X276188Y270048D01*
X276158Y270076D01*
X276135Y270109D01*
X276043Y270185D01*
X275956Y270266D01*
X275921Y270286D01*
X275890Y270311D01*
X275782Y270362D01*
X275678Y270420D01*
X275638Y270430D01*
X275602Y270447D01*
X275485Y270469D01*
X275370Y270499D01*
X275310Y270503D01*
X275290Y270507D01*
X275269Y270505D01*
X275209Y270509D01*
X260099Y270509D01*
X259206Y271402D01*
X259206Y282446D01*
X259201Y282486D01*
X259204Y282526D01*
X259181Y282643D01*
X259166Y282762D01*
X259152Y282799D01*
X259144Y282839D01*
X259093Y282946D01*
X259049Y283057D01*
X259026Y283090D01*
X259008Y283126D01*
X258933Y283218D01*
X258863Y283315D01*
X258831Y283340D01*
X258806Y283371D01*
X258682Y283474D01*
X255755Y285594D01*
X255612Y285672D01*
X255479Y285746D01*
X255477Y285746D01*
X255476Y285747D01*
X255316Y285788D01*
X255198Y285818D01*
X254621Y286396D01*
X254605Y286408D01*
X254592Y286424D01*
X254468Y286526D01*
X253798Y287012D01*
X253765Y287125D01*
X253764Y287126D01*
X253764Y287127D01*
X253680Y287269D01*
X253618Y287374D01*
X253618Y288191D01*
X253616Y288211D01*
X253618Y288231D01*
X253602Y288391D01*
X253472Y289208D01*
X253529Y289311D01*
X253529Y289312D01*
X253530Y289314D01*
X253570Y289471D01*
X253608Y289619D01*
X253608Y289621D01*
X253608Y289622D01*
X253608Y289625D01*
X253618Y289779D01*
X253618Y332203D01*
X253606Y332301D01*
X253603Y332400D01*
X253586Y332459D01*
X253578Y332519D01*
X253542Y332611D01*
X253514Y332706D01*
X253484Y332758D01*
X253461Y332814D01*
X253403Y332894D01*
X253353Y332980D01*
X253287Y333055D01*
X253275Y333072D01*
X253265Y333079D01*
X253247Y333101D01*
X251787Y334560D01*
X250979Y336510D01*
X250979Y338622D01*
X251787Y340572D01*
X253280Y342065D01*
X255230Y342873D01*
X257342Y342873D01*
X259292Y342065D01*
X260785Y340572D01*
X261593Y338622D01*
X261593Y336510D01*
X260785Y334560D01*
X259325Y333101D01*
X259265Y333022D01*
X259197Y332950D01*
X259168Y332897D01*
X259131Y332849D01*
X259091Y332758D01*
X259043Y332672D01*
X259028Y332613D01*
X259004Y332557D01*
X258989Y332460D01*
X258964Y332364D01*
X258958Y332264D01*
X258954Y332243D01*
X258956Y332231D01*
X258954Y332203D01*
X258954Y321562D01*
X258970Y321437D01*
X258979Y321312D01*
X258989Y321280D01*
X258994Y321247D01*
X259040Y321130D01*
X259080Y321010D01*
X259098Y320982D01*
X259111Y320951D01*
X259184Y320849D01*
X259253Y320744D01*
X259278Y320721D01*
X259297Y320694D01*
X259395Y320613D01*
X259487Y320528D01*
X259517Y320512D01*
X259542Y320491D01*
X259656Y320437D01*
X259767Y320378D01*
X259800Y320370D01*
X259830Y320355D01*
X259953Y320332D01*
X260076Y320302D01*
X260110Y320302D01*
X260142Y320296D01*
X260180Y320298D01*
X260229Y320295D01*
X267717Y320295D01*
X267717Y312674D01*
X267732Y312556D01*
X267739Y312437D01*
X267752Y312399D01*
X267757Y312359D01*
X267800Y312248D01*
X267837Y312135D01*
X267859Y312100D01*
X267874Y312063D01*
X267944Y311967D01*
X268007Y311866D01*
X268037Y311838D01*
X268061Y311806D01*
X268152Y311730D01*
X268239Y311648D01*
X268274Y311629D01*
X268305Y311603D01*
X268413Y311552D01*
X268517Y311495D01*
X268557Y311484D01*
X268593Y311467D01*
X268710Y311445D01*
X268825Y311415D01*
X268886Y311411D01*
X268906Y311407D01*
X268926Y311409D01*
X268986Y311405D01*
X270257Y311405D01*
X270257Y311403D01*
X268986Y311403D01*
X268868Y311388D01*
X268749Y311381D01*
X268711Y311368D01*
X268671Y311363D01*
X268560Y311319D01*
X268447Y311283D01*
X268412Y311261D01*
X268375Y311246D01*
X268279Y311176D01*
X268178Y311113D01*
X268150Y311083D01*
X268117Y311059D01*
X268042Y310968D01*
X267960Y310881D01*
X267940Y310846D01*
X267915Y310814D01*
X267864Y310707D01*
X267806Y310603D01*
X267796Y310563D01*
X267779Y310527D01*
X267757Y310410D01*
X267727Y310295D01*
X267723Y310234D01*
X267719Y310214D01*
X267721Y310194D01*
X267717Y310134D01*
X267717Y302513D01*
X260249Y302513D01*
X260237Y302515D01*
X260111Y302500D01*
X259986Y302493D01*
X259954Y302482D01*
X259921Y302479D01*
X259803Y302433D01*
X259684Y302395D01*
X259655Y302377D01*
X259624Y302365D01*
X259521Y302292D01*
X259415Y302224D01*
X259392Y302200D01*
X259365Y302181D01*
X259283Y302084D01*
X259197Y301993D01*
X259181Y301964D01*
X259159Y301938D01*
X259104Y301824D01*
X259043Y301714D01*
X259035Y301682D01*
X259020Y301652D01*
X258995Y301528D01*
X258964Y301406D01*
X258961Y301358D01*
X258957Y301340D01*
X258958Y301318D01*
X258954Y301246D01*
X258954Y290513D01*
X258959Y290473D01*
X258956Y290433D01*
X258979Y290316D01*
X258994Y290197D01*
X259008Y290160D01*
X259016Y290120D01*
X259067Y290012D01*
X259111Y289902D01*
X259134Y289869D01*
X259151Y289833D01*
X259228Y289741D01*
X259297Y289644D01*
X259329Y289619D01*
X259354Y289588D01*
X259478Y289485D01*
X263599Y286500D01*
X263742Y286422D01*
X263875Y286348D01*
X263877Y286348D01*
X263878Y286347D01*
X264038Y286307D01*
X264183Y286269D01*
X264185Y286269D01*
X264186Y286269D01*
X264189Y286269D01*
X264344Y286259D01*
X280413Y286259D01*
X281306Y285366D01*
X281306Y277240D01*
X281318Y277142D01*
X281321Y277043D01*
X281338Y276984D01*
X281346Y276924D01*
X281382Y276832D01*
X281410Y276737D01*
X281440Y276685D01*
X281463Y276629D01*
X281521Y276549D01*
X281571Y276463D01*
X281637Y276388D01*
X281649Y276371D01*
X281659Y276363D01*
X281677Y276342D01*
X281814Y276206D01*
X281814Y275964D01*
X281818Y275930D01*
X281816Y275896D01*
X281838Y275773D01*
X281854Y275649D01*
X281866Y275617D01*
X281872Y275583D01*
X281930Y275433D01*
X282031Y275213D01*
X281892Y274837D01*
X281860Y274697D01*
X281824Y274558D01*
X281823Y274537D01*
X281820Y274527D01*
X281821Y274509D01*
X281814Y274397D01*
X281814Y266910D01*
X281829Y266792D01*
X281836Y266673D01*
X281849Y266635D01*
X281854Y266594D01*
X281897Y266484D01*
X281934Y266371D01*
X281956Y266336D01*
X281971Y266299D01*
X282040Y266203D01*
X282104Y266102D01*
X282134Y266074D01*
X282157Y266041D01*
X282249Y265965D01*
X282336Y265884D01*
X282371Y265864D01*
X282402Y265839D01*
X282510Y265788D01*
X282614Y265730D01*
X282654Y265720D01*
X282690Y265703D01*
X282807Y265681D01*
X282922Y265651D01*
X282982Y265647D01*
X283002Y265643D01*
X283023Y265645D01*
X283083Y265641D01*
X287088Y265641D01*
X287981Y264748D01*
X287981Y243484D01*
X287088Y242591D01*
X281898Y242591D01*
X281760Y242574D01*
X281621Y242561D01*
X281602Y242554D01*
X281582Y242551D01*
X281453Y242500D01*
X281322Y242453D01*
X281305Y242442D01*
X281286Y242434D01*
X281174Y242353D01*
X281059Y242275D01*
X281046Y242259D01*
X281029Y242248D01*
X280940Y242140D01*
X280848Y242036D01*
X280839Y242018D01*
X280826Y242003D01*
X280767Y241877D01*
X280704Y241753D01*
X280699Y241733D01*
X280691Y241715D01*
X280665Y241579D01*
X280634Y241443D01*
X280635Y241422D01*
X280631Y241403D01*
X280640Y241264D01*
X280644Y241125D01*
X280650Y241105D01*
X280651Y241085D01*
X280694Y240953D01*
X280732Y240819D01*
X280743Y240802D01*
X280749Y240783D01*
X280823Y240665D01*
X280894Y240545D01*
X280912Y240524D01*
X280919Y240514D01*
X280934Y240500D01*
X281000Y240424D01*
X281530Y239894D01*
X281609Y239834D01*
X281681Y239766D01*
X281734Y239737D01*
X281782Y239700D01*
X281872Y239660D01*
X281959Y239612D01*
X282018Y239597D01*
X282073Y239573D01*
X282171Y239558D01*
X282267Y239533D01*
X282367Y239527D01*
X282388Y239523D01*
X282400Y239525D01*
X282428Y239523D01*
X283916Y239523D01*
X285690Y238788D01*
X287048Y237430D01*
X287783Y235656D01*
X287783Y233736D01*
X287048Y231962D01*
X285690Y230604D01*
X283916Y229869D01*
X281996Y229869D01*
G37*
%LPD*%
%LPC*%
G36*
X291524Y242591D02*
X291524Y242591D01*
X290631Y243484D01*
X290631Y264748D01*
X291524Y265641D01*
X291719Y265641D01*
X291837Y265656D01*
X291956Y265663D01*
X291994Y265676D01*
X292035Y265681D01*
X292145Y265724D01*
X292258Y265761D01*
X292293Y265783D01*
X292330Y265798D01*
X292426Y265867D01*
X292527Y265931D01*
X292555Y265961D01*
X292588Y265984D01*
X292664Y266076D01*
X292745Y266163D01*
X292765Y266198D01*
X292790Y266229D01*
X292841Y266337D01*
X292899Y266441D01*
X292909Y266481D01*
X292926Y266517D01*
X292948Y266634D01*
X292978Y266749D01*
X292982Y266809D01*
X292986Y266829D01*
X292984Y266850D01*
X292988Y266910D01*
X292988Y269240D01*
X292973Y269358D01*
X292966Y269477D01*
X292953Y269515D01*
X292948Y269556D01*
X292905Y269666D01*
X292868Y269779D01*
X292846Y269814D01*
X292831Y269851D01*
X292762Y269947D01*
X292698Y270048D01*
X292668Y270076D01*
X292645Y270109D01*
X292553Y270185D01*
X292466Y270266D01*
X292431Y270286D01*
X292400Y270311D01*
X292292Y270362D01*
X292188Y270420D01*
X292148Y270430D01*
X292112Y270447D01*
X291995Y270469D01*
X291880Y270499D01*
X291820Y270503D01*
X291800Y270507D01*
X291779Y270505D01*
X291719Y270509D01*
X285499Y270509D01*
X284606Y271402D01*
X284606Y275085D01*
X284594Y275179D01*
X284593Y275240D01*
X284596Y275252D01*
X284602Y275338D01*
X284604Y275350D01*
X284603Y275361D01*
X284606Y275413D01*
X284606Y285366D01*
X285499Y286259D01*
X305813Y286259D01*
X306706Y285366D01*
X306706Y271402D01*
X305813Y270509D01*
X299593Y270509D01*
X299475Y270494D01*
X299356Y270487D01*
X299318Y270474D01*
X299277Y270469D01*
X299167Y270426D01*
X299054Y270389D01*
X299019Y270367D01*
X298982Y270352D01*
X298886Y270283D01*
X298785Y270219D01*
X298757Y270189D01*
X298724Y270166D01*
X298648Y270074D01*
X298567Y269987D01*
X298547Y269952D01*
X298522Y269921D01*
X298471Y269813D01*
X298413Y269709D01*
X298403Y269669D01*
X298386Y269633D01*
X298364Y269516D01*
X298334Y269401D01*
X298330Y269341D01*
X298326Y269321D01*
X298328Y269300D01*
X298324Y269240D01*
X298324Y266910D01*
X298339Y266792D01*
X298346Y266673D01*
X298359Y266635D01*
X298364Y266594D01*
X298407Y266484D01*
X298444Y266371D01*
X298466Y266336D01*
X298481Y266299D01*
X298550Y266203D01*
X298614Y266102D01*
X298644Y266074D01*
X298667Y266041D01*
X298759Y265965D01*
X298846Y265884D01*
X298881Y265864D01*
X298912Y265839D01*
X299020Y265788D01*
X299124Y265730D01*
X299164Y265720D01*
X299200Y265703D01*
X299317Y265681D01*
X299432Y265651D01*
X299492Y265647D01*
X299512Y265643D01*
X299533Y265645D01*
X299593Y265641D01*
X299788Y265641D01*
X300681Y264748D01*
X300681Y243484D01*
X299788Y242591D01*
X291524Y242591D01*
G37*
%LPD*%
%LPC*%
G36*
X83399Y324258D02*
X83399Y324258D01*
X81449Y325066D01*
X79956Y326559D01*
X79148Y328509D01*
X79148Y330635D01*
X79171Y330738D01*
X79206Y330863D01*
X79206Y330892D01*
X79213Y330921D01*
X79209Y331051D01*
X79211Y331181D01*
X79204Y331210D01*
X79203Y331239D01*
X79167Y331364D01*
X79137Y331490D01*
X79123Y331516D01*
X79114Y331545D01*
X79049Y331657D01*
X78988Y331771D01*
X78968Y331793D01*
X78953Y331819D01*
X78847Y331940D01*
X45145Y365642D01*
X43433Y367353D01*
X43433Y374085D01*
X43430Y374115D01*
X43432Y374144D01*
X43410Y374272D01*
X43393Y374401D01*
X43383Y374428D01*
X43377Y374457D01*
X43324Y374576D01*
X43276Y374696D01*
X43259Y374720D01*
X43247Y374747D01*
X43166Y374849D01*
X43090Y374954D01*
X43067Y374973D01*
X43048Y374996D01*
X42945Y375074D01*
X42845Y375157D01*
X42818Y375169D01*
X42794Y375187D01*
X42724Y375222D01*
X41221Y376724D01*
X40413Y378674D01*
X40413Y380786D01*
X41221Y382736D01*
X42714Y384229D01*
X44664Y385037D01*
X46776Y385037D01*
X48726Y384229D01*
X50219Y382736D01*
X51027Y380786D01*
X51027Y378674D01*
X50219Y376724D01*
X48716Y375221D01*
X48627Y375164D01*
X48514Y375100D01*
X48493Y375080D01*
X48468Y375064D01*
X48379Y374969D01*
X48286Y374879D01*
X48270Y374854D01*
X48250Y374832D01*
X48187Y374719D01*
X48119Y374608D01*
X48111Y374580D01*
X48096Y374554D01*
X48064Y374428D01*
X48026Y374304D01*
X48024Y374274D01*
X48017Y374246D01*
X48007Y374085D01*
X48007Y369773D01*
X48019Y369675D01*
X48022Y369576D01*
X48039Y369518D01*
X48047Y369457D01*
X48083Y369365D01*
X48111Y369270D01*
X48141Y369218D01*
X48164Y369162D01*
X48222Y369082D01*
X48272Y368996D01*
X48338Y368921D01*
X48350Y368904D01*
X48360Y368897D01*
X48378Y368875D01*
X82080Y335173D01*
X82104Y335155D01*
X82123Y335133D01*
X82229Y335058D01*
X82332Y334979D01*
X82359Y334967D01*
X82383Y334950D01*
X82504Y334904D01*
X82624Y334852D01*
X82653Y334848D01*
X82681Y334837D01*
X82809Y334823D01*
X82938Y334802D01*
X82967Y334805D01*
X82997Y334802D01*
X83125Y334820D01*
X83254Y334832D01*
X83282Y334842D01*
X83311Y334846D01*
X83386Y334872D01*
X85511Y334872D01*
X87461Y334064D01*
X88954Y332571D01*
X89762Y330621D01*
X89762Y328509D01*
X88954Y326559D01*
X87461Y325066D01*
X85511Y324258D01*
X83399Y324258D01*
G37*
%LPD*%
%LPC*%
G36*
X59948Y126595D02*
X59948Y126595D01*
X59055Y127488D01*
X59055Y141752D01*
X59948Y142645D01*
X70104Y142645D01*
X70222Y142660D01*
X70341Y142667D01*
X70379Y142680D01*
X70420Y142685D01*
X70530Y142728D01*
X70643Y142765D01*
X70678Y142787D01*
X70715Y142802D01*
X70811Y142871D01*
X70912Y142935D01*
X70940Y142965D01*
X70973Y142988D01*
X71049Y143080D01*
X71130Y143167D01*
X71150Y143202D01*
X71175Y143233D01*
X71226Y143341D01*
X71284Y143445D01*
X71294Y143485D01*
X71311Y143521D01*
X71333Y143638D01*
X71363Y143753D01*
X71367Y143813D01*
X71371Y143833D01*
X71369Y143854D01*
X71373Y143914D01*
X71373Y144215D01*
X71370Y144245D01*
X71372Y144274D01*
X71350Y144402D01*
X71333Y144531D01*
X71323Y144558D01*
X71317Y144587D01*
X71264Y144706D01*
X71216Y144826D01*
X71199Y144850D01*
X71187Y144877D01*
X71106Y144979D01*
X71030Y145084D01*
X71007Y145103D01*
X70988Y145126D01*
X70885Y145204D01*
X70785Y145287D01*
X70758Y145299D01*
X70734Y145317D01*
X70664Y145352D01*
X69161Y146854D01*
X68353Y148804D01*
X68353Y150916D01*
X69161Y152866D01*
X70654Y154359D01*
X72604Y155167D01*
X74716Y155167D01*
X76666Y154359D01*
X78159Y152866D01*
X78967Y150916D01*
X78967Y148804D01*
X78159Y146854D01*
X76656Y145351D01*
X76567Y145294D01*
X76454Y145230D01*
X76433Y145210D01*
X76408Y145194D01*
X76319Y145099D01*
X76226Y145009D01*
X76210Y144984D01*
X76190Y144962D01*
X76127Y144849D01*
X76059Y144738D01*
X76051Y144710D01*
X76036Y144684D01*
X76004Y144558D01*
X75966Y144434D01*
X75964Y144404D01*
X75957Y144376D01*
X75947Y144215D01*
X75947Y143914D01*
X75962Y143796D01*
X75969Y143677D01*
X75982Y143639D01*
X75987Y143598D01*
X76030Y143488D01*
X76067Y143375D01*
X76089Y143340D01*
X76104Y143303D01*
X76173Y143207D01*
X76237Y143106D01*
X76267Y143078D01*
X76290Y143045D01*
X76382Y142969D01*
X76469Y142888D01*
X76504Y142868D01*
X76535Y142843D01*
X76643Y142792D01*
X76747Y142734D01*
X76787Y142724D01*
X76823Y142707D01*
X76940Y142685D01*
X77055Y142655D01*
X77115Y142651D01*
X77135Y142647D01*
X77156Y142649D01*
X77211Y142645D01*
X78105Y141752D01*
X78105Y127488D01*
X77212Y126595D01*
X59948Y126595D01*
G37*
%LPD*%
%LPC*%
G36*
X237824Y237291D02*
X237824Y237291D01*
X236931Y238184D01*
X236931Y246448D01*
X237824Y247341D01*
X259088Y247341D01*
X259981Y246448D01*
X259981Y238184D01*
X259088Y237291D01*
X237824Y237291D01*
G37*
%LPD*%
%LPC*%
G36*
X306824Y211891D02*
X306824Y211891D01*
X305931Y212784D01*
X305931Y221048D01*
X306824Y221941D01*
X328088Y221941D01*
X328981Y221048D01*
X328981Y212784D01*
X328088Y211891D01*
X306824Y211891D01*
G37*
%LPD*%
%LPC*%
G36*
X272795Y313943D02*
X272795Y313943D01*
X272795Y320295D01*
X280115Y320295D01*
X280762Y320122D01*
X281341Y319787D01*
X281814Y319314D01*
X281857Y319240D01*
X281937Y319135D01*
X282012Y319026D01*
X282033Y319008D01*
X282049Y318987D01*
X282153Y318904D01*
X282253Y318818D01*
X282277Y318806D01*
X282298Y318789D01*
X282419Y318735D01*
X282538Y318676D01*
X282564Y318671D01*
X282589Y318660D01*
X282719Y318638D01*
X282849Y318610D01*
X282876Y318611D01*
X282902Y318607D01*
X283034Y318618D01*
X283166Y318623D01*
X283192Y318631D01*
X283219Y318633D01*
X283344Y318676D01*
X283471Y318715D01*
X283494Y318729D01*
X283520Y318737D01*
X283630Y318811D01*
X283743Y318879D01*
X283762Y318898D01*
X283785Y318913D01*
X283873Y319012D01*
X283966Y319106D01*
X283987Y319138D01*
X283998Y319149D01*
X284008Y319169D01*
X284055Y319240D01*
X284098Y319314D01*
X284571Y319787D01*
X285150Y320122D01*
X285797Y320295D01*
X293117Y320295D01*
X293117Y313943D01*
X272795Y313943D01*
G37*
%LPD*%
%LPC*%
G36*
X298195Y313943D02*
X298195Y313943D01*
X298195Y320295D01*
X305515Y320295D01*
X306162Y320122D01*
X306741Y319787D01*
X307214Y319314D01*
X307257Y319240D01*
X307337Y319135D01*
X307412Y319026D01*
X307433Y319008D01*
X307449Y318987D01*
X307553Y318904D01*
X307653Y318818D01*
X307677Y318806D01*
X307698Y318789D01*
X307819Y318735D01*
X307938Y318676D01*
X307964Y318671D01*
X307989Y318660D01*
X308119Y318638D01*
X308249Y318610D01*
X308276Y318611D01*
X308302Y318607D01*
X308434Y318618D01*
X308566Y318623D01*
X308592Y318631D01*
X308619Y318633D01*
X308744Y318676D01*
X308871Y318715D01*
X308894Y318729D01*
X308920Y318737D01*
X309030Y318811D01*
X309143Y318879D01*
X309162Y318898D01*
X309185Y318913D01*
X309273Y319012D01*
X309366Y319106D01*
X309387Y319138D01*
X309398Y319149D01*
X309408Y319169D01*
X309455Y319240D01*
X309498Y319314D01*
X309971Y319787D01*
X310550Y320122D01*
X311197Y320295D01*
X318517Y320295D01*
X318517Y313943D01*
X298195Y313943D01*
G37*
%LPD*%
%LPC*%
G36*
X285797Y302513D02*
X285797Y302513D01*
X285150Y302686D01*
X284571Y303021D01*
X284098Y303494D01*
X284055Y303568D01*
X283975Y303674D01*
X283900Y303782D01*
X283879Y303800D01*
X283863Y303821D01*
X283759Y303904D01*
X283659Y303990D01*
X283635Y304002D01*
X283614Y304019D01*
X283493Y304073D01*
X283374Y304132D01*
X283348Y304137D01*
X283323Y304148D01*
X283193Y304170D01*
X283063Y304198D01*
X283036Y304197D01*
X283010Y304201D01*
X282877Y304190D01*
X282745Y304185D01*
X282720Y304177D01*
X282693Y304175D01*
X282567Y304131D01*
X282441Y304093D01*
X282418Y304079D01*
X282392Y304071D01*
X282282Y303997D01*
X282169Y303929D01*
X282150Y303910D01*
X282127Y303895D01*
X282039Y303796D01*
X281946Y303702D01*
X281925Y303670D01*
X281914Y303659D01*
X281904Y303639D01*
X281857Y303568D01*
X281814Y303494D01*
X281341Y303021D01*
X280762Y302686D01*
X280115Y302513D01*
X272795Y302513D01*
X272795Y308865D01*
X293117Y308865D01*
X293117Y302513D01*
X285797Y302513D01*
G37*
%LPD*%
%LPC*%
G36*
X311197Y302513D02*
X311197Y302513D01*
X310550Y302686D01*
X309971Y303021D01*
X309498Y303494D01*
X309455Y303568D01*
X309375Y303674D01*
X309300Y303782D01*
X309279Y303800D01*
X309263Y303821D01*
X309159Y303904D01*
X309059Y303990D01*
X309035Y304002D01*
X309014Y304019D01*
X308893Y304073D01*
X308774Y304132D01*
X308748Y304137D01*
X308723Y304148D01*
X308593Y304170D01*
X308463Y304198D01*
X308436Y304197D01*
X308410Y304201D01*
X308277Y304190D01*
X308145Y304185D01*
X308120Y304177D01*
X308093Y304175D01*
X307967Y304131D01*
X307841Y304093D01*
X307818Y304079D01*
X307792Y304071D01*
X307682Y303997D01*
X307569Y303929D01*
X307550Y303910D01*
X307527Y303895D01*
X307439Y303796D01*
X307346Y303702D01*
X307325Y303670D01*
X307314Y303659D01*
X307304Y303639D01*
X307257Y303568D01*
X307214Y303494D01*
X306741Y303021D01*
X306162Y302686D01*
X305515Y302513D01*
X298195Y302513D01*
X298195Y308865D01*
X318517Y308865D01*
X318517Y302513D01*
X311197Y302513D01*
G37*
%LPD*%
%LPC*%
G36*
X194524Y37873D02*
X194524Y37873D01*
X192574Y38681D01*
X191081Y40174D01*
X190273Y42124D01*
X190273Y44236D01*
X191081Y46186D01*
X192574Y47679D01*
X194524Y48487D01*
X196636Y48487D01*
X198586Y47679D01*
X200079Y46186D01*
X200887Y44236D01*
X200887Y42124D01*
X200079Y40174D01*
X198586Y38681D01*
X196636Y37873D01*
X194524Y37873D01*
G37*
%LPD*%
%LPC*%
G36*
X21589Y83819D02*
X21589Y83819D01*
X21589Y92821D01*
X26384Y92821D01*
X27031Y92648D01*
X27610Y92313D01*
X28083Y91840D01*
X28418Y91261D01*
X28591Y90614D01*
X28591Y83819D01*
X21589Y83819D01*
G37*
%LPD*%
%LPC*%
G36*
X21589Y69739D02*
X21589Y69739D01*
X21589Y78741D01*
X28591Y78741D01*
X28591Y71946D01*
X28418Y71299D01*
X28083Y70720D01*
X27610Y70247D01*
X27031Y69912D01*
X26384Y69739D01*
X21589Y69739D01*
G37*
%LPD*%
%LPC*%
G36*
X9509Y83819D02*
X9509Y83819D01*
X9509Y90614D01*
X9682Y91261D01*
X10017Y91840D01*
X10490Y92313D01*
X11069Y92648D01*
X11716Y92821D01*
X16511Y92821D01*
X16511Y83819D01*
X9509Y83819D01*
G37*
%LPD*%
%LPC*%
G36*
X11716Y69739D02*
X11716Y69739D01*
X11069Y69912D01*
X10490Y70247D01*
X10017Y70720D01*
X9682Y71299D01*
X9509Y71946D01*
X9509Y78741D01*
X16511Y78741D01*
X16511Y69739D01*
X11716Y69739D01*
G37*
%LPD*%
%LPC*%
G36*
X134239Y83819D02*
X134239Y83819D01*
X134239Y88114D01*
X134412Y88761D01*
X134747Y89340D01*
X135220Y89813D01*
X135799Y90148D01*
X136446Y90321D01*
X142241Y90321D01*
X142241Y83819D01*
X134239Y83819D01*
G37*
%LPD*%
%LPC*%
G36*
X136446Y72239D02*
X136446Y72239D01*
X135799Y72412D01*
X135220Y72747D01*
X134747Y73220D01*
X134412Y73799D01*
X134239Y74446D01*
X134239Y78741D01*
X142241Y78741D01*
X142241Y72239D01*
X136446Y72239D01*
G37*
%LPD*%
%LPC*%
G36*
X295655Y311403D02*
X295655Y311403D01*
X295655Y311405D01*
X295657Y311405D01*
X295657Y311403D01*
X295655Y311403D01*
G37*
%LPD*%
%LPC*%
G36*
X19049Y81279D02*
X19049Y81279D01*
X19049Y81281D01*
X19051Y81281D01*
X19051Y81279D01*
X19049Y81279D01*
G37*
%LPD*%
D10*
X109220Y127000D03*
D11*
X120720Y134500D03*
X120720Y129500D03*
X120720Y124500D03*
X120720Y119500D03*
X97720Y119500D03*
X97720Y124500D03*
X97720Y129500D03*
X97720Y134500D03*
D12*
X19050Y81280D03*
X44450Y81280D03*
D13*
X68580Y104140D03*
X68580Y134620D03*
D14*
X86360Y80010D03*
X116840Y80010D03*
D13*
X144780Y81280D03*
X144780Y111760D03*
D14*
X165100Y80010D03*
X195580Y80010D03*
D15*
X270256Y311404D03*
X270256Y278384D03*
X295656Y311404D03*
X295656Y278384D03*
X321056Y311404D03*
X321056Y278384D03*
D16*
X317456Y216916D03*
D17*
X295656Y205116D03*
X282956Y205116D03*
X270256Y205116D03*
X270256Y254116D03*
X282956Y254116D03*
X295656Y254116D03*
D16*
X317456Y242316D03*
X248456Y216916D03*
X248456Y242316D03*
D18*
X144780Y81280D02*
X144780Y67310D01*
X140335Y62865D01*
X139700Y62230D01*
X20320Y62230D01*
X20320Y80010D01*
X19050Y81280D01*
X19050Y100330D01*
X97720Y129500D02*
X97720Y132080D01*
X97720Y134500D01*
X87510Y134500D01*
X38100Y119380D02*
X19050Y100330D01*
X72390Y119380D02*
X87510Y134500D01*
X72390Y119380D02*
X38100Y119380D01*
X97720Y132080D02*
X104140Y132080D01*
X109220Y127000D01*
X140335Y62865D02*
X224155Y62865D01*
X233680Y72390D01*
X234950Y73660D01*
D19*
X233680Y72390D03*
X33020Y345440D03*
D18*
X33020Y353060D01*
X5080Y381000D01*
X5080Y430530D01*
X6350Y431800D01*
D19*
X6350Y431800D03*
D18*
X270256Y311404D02*
X321056Y311404D01*
X321056Y321564D01*
X316230Y326390D01*
X314198Y326390D01*
D19*
X314198Y326390D03*
X143510Y55880D03*
X151130Y250190D03*
X160020Y337820D03*
X114300Y361950D03*
X198120Y346710D03*
X53340Y262890D03*
X67310Y196850D03*
X25400Y120650D03*
X85090Y20320D03*
X44450Y17780D03*
X27940Y44450D03*
X321310Y191770D03*
X278130Y170180D03*
X290830Y300990D03*
X353060Y111760D03*
X84455Y329565D03*
D18*
X45720Y368300D01*
D19*
X45720Y379730D03*
D18*
X45720Y368300D01*
D19*
X335280Y96520D03*
D18*
X335280Y101600D01*
X302260Y101600D02*
X265430Y138430D01*
X226060Y138430D01*
X86360Y86360D02*
X86360Y80010D01*
X68580Y104140D02*
X67310Y104140D01*
X44450Y81280D01*
X195580Y80010D02*
X197485Y81915D01*
X217170Y101600D01*
X302260Y101600D01*
X298450Y101600D02*
X335280Y101600D01*
X97815Y119405D02*
X97720Y119500D01*
X97815Y119405D02*
X99060Y118160D01*
X99060Y114300D01*
X120650Y114300D01*
X137160Y97790D02*
X153670Y97790D01*
X166370Y110490D01*
X170180Y110490D01*
X197485Y83185D01*
X197485Y81915D01*
X137160Y97790D02*
X120650Y114300D01*
X97815Y119405D02*
X86360Y107950D01*
X86360Y104140D02*
X86360Y80010D01*
X86360Y104140D02*
X86360Y107950D01*
X86360Y104140D02*
X68580Y104140D01*
D20*
X282956Y205116D02*
X295656Y205116D01*
X282956Y205116D02*
X270256Y205116D01*
X260256Y205116D01*
X248456Y216916D01*
X247396Y216916D01*
X223266Y241046D01*
X223266Y320684D01*
D18*
X125730Y238760D02*
X226060Y138430D01*
X125730Y238760D02*
X125730Y355600D01*
X138430Y368300D01*
X214630Y368300D02*
X228600Y382270D01*
X220345Y390525D01*
X220345Y473075D01*
X337820Y474980D02*
X337820Y427990D01*
D19*
X337820Y427990D03*
D18*
X214630Y368300D02*
X138430Y368300D01*
X220345Y473075D02*
X231140Y483870D01*
X328930Y483870D01*
X337820Y474980D01*
X223266Y326136D02*
X223266Y320684D01*
X271780Y374650D02*
X280670Y374650D01*
D19*
X280670Y374650D03*
D18*
X271780Y374650D02*
X223266Y326136D01*
X126880Y119500D02*
X120720Y119500D01*
D19*
X128270Y118110D03*
X73660Y149860D03*
D18*
X73660Y139700D01*
X68580Y134620D01*
X126880Y119500D02*
X128270Y118110D01*
D19*
X124460Y162560D03*
D18*
X113030Y427990D02*
X212090Y427990D01*
X113030Y427990D02*
X104140Y419100D01*
X104140Y182880D02*
X124460Y162560D01*
X104140Y182880D02*
X104140Y419100D01*
D19*
X212090Y427990D03*
D18*
X120720Y140900D02*
X120720Y134500D01*
X120720Y140900D02*
X120650Y140970D01*
X120650Y143510D01*
D19*
X120650Y143510D03*
X115570Y106680D03*
D18*
X115570Y81280D01*
X116840Y80010D01*
D19*
X148590Y156210D03*
D18*
X114300Y190500D02*
X114300Y361950D01*
X114300Y190500D02*
X148590Y156210D01*
X130810Y378460D02*
X212090Y378460D01*
X130810Y378460D02*
X114300Y361950D01*
D19*
X212090Y378460D03*
D18*
X127040Y129500D02*
X144780Y111760D01*
X127040Y129500D02*
X120720Y129500D01*
X97720Y124500D02*
X97680Y124460D01*
X88900Y124460D01*
D19*
X88900Y124460D03*
X166370Y99060D03*
D18*
X166370Y81280D01*
X165100Y80010D01*
D20*
X282956Y254116D02*
X279146Y257926D01*
X279146Y275101D01*
X270256Y278384D01*
X256286Y288503D01*
X256286Y337566D01*
D19*
X256286Y337566D03*
D20*
X317456Y260350D02*
X317456Y242316D01*
D21*
X327406Y261366D03*
D20*
X317456Y261366D02*
X317456Y260350D01*
X317456Y261366D02*
X327406Y261366D01*
D18*
X317456Y260350D02*
X317456Y274784D01*
X321056Y278384D01*
X337820Y271780D02*
X327406Y261366D01*
X243840Y427990D02*
X242570Y429260D01*
D19*
X242570Y429260D03*
D18*
X337820Y356870D02*
X337820Y271780D01*
X337820Y356870D02*
X266700Y427990D01*
X243840Y427990D01*
D21*
X282956Y234696D03*
D20*
X275336Y242316D02*
X275336Y249036D01*
X275336Y242316D02*
X282956Y234696D01*
X275336Y249036D02*
X270256Y254116D01*
X295656Y254116D02*
X295656Y278384D01*
D19*
X195580Y43180D03*
M02*
