G04 EAGLE Gerber RS-274X export*
G75*
%MOMM*%
%FSLAX34Y34*%
%LPD*%
%INSolderpaste Top*%
%IPPOS*%
%AMOC8*
5,1,8,0,0,1.08239X$1,22.5*%
G01*
%ADD10R,1.800000X3.000000*%
%ADD11R,0.760000X2.050000*%
%ADD12R,1.270000X1.905000*%
%ADD13R,0.800000X0.900000*%
%ADD14R,1.905000X1.270000*%


D10*
X8130Y405280D03*
X8130Y455280D03*
X33530Y405280D03*
X33530Y455280D03*
X58930Y405280D03*
X58930Y455280D03*
X84330Y405280D03*
X84330Y455280D03*
X109730Y405280D03*
X109730Y455280D03*
X135130Y405280D03*
X135130Y455280D03*
X160530Y405280D03*
X160530Y455280D03*
X185930Y405280D03*
X185930Y455280D03*
X211330Y405280D03*
X211330Y455280D03*
X236730Y405280D03*
X236730Y455280D03*
X262130Y405280D03*
X262130Y455280D03*
X287530Y405280D03*
X287530Y455280D03*
X312930Y405280D03*
X312930Y455280D03*
X338330Y405280D03*
X338330Y455280D03*
X363730Y405280D03*
X363730Y455280D03*
D11*
X280670Y39150D03*
X280670Y74650D03*
X293370Y39150D03*
X293370Y74650D03*
X306070Y39150D03*
X306070Y74650D03*
X318770Y39150D03*
X318770Y74650D03*
X331470Y39150D03*
X331470Y74650D03*
D12*
X281178Y350266D03*
X314198Y350266D03*
D13*
X246736Y268826D03*
X227736Y268826D03*
X237236Y247826D03*
D14*
X228346Y168148D03*
X228346Y201168D03*
X244856Y320294D03*
X244856Y287274D03*
D12*
X189738Y286766D03*
X222758Y286766D03*
X236728Y228346D03*
X269748Y228346D03*
M02*
