M48
;GenerationSoftware,Autodesk,EAGLE,9.4.2*%
;CreationDate,2019-07-08T15:00:54Z*%
FMAT,2
ICI,OFF
METRIC,TZ,000.000
T2C0.254
T1C0.350
%
G90
M71
T1
X23368Y7239
X3302Y34544
X635Y43180
X31420Y32639
X14351Y5588
X15113Y25019
X16002Y33782
X11430Y36195
X19812Y34671
X5334Y26289
X6731Y19685
X2540Y12065
X8509Y2032
X4445Y1778
X2794Y4445
X32131Y19177
X27813Y17018
X29083Y30099
X35306Y11176
X8446Y32957
X4572Y37973
X33528Y9652
X33782Y42799
X28067Y37465
X12827Y11811
X7366Y14986
X12446Y16256
X21209Y42799
X12065Y14351
X11557Y10668
X14859Y15621
X21209Y37846
X8890Y12446
X16637Y9906
X25629Y33757
X24257Y42926
X19558Y4318
T2
X28296Y23470
X32741Y26137
M30