G04 EAGLE Gerber RS-274X export*
G75*
%MOMM*%
%FSLAX34Y34*%
%LPD*%
%INSoldermask Bottom*%
%IPPOS*%
%AMOC8*
5,1,8,0,0,1.08239X$1,22.5*%
G01*
%ADD10R,1.203200X1.903200*%
%ADD11R,0.803200X0.453200*%
%ADD12R,1.603200X2.003200*%
%ADD13R,1.803200X1.503200*%
%ADD14R,1.503200X1.803200*%
%ADD15R,2.108200X1.473200*%
%ADD16R,2.203200X0.903200*%
%ADD17R,0.903200X2.203200*%
%ADD18C,0.959600*%
%ADD19C,0.863600*%


D10*
X109220Y127000D03*
D11*
X120720Y134500D03*
X120720Y129500D03*
X120720Y124500D03*
X120720Y119500D03*
X97720Y119500D03*
X97720Y124500D03*
X97720Y129500D03*
X97720Y134500D03*
D12*
X19050Y81280D03*
X44450Y81280D03*
D13*
X68580Y104140D03*
X68580Y134620D03*
D14*
X86360Y80010D03*
X116840Y80010D03*
D13*
X144780Y81280D03*
X144780Y111760D03*
D14*
X165100Y80010D03*
X195580Y80010D03*
D15*
X270256Y311404D03*
X270256Y278384D03*
X295656Y311404D03*
X295656Y278384D03*
X321056Y311404D03*
X321056Y278384D03*
D16*
X317456Y216916D03*
D17*
X295656Y205116D03*
X282956Y205116D03*
X270256Y205116D03*
X270256Y254116D03*
X282956Y254116D03*
X295656Y254116D03*
D16*
X317456Y242316D03*
X248456Y216916D03*
X248456Y242316D03*
D18*
X233680Y72390D03*
X33020Y345440D03*
X6350Y431800D03*
X314198Y326390D03*
X143510Y55880D03*
X151130Y250190D03*
X160020Y337820D03*
X114300Y361950D03*
X198120Y346710D03*
X53340Y262890D03*
X67310Y196850D03*
X25400Y120650D03*
X85090Y20320D03*
X44450Y17780D03*
X27940Y44450D03*
X321310Y191770D03*
X278130Y170180D03*
X290830Y300990D03*
X353060Y111760D03*
X84455Y329565D03*
X45720Y379730D03*
X335280Y96520D03*
X337820Y427990D03*
X280670Y374650D03*
X128270Y118110D03*
X73660Y149860D03*
X124460Y162560D03*
X212090Y427990D03*
X120650Y143510D03*
X115570Y106680D03*
X148590Y156210D03*
X212090Y378460D03*
X88900Y124460D03*
X166370Y99060D03*
X256286Y337566D03*
D19*
X327406Y261366D03*
D18*
X242570Y429260D03*
D19*
X282956Y234696D03*
D18*
X195580Y43180D03*
M02*
