G04 EAGLE Gerber RS-274X export*
G75*
%MOMM*%
%FSLAX34Y34*%
%LPD*%
%INSoldermask Top*%
%IPPOS*%
%AMOC8*
5,1,8,0,0,1.08239X$1,22.5*%
G01*
%ADD10R,2.003200X3.203200*%
%ADD11R,0.963200X2.253200*%
%ADD12R,1.473200X2.108200*%
%ADD13R,1.003200X1.103200*%
%ADD14R,2.108200X1.473200*%
%ADD15C,0.959600*%
%ADD16C,0.863600*%


D10*
X8130Y405280D03*
X8130Y455280D03*
X33530Y405280D03*
X33530Y455280D03*
X58930Y405280D03*
X58930Y455280D03*
X84330Y405280D03*
X84330Y455280D03*
X109730Y405280D03*
X109730Y455280D03*
X135130Y405280D03*
X135130Y455280D03*
X160530Y405280D03*
X160530Y455280D03*
X185930Y405280D03*
X185930Y455280D03*
X211330Y405280D03*
X211330Y455280D03*
X236730Y405280D03*
X236730Y455280D03*
X262130Y405280D03*
X262130Y455280D03*
X287530Y405280D03*
X287530Y455280D03*
X312930Y405280D03*
X312930Y455280D03*
X338330Y405280D03*
X338330Y455280D03*
X363730Y405280D03*
X363730Y455280D03*
D11*
X280670Y39150D03*
X280670Y74650D03*
X293370Y39150D03*
X293370Y74650D03*
X306070Y39150D03*
X306070Y74650D03*
X318770Y39150D03*
X318770Y74650D03*
X331470Y39150D03*
X331470Y74650D03*
D12*
X281178Y350266D03*
X314198Y350266D03*
D13*
X246736Y268826D03*
X227736Y268826D03*
X237236Y247826D03*
D14*
X228346Y168148D03*
X228346Y201168D03*
X244856Y320294D03*
X244856Y287274D03*
D12*
X189738Y286766D03*
X222758Y286766D03*
X236728Y228346D03*
X269748Y228346D03*
D15*
X233680Y72390D03*
X33020Y345440D03*
X6350Y431800D03*
X314198Y326390D03*
X143510Y55880D03*
X151130Y250190D03*
X160020Y337820D03*
X114300Y361950D03*
X198120Y346710D03*
X53340Y262890D03*
X67310Y196850D03*
X25400Y120650D03*
X85090Y20320D03*
X44450Y17780D03*
X27940Y44450D03*
X321310Y191770D03*
X278130Y170180D03*
X290830Y300990D03*
X353060Y111760D03*
X84455Y329565D03*
X45720Y379730D03*
X335280Y96520D03*
X337820Y427990D03*
X280670Y374650D03*
X128270Y118110D03*
X73660Y149860D03*
X124460Y162560D03*
X212090Y427990D03*
X120650Y143510D03*
X115570Y106680D03*
X148590Y156210D03*
X212090Y378460D03*
X88900Y124460D03*
X166370Y99060D03*
X256286Y337566D03*
D16*
X327406Y261366D03*
D15*
X242570Y429260D03*
D16*
X282956Y234696D03*
D15*
X195580Y43180D03*
M02*
